<svg xmlns="http://www.w3.org/2000/svg" width="13.585" height="10.188" viewBox="0 0 13.585 10.188">
  <g id="Email_icon" data-name="Email icon" transform="translate(0 0)">
    <path id="Path_324" data-name="Path 324" d="M-2173.29,5396.509h-11.038a1.275,1.275,0,0,0-1.273,1.273v7.642a1.275,1.275,0,0,0,1.273,1.273h11.038a1.275,1.275,0,0,0,1.274-1.273v-7.642a1.275,1.275,0,0,0-1.274-1.273Zm0,.849a.429.429,0,0,1,.163.033l-5.681,4.924-5.682-4.924a.43.43,0,0,1,.163-.033Zm0,8.491h-11.038a.424.424,0,0,1-.424-.424v-7.137l5.665,4.91a.424.424,0,0,0,.278.1.423.423,0,0,0,.278-.1l5.665-4.91v7.137a.424.424,0,0,1-.425.424Zm0,0" transform="translate(2185.601 -5396.509)" fill="#022334"/>
  </g>
</svg>
