<svg xmlns="http://www.w3.org/2000/svg" width="75.601" height="66.148" viewBox="0 0 75.601 66.148">
  <g id="Tea_icon" data-name="Tea icon" transform="translate(5637.502 -1655.919)">
    <path id="Path_1183" data-name="Path 1183" d="M-5500.278,1671.673a8.93,8.93,0,0,0,1.815,5.57,1.575,1.575,0,0,0,2.21.439,1.617,1.617,0,0,0,.34-2.285,8.11,8.11,0,0,1-.9-1.758,6.3,6.3,0,0,1,1-5.857,9.418,9.418,0,0,0,.078-11.024,1.586,1.586,0,0,0-2.293-.548,1.593,1.593,0,0,0-.3,2.333,6.3,6.3,0,0,1-.152,7.553A9.16,9.16,0,0,0-5500.278,1671.673Zm15.734-9.484a8.956,8.956,0,0,0-1.83-5.566,1.545,1.545,0,0,0-2.21-.4,1.6,1.6,0,0,0-.355,2.224,8.794,8.794,0,0,1,.934,1.823,6.4,6.4,0,0,1-1.1,5.979,9.376,9.376,0,0,0,.024,10.9,1.611,1.611,0,0,0,2.3.52,1.607,1.607,0,0,0,.26-2.344,6.278,6.278,0,0,1,.14-7.491A9.2,9.2,0,0,0-5484.544,1662.189Zm-18.9.037a8.946,8.946,0,0,0-1.852-5.631,1.544,1.544,0,0,0-2.218-.35,1.591,1.591,0,0,0-.338,2.173,8.808,8.808,0,0,1,.819,1.474,6.4,6.4,0,0,1-.95,6.328,9.4,9.4,0,0,0,.03,10.958,1.618,1.618,0,0,0,2.255.51,1.6,1.6,0,0,0,.305-2.337,6.284,6.284,0,0,1,.144-7.55A9.168,9.168,0,0,0-5503.444,1662.227Z" transform="translate(-102.571 0)" fill="#fff"/>
    <path id="Path_1184" data-name="Path 1184" d="M-5637.5,1816.229a2.31,2.31,0,0,1,2.239-1.051c5.9.035,11.808.017,17.712.017h1l-.688-.589a29.619,29.619,0,0,1-10.812-23c-.018-1.058-.013-2.116,0-3.173a4.679,4.679,0,0,1,4.665-4.719c1.574-.032,3.148-.008,4.724-.008q19.557,0,39.115,0a4.726,4.726,0,0,1,5.05,5.019c0,.492,0,.984,0,1.476,0,.192.025.385.035.522,1.405-.237,2.774-.527,4.159-.686a8.18,8.18,0,0,1,4.806.79c2.535,1.321,3.382,3.625,3.57,6.287a8.952,8.952,0,0,1-3.188,7.384,24.742,24.742,0,0,1-9.014,5.18c-2.591.9-5.272,1.541-7.905,2.327a3.125,3.125,0,0,0-1.116.621c-.921.8-1.8,1.643-2.795,2.563h.882q9,0,18.007-.008a1.734,1.734,0,0,1,1.873,1,1.733,1.733,0,0,1-.651,2.021c-1.076,1.046-2.121,2.123-3.188,3.178a10.845,10.845,0,0,1-7.9,3.259q-24.356.009-48.71,0a10.747,10.747,0,0,1-7.682-3.05c-1.228-1.172-2.414-2.387-3.609-3.592a8.436,8.436,0,0,1-.585-.738Zm36.251-29.381q-10.882,0-21.767,0c-1.241,0-1.9.57-1.886,1.746a55.077,55.077,0,0,0,.25,6.33c1.179,8.842,5.738,15.474,13.413,19.979a2.148,2.148,0,0,0,1.035.279q8.928.025,17.855,0a2.059,2.059,0,0,0,.968-.253,26.53,26.53,0,0,0,12.2-14.426,31.127,31.127,0,0,0,1.517-11.624c-.037-1.529-.513-2.033-2.041-2.033Zm-30.769,31.516c.162.2.242.314.337.416a8.319,8.319,0,0,0,6.442,2.735q23.947-.021,47.9-.012a11.327,11.327,0,0,0,1.764-.122,8.023,8.023,0,0,0,5.053-3.017Zm52.764-10.294c-.04,0,.036.023.1,0a39.682,39.682,0,0,0,8.65-3.477,14.613,14.613,0,0,0,4.025-3.178,5.827,5.827,0,0,0,1.249-5.308,3.385,3.385,0,0,0-3.453-2.924,15.068,15.068,0,0,0-5.142.772,1.1,1.1,0,0,0-.912,1.11,24.593,24.593,0,0,1-1.808,7.333C-5577.365,1804.336-5578.354,1806.2-5579.256,1808.069Z" transform="translate(0 -102.578)" fill="#fff"/>
    <path id="Path_1185" data-name="Path 1185" d="M-5461.813,1671.675a9.151,9.151,0,0,1,1.8-5.577,6.3,6.3,0,0,0,.151-7.553,1.592,1.592,0,0,1,.3-2.333,1.586,1.586,0,0,1,2.293.548,9.417,9.417,0,0,1-.078,11.024,6.3,6.3,0,0,0-1,5.857,8.112,8.112,0,0,0,.9,1.758,1.616,1.616,0,0,1-.34,2.285,1.573,1.573,0,0,1-2.209-.439A8.922,8.922,0,0,1-5461.813,1671.675Z" transform="translate(-141.035 -0.001)" fill="#fff"/>
    <path id="Path_1186" data-name="Path 1186" d="M-5407.65,1662.189a9.2,9.2,0,0,1-1.829,5.643,6.28,6.28,0,0,0-.14,7.491,1.607,1.607,0,0,1-.259,2.344,1.612,1.612,0,0,1-2.305-.52,9.375,9.375,0,0,1-.024-10.9,6.4,6.4,0,0,0,1.1-5.979,8.817,8.817,0,0,0-.934-1.823,1.6,1.6,0,0,1,.355-2.224,1.545,1.545,0,0,1,2.21.4A8.954,8.954,0,0,1-5407.65,1662.189Z" transform="translate(-179.465 0)" fill="#fff"/>
    <path id="Path_1187" data-name="Path 1187" d="M-5503.444,1662.239a9.17,9.17,0,0,1-1.8,5.577,6.284,6.284,0,0,0-.144,7.55,1.6,1.6,0,0,1-.305,2.337,1.618,1.618,0,0,1-2.255-.51,9.4,9.4,0,0,1-.03-10.958,6.4,6.4,0,0,0,.95-6.328,8.825,8.825,0,0,0-.819-1.473,1.591,1.591,0,0,1,.338-2.173,1.544,1.544,0,0,1,2.218.35A8.946,8.946,0,0,1-5503.444,1662.239Z" transform="translate(-102.571 -0.013)" fill="#fff"/>
  </g>
</svg>
