<svg id="Facebook" xmlns="http://www.w3.org/2000/svg" width="39.533" height="39.533" viewBox="0 0 39.533 39.533">
  <path id="Path_451" data-name="Path 451" d="M-222.753,4322.61a19.765,19.765,0,0,0-19.766,19.766,19.765,19.765,0,0,0,19.766,19.767,19.766,19.766,0,0,0,19.767-19.767A19.765,19.765,0,0,0-222.753,4322.61Zm4.637,19.363h-3.362v12.182h-5.04v-12.182h-2.519v-4.2h2.519v-2.521c0-3.424,1.423-5.461,5.461-5.461h3.364v4.2h-2.1c-1.573,0-1.678.585-1.678,1.681l-.006,2.1h3.81Z" transform="translate(242.519 -4322.61)" fill="#c6ff6e"/>
</svg>
