<svg id="Icon" xmlns="http://www.w3.org/2000/svg" xmlns:xlink="http://www.w3.org/1999/xlink" width="108.932" height="79.551" viewBox="0 0 108.932 79.551">
  <defs>
    <clipPath id="clip-path">
      <rect id="Rectangle_139" data-name="Rectangle 139" width="108.932" height="79.551" fill="#022334"/>
    </clipPath>
  </defs>
  <g id="Group_439" data-name="Group 439" clip-path="url(#clip-path)">
    <path id="Path_1243" data-name="Path 1243" d="M265.394,126.615a1.721,1.721,0,0,0,1.725-1.661,1.653,1.653,0,0,0-1.485-1.754,1.6,1.6,0,0,0-1.763,1.567,1.728,1.728,0,0,0,1.524,1.848" transform="translate(-188.876 -88.182)" fill="#022334"/>
    <path id="Path_1244" data-name="Path 1244" d="M265.394,126.615a1.728,1.728,0,0,1-1.524-1.848,1.6,1.6,0,0,1,1.763-1.567,1.653,1.653,0,0,1,1.485,1.754,1.721,1.721,0,0,1-1.725,1.661" transform="translate(-188.876 -88.182)" fill="#022334"/>
    <path id="Path_1245" data-name="Path 1245" d="M105.056,56.1c-1.116-1.281-2.339-2.468-3.515-3.7a16.207,16.207,0,0,1-4.078-7.578c2.673,0,5.183.02,7.692-.007,1.729-.019,2.808-.912,2.912-2.322s-.741-2.368-2.4-2.733c-1.4-.309-2.8-.627-4.308-.963a12.522,12.522,0,0,0,.578-7.383,2.8,2.8,0,0,0-4.673-1.8c-1.185.93-2.226,2.044-3.273,3.02-.978-.926-2-1.936-3.071-2.9a2.786,2.786,0,0,0-3.148-.592,2.961,2.961,0,0,0-1.8,2.671c-.106,1.148-.2,2.3-.323,3.7-.554-.327-1.1-.481-1.374-.842-.905-1.2-1.711-2.481-2.671-3.9,1.066-2.827.479-5.773-.936-8.635a2.487,2.487,0,0,0-2.464-1.52,2.4,2.4,0,0,0-2.333,1.705A15.672,15.672,0,0,1,70.9,29.088c-1.373,1.174-2.8,2.283-4.189,3.441q-5.345,4.464-10.672,8.951A1.934,1.934,0,0,1,54,42.037c-1.608-.63-3.2-1.308-4.733-1.942-.126-2.211-.1-4.422-.4-6.586A37.983,37.983,0,0,0,38.186,11.9c-.4-.412-1.65-1.517-1.86-1.736C30.263,3.821,17.271.2,10.027,0A2.56,2.56,0,0,0,7.243,2.97a12.576,12.576,0,0,0,2.831,6.974,2.91,2.91,0,0,1,.57,1.5,14.2,14.2,0,0,0,2.617,7.406,6.819,6.819,0,0,1,.774,1.99,9.447,9.447,0,0,1,.136,1.155c.715,4.133,3.164,6.923,6.791,8.829a1.875,1.875,0,0,1,.923,1.009,11.867,11.867,0,0,0,4.973,7.159,6.872,6.872,0,0,1,1.075,1.293c-1.391.528-2.5.986-3.632,1.372-3.824,1.3-7.656,1.894-11.637.522A2.819,2.819,0,0,0,9.011,45.4c1.249,6.189,4,11.575,8.954,15.614,1.805,1.47,3.873,2.619,5.842,3.929a20.157,20.157,0,0,1-13.9.643,7.221,7.221,0,0,0-2.425-5.735c-.932-.9-1.9-1-2.6-.269-.672.7-.533,1.592.281,2.531.573.66,1.042,1.41,1.558,2.12l-.277.278c-1.257-.53-2.507-1.078-3.774-1.581-.414-.164-.987-.427-1.288-.268a2.77,2.77,0,0,0-1.3,1.315,1.394,1.394,0,0,0,1.012,1.748c2.266.9,4.505,1.884,6.821,2.629,6.9,2.218,13.595,1.89,19.973-1.826a2.076,2.076,0,0,1,1.185-.2c1.442.147,2.872.437,4.316.531a31.254,31.254,0,0,0,14.47-2.087c3.926-1.665,7.027-4.461,10.077-7.343,3.683-3.481,7.42-6.9,11.127-10.358a1.078,1.078,0,0,1,1.381-.207,10.4,10.4,0,0,0,10.589-.921,1.816,1.816,0,0,1,.82-.427c2.831-.032,5.662-.019,8.5-.019-.013.053-.062.253-.108.453-.728,3.164-5.92,8.31-8.223,11.586-.148.211-.652.789-.752.934a13.411,13.411,0,0,0,2.576,17.661,15.963,15.963,0,0,0,13.131,3.131c5.538-.945,9.577-3.878,11.389-9.412.217-.663.381-1.343.57-2.015V64.006a18.336,18.336,0,0,0-3.876-7.9M79.063,43.359a6.76,6.76,0,0,1-7.343.519,3.548,3.548,0,0,0-4.605.606C63.307,48.038,59.508,51.6,55.645,55.1a62.921,62.921,0,0,1-6.2,5.149c-4.254,2.95-9.18,3.534-14.206,3.468A25.513,25.513,0,0,1,25.1,61.69C18.045,58.561,14.226,52.878,12.3,45.477a18.276,18.276,0,0,0,9.685.177c2.189-.539,4.311-1.356,6.447-2.1a1.069,1.069,0,0,1,1.43.385A18.078,18.078,0,0,0,39.1,49.87a1.614,1.614,0,1,0,1.047-3.049c-.261-.107-.539-.169-.8-.267a15.886,15.886,0,0,1-6.582-4.146c-.232-.259-.423-.555-.784-1.034,1.118.265,1.934.485,2.761.646.867.169,1.743.3,2.62.412a1.638,1.638,0,0,0,1.877-1.33,1.531,1.531,0,0,0-1.239-1.809c-.719-.177-1.465-.24-2.2-.374-2.917-.535-5.755-1.321-8.025-3.344a23.977,23.977,0,0,1-2.348-2.809,34.984,34.984,0,0,1,4.218.419A1.638,1.638,0,0,0,31.664,31.8c.107-.9-.6-1.646-1.69-1.814-.909-.14-1.825-.249-2.721-.445-2.9-.634-5.666-1.585-7.793-3.807a6.747,6.747,0,0,1-1.778-3.14,8.411,8.411,0,0,0,.944.447c2.425.746,4.847,1.507,7.291,2.191a1.892,1.892,0,0,0,1.511-.142,2.485,2.485,0,0,0,.8-1.663c-.01-.828-.732-1.194-1.545-1.33-3.309-.553-6.505-1.414-9.189-3.573a9.073,9.073,0,0,1-3.275-5.2,10.419,10.419,0,0,0,1.275.575c2.472.712,4.939,1.448,7.433,2.072a1.454,1.454,0,0,0,1.8-1.236,1.55,1.55,0,0,0-1.17-1.867,6.234,6.234,0,0,0-.728-.135c-3.333-.624-6.568-1.5-9.194-3.814a8.8,8.8,0,0,1-3.055-5.651c.987.06,1.865.076,2.735.172,5.4.595,16.483,4.308,21.17,9.354.161.16.335.309.5.469,7.838,7.754,11.761,17.013,10.809,28.142-.069.811-.21,1.616-.26,2.427a1.448,1.448,0,0,0,1.239,1.612,1.516,1.516,0,0,0,1.845-1.057c.108-.276.17-.569.288-.974,1.162.48,2.254.884,3.3,1.376a4.976,4.976,0,0,0,5.733-.71c4.573-3.812,9.136-7.636,13.74-11.41a23.957,23.957,0,0,0,6.468-7.378c.037-.072.167-.1.279-.154a6.359,6.359,0,0,1-.093,5.071c-.8,1.752-.719,2.062.813,3.166a5.972,5.972,0,0,1-.074,9.983m19.99-10.695a37.025,37.025,0,0,1-.359,3.921c-.263,1.349-.662,1.513-1.969,1.222-.306-.068-.6-.169-.9-.252.131-2.112,1.6-4.438,3.226-4.891M89.01,33.836c.032-.407.105-.811.176-1.337a7.176,7.176,0,0,1,2.895,4.218c-.4-.063-.74-.1-1.073-.17-2.046-.427-2.161-.583-2-2.712m-4.688,8.342.837-3.618,13.414,2.947-.055.271-14.2.4M99.1,75.381a15.263,15.263,0,0,1-7.213.771,10.292,10.292,0,0,1-7.966-15.866c.047-.08.641-.872.708-.983,2.279-3.787,7.746-8.514,8.966-13.262.08-.312.213-.609.365-1.036.173.251.26.325.281.414a22.142,22.142,0,0,0,6.689,10.991,18.912,18.912,0,0,1,3.593,4.826A9.922,9.922,0,0,1,99.1,75.381" transform="translate(0 0)" fill="#022334"/>
  </g>
</svg>
