<svg xmlns="http://www.w3.org/2000/svg" width="68.459" height="68.547" viewBox="0 0 68.459 68.547">
  <g id="Services_for_Deaf_and_Hard_of_Hearing" data-name="Services for Deaf and Hard of Hearing" transform="translate(-24.349 -13.602)">
    <g id="Icon" transform="translate(-257.271 -417.572)">
      <path id="Path_293" data-name="Path 293" d="M299.617,456.355h0" transform="translate(6.305 8.805)" fill="#022334" stroke="#022334" stroke-linecap="round" stroke-linejoin="round" stroke-width="0.5"/>
      <path id="Path_294" data-name="Path 294" d="M327.347,474.214c.652-.751,1.223-1.442,1.831-2.1,3.749-4.07,6.79-8.465,7.3-14.072a30.577,30.577,0,0,0,0-8.827c-1.929-9.655-11.093-15.754-21.3-14.256-6.981,1.025-13.1,6.312-14.786,12.82a1.164,1.164,0,0,0,.27.951c1.1,1.119,2.251,2.187,3.394,3.268a2.5,2.5,0,0,0,.451.263c.046-.63.046-1.172.133-1.7,1.246-7.6,8.625-12.043,15.366-11.177,6.591.847,12.016,6.519,11.992,12.831a1.62,1.62,0,0,1-1.63,1.759,1.644,1.644,0,0,1-1.667-1.649,15.616,15.616,0,0,0-.173-1.69,10.533,10.533,0,0,0-20.575.13c-.2,1.141-.256,2.312-.549,3.428a1.2,1.2,0,0,0,.377,1.393q9.488,9.016,18.942,18.068c.187.179.386.35.625.567M297.5,445.965a21.554,21.554,0,0,1,6.4-9.234c12.283-10.455,32.51-4.18,35.593,11.253,1.836,9.2-.039,17.784-6.794,25.013-1.029,1.1-1.968,2.274-2.991,3.463.237.24.45.466.672.68q9.183,8.77,18.363,17.539a5.656,5.656,0,0,1,.768.825,1.476,1.476,0,0,1-.248,1.946,1.653,1.653,0,0,1-2.042.191,6.892,6.892,0,0,1-.923-.8q-20.37-19.478-40.739-38.957-11.161-10.665-22.357-21.3c-.168-.16-.337-.32-.505-.481-.942-.905-1.084-1.832-.393-2.53.722-.726,1.8-.629,2.732.263q5.871,5.6,11.733,11.211a9.453,9.453,0,0,1,.728.912" transform="translate(0 0)" fill="#022334" stroke="#022334" stroke-width="0.5"/>
      <path id="Path_295" data-name="Path 295" d="M319.849,467.3l2.312,2.254c-2.525,3.337-4.31,7.146-6.358,10.821-2.458,4.409-8.35,7.058-13.534,6.242-6.244-.983-10.581-4.918-11.813-10.746a11.822,11.822,0,0,1-.222-1.943,1.658,1.658,0,1,1,3.3-.125,9.569,9.569,0,0,0,2.9,6.674,10.751,10.751,0,0,0,16.979-2.389c1.533-2.908,3.193-5.757,4.841-8.609a24.082,24.082,0,0,1,1.6-2.178" transform="translate(2.971 12.694)" fill="#022334" stroke="#022334" stroke-width="0.5"/>
      <path id="Path_296" data-name="Path 296" d="M296,451.373c.825,1.041,1.519,2,2.312,2.877a4.808,4.808,0,0,0,1.507,1.121,10.45,10.45,0,0,1,3.838,2.556,3.916,3.916,0,0,1-1.042,6.283c-.623.385-1.278.722-1.9,1.107a4.466,4.466,0,0,0-2.221,5.049A4.676,4.676,0,0,0,303,473.833c1.167.079,1.849.731,1.784,1.7-.062.942-.889,1.526-2.03,1.438a8.081,8.081,0,0,1-7.545-6.19,7.979,7.979,0,0,1,4.291-8.465c.442-.233.89-.458,1.315-.717.835-.511.991-1.1.258-1.725a10.065,10.065,0,0,0-2.517-1.546,5.6,5.6,0,0,1-3.624-3.906A3.24,3.24,0,0,1,296,451.373" transform="translate(4.613 7.035)" fill="#022334" stroke="#022334" stroke-width="0.5"/>
    </g>
  </g>
</svg>
