<svg xmlns="http://www.w3.org/2000/svg" width="114.142" height="76.683" viewBox="0 0 114.142 76.683">
  <g id="Typesetting" transform="translate(-1073.559 -260.567)">
    <path id="Path_888" data-name="Path 888" d="M1187.7,332.8H1073.559V277.961H1187.7Zm-110.375-3.768h106.607v-47.3H1077.327Z" transform="translate(0 -6.471)" fill="#fff"/>
    <path id="Path_889" data-name="Path 889" d="M1116.055,267.852l.157-.017.157-.017.157-.017.157-.035.157-.035.157-.052.314-.1.14-.07.14-.07.14-.07.14-.087.14-.087.122-.1.122-.1.122-.1.122-.1.1-.122.21-.245.262-.419.07-.14.14-.28.052-.157.052-.157.035-.157.07-.314.017-.175.017-.157v-.472l-.035-.314-.035-.157-.035-.157-.035-.157-.052-.157-.052-.157-.14-.28-.07-.14-.175-.28-.087-.14-.1-.122-.1-.122-.1-.122-.122-.1-.122-.1-.122-.1-.122-.1-.279-.175-.14-.07-.14-.07-.14-.07-.314-.1-.157-.052-.157-.035-.157-.035-.314-.035-.157-.017-.157.017h-8.491l-.3-.035h-.3l-.3.017-.1.017h-8.531l-.157.017-.314.035-.157.035-.157.035-.157.052-.315.1-.14.07-.14.07-.14.07-.14.087-.14.087-.122.1-.245.21-.122.1-.1.122-.1.122-.1.122-.087.14-.175.279-.07.14-.07.14-.07.14-.1.314-.035.157-.035.157-.035.157-.035.314v.472l.035.314.035.157.035.157.035.175.052.157.052.157.07.14.07.14.07.14.087.122.175.279.1.122.1.122.1.122.122.1.245.21.122.1.14.087.14.087.28.14.14.07.315.1.157.052.157.035.157.035.157.017.157.017.157.017h5.416v62.113h-5.416l-.157.017-.157.017-.157.017-.157.035-.157.035-.157.052-.315.1-.14.07-.14.07-.14.07-.14.087-.14.087-.122.1-.122.1-.122.1-.122.1-.21.245-.1.122-.087.14-.087.14-.087.14-.07.14-.07.14-.07.14-.1.314-.035.157-.035.157-.035.157-.035.314v.472l.035.314.035.157.035.157.035.157.052.157.052.157.07.14.14.279.087.14.087.122.087.14.1.122.1.122.1.122.122.1.122.1.122.1.122.1.14.087.14.087.28.14.14.07.315.1.157.052.157.035.157.035.157.017.157.017.157.017h8.432l.2.035.3.017h.3l.3-.017.2-.035h8.467l.157-.017.157-.017.157-.017.157-.035.157-.035.157-.052.157-.052.157-.052.14-.07.14-.07.14-.07.14-.07.14-.087.122-.1.122-.1.122-.1.122-.1.1-.122.087-.14.1-.122.175-.28.087-.14.21-.419.052-.157.052-.157.035-.157.035-.157.035-.157.017-.157.017-.157v-.472l-.035-.314-.035-.157-.035-.157-.035-.157-.052-.157-.052-.157-.07-.14-.07-.14-.07-.14-.175-.28-.087-.14-.1-.122-.1-.122-.1-.122-.122-.1-.122-.1-.122-.1-.122-.1-.279-.175-.14-.07-.14-.07-.14-.07-.314-.1-.157-.052-.157-.035-.157-.035-.157-.017-.157-.017-.157-.017-.157.017h-5.276V267.852Z" transform="translate(-7.756)" fill="#fff" fill-rule="evenodd"/>
    <g id="Group_320" data-name="Group 320" transform="translate(1113.474 280.932)">
      <path id="Path_890" data-name="Path 890" d="M1145.8,318.064l-3.8,11.5h-4.882L1149.542,293h5.7l12.481,36.571h-5.045l-3.91-11.5Zm11.99-3.69-3.578-10.528c-.818-2.386-1.357-4.557-1.9-6.674h-.11c-.544,2.172-1.14,4.4-1.843,6.62l-3.583,10.581Z" transform="translate(-1137.118 -292.996)" fill="#fff"/>
      <path id="Path_891" data-name="Path 891" d="M1207.836,335.321l-.38-3.309h-.163a9.785,9.785,0,0,1-8.032,3.906c-5.315,0-8.028-3.745-8.028-7.542,0-6.349,5.642-9.822,15.79-9.767v-.543c0-2.169-.6-6.077-5.969-6.077a13.1,13.1,0,0,0-6.839,1.953l-1.083-3.146a16.28,16.28,0,0,1,8.624-2.333c8.032,0,9.985,5.479,9.985,10.743v9.821a37.286,37.286,0,0,0,.433,6.294Zm-.707-13.4c-5.209-.109-11.121.813-11.121,5.913a4.225,4.225,0,0,0,4.5,4.56,6.535,6.535,0,0,0,6.349-4.4,4.97,4.97,0,0,0,.269-1.52Z" transform="translate(-1157.249 -298.75)" fill="#fff"/>
    </g>
  </g>
</svg>
