<svg xmlns="http://www.w3.org/2000/svg" xmlns:xlink="http://www.w3.org/1999/xlink" width="117.746" height="122.517" viewBox="0 0 117.746 122.517">
  <defs>
    <clipPath id="clip-path">
      <rect id="Rectangle_138" data-name="Rectangle 138" width="117.746" height="122.517" fill="#022334"/>
    </clipPath>
  </defs>
  <g id="Group_436" data-name="Group 436" clip-path="url(#clip-path)">
    <path id="Path_1232" data-name="Path 1232" d="M19.272,41.288c1.01.018,2.01.027,3,.027,1.007,0,2-.01,2.964-.028a2.218,2.218,0,0,0,1.576-.682,2.115,2.115,0,0,0,.589-1.531,2.137,2.137,0,0,0-2.13-2.084c-.667-.027-1.335-.021-2.006-.016h-.048c-.33,0-.66.006-.99,0l-.889,0c-.682,0-1.361-.01-2.039.011a2.152,2.152,0,1,0-.021,4.3" transform="translate(-3.12 -6.75)" fill="#022334"/>
    <path id="Path_1233" data-name="Path 1233" d="M19.269,47.917c.66.029,1.321.022,1.984.017.315,0,.629,0,.944,0l.9.006c.3,0,.6,0,.9,0H24c.374,0,.749,0,1.124-.018A2.175,2.175,0,0,0,27.4,45.7,2.222,2.222,0,0,0,25.132,43.6c-1.05-.017-2.053-.025-3.023-.025s-1.9.01-2.818.028a2.174,2.174,0,0,0-2.2,2.158,2.152,2.152,0,0,0,2.183,2.16" transform="translate(-3.12 -7.955)" fill="#022334"/>
    <path id="Path_1234" data-name="Path 1234" d="M26.517,33.888h0a2.243,2.243,0,0,0,1.592-.663,2.088,2.088,0,0,0,.607-1.515h0a2.182,2.182,0,0,0-.692-1.514,2.149,2.149,0,0,0-3.123.1,2.135,2.135,0,0,0,1.61,3.6" transform="translate(-4.442 -5.399)" fill="#022334"/>
    <path id="Path_1235" data-name="Path 1235" d="M79.93,36.281H98.037l13.563,0a5.96,5.96,0,0,0,6.3-6.269q.011-7.273,0-14.548a5.958,5.958,0,0,0-6.3-6.27q-31.672,0-63.34,0A5.964,5.964,0,0,0,42.019,15.4q-.012,6.79,0,13.581v.848c0,3.978,2.484,6.449,6.477,6.45H79.93Zm-33.351-7q0-6.625,0-13.25c0-1.832.435-2.279,2.214-2.279q31.187,0,62.368,0c1.73,0,2.178.452,2.18,2.2q0,6.8,0,13.6c0,1.718-.457,2.164-2.214,2.164H48.992c-2.052,0-2.412-.365-2.413-2.434" transform="translate(-7.671 -1.678)" fill="#022334"/>
    <path id="Path_1236" data-name="Path 1236" d="M129.639,84.123a5.944,5.944,0,0,0-6.06-6.033q-5.573-.021-11.146,0a5.922,5.922,0,0,0-6.118,6.094q-.015,14.958,0,29.914a5.926,5.926,0,0,0,6.12,6.1q2.507.009,5.016.007,2.946,0,5.894-.006a5.964,5.964,0,0,0,6.3-6.275q.007-5.141,0-10.282v-4.5l0-4.726q0-5.145-.007-10.29m-4.557,19.2q0,5.064,0,10.128c0,1.73-.453,2.179-2.2,2.182q-4.976,0-9.958,0c-1.57,0-2.049-.492-2.05-2.089q-.006-14.414,0-28.828c0-1.576.486-2.057,2.076-2.062q2.55,0,5.1,0,2.488,0,4.974.006c1.57,0,2.049.491,2.052,2.087q.007,5.248,0,10.494v8.088Z" transform="translate(-19.409 -14.256)" fill="#022334"/>
    <path id="Path_1237" data-name="Path 1237" d="M91.592,50.534c-3.668-.025-7.537-.026-11.5,0a5.923,5.923,0,0,0-5.927,5.924c-.02,2.3-.021,4.726,0,7.63a5.969,5.969,0,0,0,6.074,6.019c1.331.01,2.662.007,3.994,0l1.638,0,1.8,0q.875,0,1.752,0c.732,0,1.465,0,2.2-.013a5.976,5.976,0,0,0,5.863-5.866c.03-2.689.03-5.337,0-7.868a5.95,5.95,0,0,0-5.894-5.834m1.335,13.129c-.012,1.338-.547,1.864-1.91,1.877-1.2.012-2.389.009-3.586.007l-1.56,0-1.6,0c-1.223,0-2.444.007-3.664-.007-1.344-.015-1.87-.549-1.88-1.905q-.026-3.333,0-6.666c.011-1.343.545-1.869,1.905-1.874q2.637-.011,5.275-.011,2.569,0,5.138.012c1.341.006,1.868.539,1.878,1.9.018,2.354.018,4.534,0,6.665" transform="translate(-13.539 -9.223)" fill="#022334"/>
    <path id="Path_1238" data-name="Path 1238" d="M123.795,50.534c-3.742-.029-7.651-.03-11.616,0a5.947,5.947,0,0,0-5.863,5.867c-.025,2.317-.025,4.852,0,7.749a5.99,5.99,0,0,0,6.019,5.954c1.31.01,2.622.008,3.933,0l1.7,0,1.81,0q.873,0,1.748,0,1.1,0,2.194-.011a5.948,5.948,0,0,0,5.92-5.932c.025-2.747.025-5.281,0-7.749a5.95,5.95,0,0,0-5.841-5.887m1.278,13.192c-.014,1.256-.568,1.8-1.856,1.812-1.221.014-2.443.01-3.665.007l-1.6,0-1.524,0c-1.207,0-2.413,0-3.622-.006-1.377-.012-1.918-.532-1.929-1.855-.023-2.417-.022-4.636,0-6.781.012-1.262.566-1.8,1.851-1.81,3.772-.018,7.217-.018,10.53,0,1.259.007,1.8.56,1.814,1.849.022,2.429.021,4.646,0,6.781" transform="translate(-19.408 -9.222)" fill="#022334"/>
    <path id="Path_1239" data-name="Path 1239" d="M91.472,78.089c-1.314-.011-2.627-.008-3.939,0l-1.694,0-1.77,0c-1.327,0-2.653-.007-3.98.007a5.943,5.943,0,0,0-5.922,5.93c-.024,2.672-.024,5.279,0,7.748a5.949,5.949,0,0,0,5.841,5.89c1.886.016,3.814.024,5.772.024,1.924,0,3.877-.007,5.844-.023a5.951,5.951,0,0,0,5.862-5.867c.026-2.326.027-4.862,0-7.749a5.988,5.988,0,0,0-6.017-5.953m1.453,13.165c-.012,1.284-.557,1.836-1.822,1.842-3.357.019-6.9.02-10.528,0-1.281-.006-1.833-.55-1.845-1.819-.022-2.167-.022-4.448,0-6.782.011-1.274.556-1.825,1.822-1.842.7-.009,1.408-.011,2.111-.011q.817,0,1.633,0l1.635,0,1.574,0c1.189,0,2.38-.007,3.571.007,1.283.016,1.835.559,1.848,1.819.023,2.158.023,4.439,0,6.781" transform="translate(-13.538 -14.256)" fill="#022334"/>
    <path id="Path_1240" data-name="Path 1240" d="M91.558,105.651c-4.09-.025-7.85-.025-11.5,0a5.923,5.923,0,0,0-5.894,5.957c-.02,2.479-.02,5.046,0,7.629a5.991,5.991,0,0,0,5.989,5.984c1.3.011,2.6.008,3.894.006l1.739,0,1.811,0q.871,0,1.741,0,1.1,0,2.2-.01a5.948,5.948,0,0,0,5.949-5.9c.025-2.488.025-5.095,0-7.748a5.925,5.925,0,0,0-5.93-5.92m1.371,13.029c-.009,1.436-.53,1.972-1.924,1.978q-5.2.022-10.412,0c-1.331-.007-1.853-.544-1.864-1.918q-.023-3.275,0-6.55c.008-1.471.523-1.971,2.039-1.979q.98,0,1.96,0l1.534,0,1.536,0,1.566,0c1.155,0,2.311,0,3.466,0,1.6.007,2.092.483,2.1,2.037q.016,3.216,0,6.434" transform="translate(-13.539 -19.286)" fill="#022334"/>
    <path id="Path_1241" data-name="Path 1241" d="M104.023.007Q72.3-.009,40.569.008A12.056,12.056,0,0,0,38.4.15c-7.128,1.3-11.557,6.618-11.558,13.868q0,13.85,0,27.7c-3.463.256-5.967.689-6.212.736-.925.179-1.8.349-2.678.56A23.034,23.034,0,0,0,9.35,46.6a6.209,6.209,0,0,0-2.761,5.532c.048,1.136.039,2.3.029,3.423-.008.921-.016,1.843.007,2.765A.989.989,0,0,1,5.9,59.482a16.527,16.527,0,0,0-3.2,1.841A6.03,6.03,0,0,0,.006,66.76c.093,2.472.064,5,.035,7.435l-.016,1.43a4.611,4.611,0,0,0,1.391,3.585,24.118,24.118,0,0,0,3.3,2.483,11.158,11.158,0,0,0,1.746.871c.119.05.232.1.34.146V95.8c-.394.232-.793.459-1.192.687a36.475,36.475,0,0,0-3.185,1.963,5.6,5.6,0,0,0-2.411,4.972c.078,3,.048,5.963.008,8.985A4.986,4.986,0,0,0,1.551,116.3a15.25,15.25,0,0,0,2.957,2.215,29.923,29.923,0,0,0,7.939,2.656l1,.235a54.182,54.182,0,0,0,11.706,1.112c6.847,0,14.571-.948,20.082-3.432,2.455-1.107,5.031-2.541,5.6-5.638q10.716.006,21.433.008,15.926,0,31.852-.011a13.5,13.5,0,0,0,13.611-13.662q.017-43.051,0-86.1A13.4,13.4,0,0,0,104.023.007m-92.3,50.348a26.505,26.505,0,0,1,6.115-2.77,45.786,45.786,0,0,1,9-1.549c1.462-.112,2.976-.174,4.563-.177l.135,0c.962,0,1.959.027,2.973.066.454.017.9.032,1.366.057,1.093.059,2.293.148,3.55.281a37.146,37.146,0,0,1,9.562,2.178,16.5,16.5,0,0,1,3.3,1.741,2.332,2.332,0,0,1,.835.851c0,.188,0,.372,0,.559a2.138,2.138,0,0,1-.763.742,21.453,21.453,0,0,1-4.8,2.328,38.923,38.923,0,0,1-7.439,1.583c-1.842.224-3.681.348-5.495.421-.872.035-1.739.062-2.594.079-.206,0-.421-.013-.629-.019-1.47-.039-3-.1-4.563-.219a40.888,40.888,0,0,1-11.424-2.281A17.4,17.4,0,0,1,11.8,52.339c-.544-.369-.838-.757-.826-1.1.013-.382.415-.694.75-.889m39.033,51.017-.012-.2c.153-.066.309-.13.468-.194.587-.238,1.1-.647,1.713-.887.052-.02.094-.042.146-.062-.142.928-.7,1.338-1.8,1.344l-.516,0M34.348,99.64q-1.474.065-2.931.054c-1.54-.01-3.067-.077-4.576-.211a52.559,52.559,0,0,1-10.452-1.991,20,20,0,0,1-3.732-1.721c-.266-.146-.532-.291-.8-.433a1.761,1.761,0,0,1-.9-1.783c.037-.882.028-1.763.02-2.615l0-.468A62.829,62.829,0,0,0,26.84,94.1c1.52.139,3.042.208,4.563.225.978.011,1.956,0,2.935-.038,1.523-.06,3.046-.19,4.572-.372a63.694,63.694,0,0,0,12.847-2.95c.929.143,1.342.7,1.354,1.794,0,.372,0,.747,0,1.121-.007.051-.009.1-.016.155a2.418,2.418,0,0,1-1.131,1.537l-.884.4a29.915,29.915,0,0,1-6.052,2.274c-2.059.441-4.1.775-6.118,1.015q-2.3.272-4.565.372M42.08,83.411a26.613,26.613,0,0,0,5.153-2.238.791.791,0,0,1,.37-.1c.392.177.787.348,1.184.518a24.179,24.179,0,0,1,3.462,1.716c.035.022.06.044.093.066.537.361.824.7.836,1,.012.347-.315.775-.974,1.272a10.765,10.765,0,0,1-1.094.714,20.691,20.691,0,0,1-5.5,2.006,51.6,51.6,0,0,1-10.688,1.426c-.8.025-1.556.035-2.221.029-.441,0-.874,0-1.3,0-1.626-.013-3.137-.069-4.563-.168a40.6,40.6,0,0,1-11.311-2.238,20,20,0,0,1-3.214-1.637l-.53-.31a1.913,1.913,0,0,1-.7-.865.447.447,0,0,1-.025-.425.5.5,0,0,1,.467-.063,63.787,63.787,0,0,0,15.309,1.453c1.281-.029,2.565-.086,3.855-.189.241-.02.47-.044.708-.065a48.594,48.594,0,0,0,10.679-1.9M53.1,70.1c.033,2.251.034,4.609,0,7.012a1.984,1.984,0,0,1-.284,1.1c-.552-.3-1.159-.621-1.842-.956V69.926c.594-.313,1.214-.61,1.827-.917a1.917,1.917,0,0,1,.3,1.09M10.986,57.754c0-.141,0-.281-.006-.421a63.378,63.378,0,0,0,15.856,3.623c1.522.14,3.042.208,4.563.226a57.525,57.525,0,0,0,7.728-.428,64.026,64.026,0,0,0,14.031-3.4c0,.2.012.4.019.6a17.769,17.769,0,0,1-.056,2.75c-.013.109-.02.218-.038.326a2.617,2.617,0,0,1-1.323,1.556l-.372.171c-.8.365-1.606.729-2.424,1.072a21.67,21.67,0,0,1-3.615,1.211,63.178,63.178,0,0,1-9.985,1.412q-1.994.118-3.964.1-2.3-.02-4.564-.221a54.6,54.6,0,0,1-10.022-1.845,21.612,21.612,0,0,1-3.942-1.725c-.283-.147-.566-.293-.848-.437a1.965,1.965,0,0,1-1.064-2.039c.049-.859.037-1.712.027-2.537m-5.48,6.908a14.6,14.6,0,0,1,1.38-.829l.36-.2c3.1,3.906,7.414,5.064,12.312,6.071a59.229,59.229,0,0,0,7.278,1.022q2.265.177,4.563.186c.715,0,1.432,0,2.151-.024-.716.1-1.435.173-2.151.237-.273.025-.547.053-.819.071-1.3.085-2.538.133-3.744.164a50.8,50.8,0,0,1-15.8-1.728,26.217,26.217,0,0,1-5.555-2.4c-.487-.276-1.073-.7-1.1-1.16-.019-.392.37-.88,1.124-1.412m.707,12.749c-.294-.153-.587-.306-.88-.454a1.863,1.863,0,0,1-.994-1.948c.051-.864.041-1.726.029-2.637q0-.291-.007-.589c7.224,3.472,14.585,3.974,20.894,3.974H25.5q.661,0,1.337-.011c1.476-.02,3-.075,4.563-.19.968-.071,1.946-.163,2.936-.289a45.552,45.552,0,0,0,4.564-.81,36.651,36.651,0,0,0,7.68-2.663c0,.259.012.515.02.768a17.646,17.646,0,0,1-.09,3.119,3.03,3.03,0,0,1-1.292,1.545,14.467,14.467,0,0,1-3.183,1.62,26.932,26.932,0,0,1-4.487,1.184c-.8.15-1.6.282-2.389.4q-1.9.294-3.758.48c-1.542.154-3.064.259-4.563.3a54.3,54.3,0,0,1-16.5-2,22.465,22.465,0,0,1-4.121-1.81M5.012,102a31.537,31.537,0,0,1,3.853-1.972c.392-.179.785-.357,1.13-.526a.926.926,0,0,1,.4.154c3.982,2.319,8.395,3.177,12.571,3.76q2.209.308,4.475.457,2.48.169,5.013.15,1.681-.011,3.379-.1c1.251-.069,2.508-.166,3.769-.3,1.3-.14,2.6-.37,3.863-.593.789-.14,1.577-.28,2.367-.4a1.712,1.712,0,0,1,.565.029,1,1,0,0,1-.031.6,7.847,7.847,0,0,1-1.867,1.525A20,20,0,0,1,42,105.939a30.318,30.318,0,0,1-6.3,1.571c-.557.084-1.107.162-1.638.228-1.465.182-2.953.3-4.428.395-.528.035-1.059.075-1.58.108-.9.057-1.8.114-2.651.181-4.99-.123-10.842-.52-16.415-2.531a18.156,18.156,0,0,1-3.911-2.055c-.482-.325-.745-.67-.741-.974,0-.356.37-.664.677-.858m40.4,11.991a18.5,18.5,0,0,1-7.625,2.878l-.432.079a62.118,62.118,0,0,1-25.207-.34,28.121,28.121,0,0,1-5.407-2.031q-.551-.251-1.1-.5a2.2,2.2,0,0,1-1.309-2.456,19.614,19.614,0,0,0,.039-2.373c0-.11-.006-.218-.007-.325a60.248,60.248,0,0,0,30.027,3.115,63.95,63.95,0,0,0,12.187-3.121c0,.188.008.378.013.571a20.581,20.581,0,0,1-.077,3.1,1.783,1.783,0,0,1-.5.854,3.849,3.849,0,0,1-.607.549m67.763-14.612a9.071,9.071,0,0,1-9.449,9.5q-26.4.013-52.8,0l-.013-1.3,0-.758c0-.3,0-.6,0-.889l.836,0A5.93,5.93,0,0,0,57.673,100c.015-1.673.019-3.439.012-5.339,0-.153,0-.307,0-.461,0-.6,0-1.2-.009-1.829,0-.111-.012-.22-.019-.329,0-2.538-.007-6.588-.007-6.588A6.645,6.645,0,0,0,56.493,81a5.925,5.925,0,0,0,1.179-3.47c.025-2.372.026-4.907,0-7.748a6.007,6.007,0,0,0-1.12-3.459,5.447,5.447,0,0,0,1.124-3.484v-8.63c.022-2.487.02-4.812-.007-7.068a5.95,5.95,0,0,0-5.9-5.827c-3.732-.025-7.6-.026-11.5,0a6.012,6.012,0,0,0-2.245.446c-2.081-.166-4.287-.231-6.628-.213q0-13.767,0-27.535a8.961,8.961,0,0,1,6.611-9.055,11.109,11.109,0,0,1,2.9-.371q19.276-.02,38.552-.018,12.093,0,24.19,0c5.694,0,9.522,3.836,9.524,9.54q.012,42.636,0,85.273" transform="translate(0 0)" fill="#022334"/>
    <path id="Path_1242" data-name="Path 1242" d="M113.2,26.084a6.022,6.022,0,0,0,6.033,5.821h0a6.012,6.012,0,0,0,6.026-5.827c.028-1.557.028-2.944,0-4.238a5.939,5.939,0,0,0-6.058-5.76h-.033a6,6,0,0,0-5.967,5.764c-.012.489-.009.978-.006,1.468l0,.652,0,.66c0,.486-.006.973,0,1.459m4.594-4.063a1.46,1.46,0,0,1,1.435-1.365h.011a1.555,1.555,0,0,1,1.451,1.42,1.483,1.483,0,0,1,.01.178l0,2.458a9.248,9.248,0,0,1-.02,1.229,1.513,1.513,0,0,1-1.442,1.386h-.011a1.477,1.477,0,0,1-1.43-1.389,35.163,35.163,0,0,1,0-3.917" transform="translate(-20.667 -2.936)" fill="#022334"/>
  </g>
</svg>
