<svg xmlns="http://www.w3.org/2000/svg" width="81" height="81" viewBox="0 0 81 81">
  <g id="Call_icon" data-name="Call icon" transform="translate(361.727 -676.14)">
    <rect id="Square" width="81" height="81" rx="12" transform="translate(-361.727 676.14)" fill="#91de29"/>
    <g id="Phone_icon" data-name="Phone icon" transform="translate(-340.542 697.5)">
      <g id="Group_226" data-name="Group 226" transform="translate(0)">
        <path id="Path_461" data-name="Path 461" d="M-295.473,733.409a4,4,0,0,0-2.9-1.33,4.136,4.136,0,0,0-2.934,1.321l-2.71,2.7c-.223-.12-.446-.232-.661-.344-.309-.154-.6-.3-.85-.455a29.444,29.444,0,0,1-7.061-6.435,17.418,17.418,0,0,1-2.317-3.654c.7-.644,1.356-1.313,1.991-1.956.24-.24.481-.489.721-.729a3.936,3.936,0,0,0,0-5.937l-2.342-2.343c-.266-.266-.541-.54-.8-.814-.515-.532-1.056-1.082-1.613-1.6a4.059,4.059,0,0,0-2.874-1.261,4.2,4.2,0,0,0-2.917,1.261l-.017.017-2.917,2.943a6.276,6.276,0,0,0-1.862,3.989,15.05,15.05,0,0,0,1.1,6.366,36.97,36.97,0,0,0,6.563,10.948,40.383,40.383,0,0,0,13.445,10.527,20.945,20.945,0,0,0,7.55,2.231c.18.008.369.017.541.017a6.463,6.463,0,0,0,4.95-2.128c.009-.017.026-.025.034-.042a19.486,19.486,0,0,1,1.5-1.553c.369-.352.747-.721,1.116-1.107a4.279,4.279,0,0,0,1.3-2.969,4.123,4.123,0,0,0-1.321-2.943Z" transform="translate(327.571 -710.578)" fill="#fff"/>
      </g>
    </g>
  </g>
</svg>
