<svg id="Facebook" xmlns="http://www.w3.org/2000/svg" width="30.266" height="30.266" viewBox="0 0 30.266 30.266">
  <path id="Path_451" data-name="Path 451" d="M-227.386,4322.61a15.132,15.132,0,0,0-15.133,15.133,15.132,15.132,0,0,0,15.133,15.133,15.132,15.132,0,0,0,15.133-15.133A15.132,15.132,0,0,0-227.386,4322.61Zm3.55,14.824h-2.574v9.326h-3.859v-9.326H-232.2v-3.214h1.929v-1.93c0-2.622,1.089-4.181,4.181-4.181h2.575v3.216h-1.608c-1.2,0-1.285.447-1.285,1.287l0,1.608h2.917Z" transform="translate(242.519 -4322.61)" fill="#022334"/>
</svg>
