<svg id="Proofreading" xmlns="http://www.w3.org/2000/svg" xmlns:xlink="http://www.w3.org/1999/xlink" width="68.629" height="84.776" viewBox="0 0 68.629 84.776">
  <defs>
    <clipPath id="clip-path">
      <rect id="Rectangle_127" data-name="Rectangle 127" width="68.629" height="84.776" fill="#fff"/>
    </clipPath>
  </defs>
  <g id="Group_410" data-name="Group 410" clip-path="url(#clip-path)">
    <path id="Path_1188" data-name="Path 1188" d="M66.489,64.476c-.716-.633-1.418-1.282-2.148-1.9V5.435A5.442,5.442,0,0,0,58.906,0H5.437A5.442,5.442,0,0,0,0,5.435v73.9a5.442,5.442,0,0,0,5.437,5.436H58.906a5.443,5.443,0,0,0,5.435-5.436V74.351A5.366,5.366,0,0,0,68.4,70.392a5.5,5.5,0,0,0-1.909-5.916M52.513,51.712a.822.822,0,0,1-.655.008c-.756-.564-1.474-1.178-2.218-1.785A20.441,20.441,0,0,0,51.9,31.944H53c.353,0,.707.012,1.06,0,.947-.045,1.456-.516,1.428-1.306-.026-.743-.537-1.18-1.45-1.2-.9-.017-1.793.009-2.689-.014-.222-.006-.545-.053-.644-.2-.516-.776-.974-1.59-1.511-2.491h.928c1.249,0,2.5.008,3.748,0,1.1-.009,1.633-.445,1.617-1.283-.015-.8-.548-1.211-1.588-1.227-.163,0-.326,0-.489,0q-2.892,0-5.785,0c-.242,0-.554.055-.713-.07-1.05-.819-2.067-1.68-3.218-2.629H44.73q4.44,0,8.881,0a3.523,3.523,0,0,0,1.028-.126c.467-.156.815-.284.814-1.07a1.089,1.089,0,0,0-.747-1.185,3.527,3.527,0,0,0-1.04-.123c-5.052-.007-10.1,0-15.154-.011-.539,0-1.076-.109-1.615-.141-1.917-.112-3.836-.315-5.751-.289-2,.028-3.991.377-5.99.415-3.746.072-7.5.019-11.244.024a3.33,3.33,0,0,0-.882.09,1.112,1.112,0,0,0-.845,1.2c.008.822.754,1.076,1.223,1.16a2.4,2.4,0,0,0,.61.053c2.336.007,4.671,0,7.007.006.242,0,.487.025.8.043-.973.793-1.559,1.082-2.454,1.737a11.735,11.735,0,0,0-.973.9c-2.58,0-5.659.019-8.239.022-1.07,0-1.676.445-1.7,1.224-.023.8.6,1.279,1.721,1.286.951.006,1.9,0,2.852,0H16.4c-.3.469-.676.828-.887,1.153a11.726,11.726,0,0,0-.773,1.571c-1,0-3.98-.046-4.984-.01a1.24,1.24,0,1,0-.061,2.478,9.883,9.883,0,0,0,1.058.02c.939,0,1.877,0,2.883,0l-.755,2.705c-1.073,0-2.1-.028-3.133.009a1.233,1.233,0,0,0-1.277,1.217A1.183,1.183,0,0,0,9.54,37.108a6.471,6.471,0,0,0,.974.047c.666.006,1.332,0,1.967,0v2.7c-.841,0-1.622-.006-2.4,0-1,.01-1.6.466-1.617,1.223-.023.783.594,1.272,1.64,1.285.733.009,1.468-.017,2.2.015.206.009.543.129.585.269.233.764.393,1.55.6,2.419-1.2,0-2.31-.007-3.419,0-.994.008-1.593.477-1.6,1.236s.585,1.259,1.571,1.27c1.3.014,2.606-.007,3.91.014.248,0,.611.056.718.218.5.761.922,1.569,1.376,2.364-.092.048-.136.091-.18.091-.706.009-1.412.009-2.118.019-1.023.014-1.578.45-1.59,1.236s.547,1.259,1.555,1.27c1.3.015,2.608,0,3.912.011a1.327,1.327,0,0,1,.765.156c.954.783,1.872,1.611,2.887,2.5-.364.016-.647.04-.93.04-3.423,0-6.844,0-10.266,0-1,0-1.594.474-1.609,1.232s.583,1.251,1.565,1.277c.19,0,.38,0,.571,0,4.97,0,9.94-.009,14.91.011a8.743,8.743,0,0,1,2.088.244,20.674,20.674,0,0,0,9.192.274,20.44,20.44,0,0,0,7.224-3c.618.759,1.22,1.486,1.8,2.231a.678.678,0,0,1,.064.445,3.4,3.4,0,0,0,.26,2.5H44.664q-17.11,0-34.219,0A4.814,4.814,0,0,0,9.4,60.8a1.205,1.205,0,0,0,.019,2.348,5.227,5.227,0,0,0,1.05.077c12.222,0,25.105,0,37.326.012,0,0,.533.135,1.142.252a5.345,5.345,0,0,0,1.634-.092s.229.279.532.621c2.449,2.764,4.893,5.532,7.379,8.263.557.611,1.317,1.355,1.9,1.954a3.052,3.052,0,0,1,.254.294v4.812a1.729,1.729,0,0,1-1.726,1.727H5.437a1.729,1.729,0,0,1-1.727-1.727V5.435A1.729,1.729,0,0,1,5.437,3.708H58.906a1.729,1.729,0,0,1,1.726,1.727V59.258c-.974-.866-1.885-1.655-2.754-2.483A.959.959,0,0,1,57.661,56c.48-2.072-2.531-5.322-5.148-4.288m-4.242.317,1.853,1.5L47.588,56l-1.481-1.811,2.164-2.163M32.846,56.454a17.772,17.772,0,1,1,17.722-17.8,17.739,17.739,0,0,1-17.722,17.8m15.733,2.232c1.392-1.4,2.771-2.815,4.2-4.173a3.88,3.88,0,0,1,.687-.587c.553-.321,1.844.715,1.844,1.3a1.431,1.431,0,0,1-.518,1.127q-2.135,2.169-4.3,4.306c-.649.639-1.109.559-1.91-.263-.647-.665-.657-1.058-.006-1.712m17.354,11.28a2.9,2.9,0,0,1-2.669,2.046,2.708,2.708,0,0,1-2.385-.791c-2.754-3.026-5.474-6.082-8.213-9.136l3.5-3.481c.491.434,1.032.911,1.571,1.391q1.448,1.29,2.9,2.577V62.6h.035q2.21,1.967,4.407,3.948a3.05,3.05,0,0,1,.859,3.414" transform="translate(0 0)" fill="#fff"/>
    <path id="Path_1189" data-name="Path 1189" d="M56.8,11.455c-1.359-.007-2.718,0-4.077,0h0c-1-.006-10.07,0-11.074,0q-10.591,0-21.182,0a2.921,2.921,0,0,0-3.14,3.077c-.011.57-.007,1.14,0,1.711a2.911,2.911,0,0,0,3.186,3.178q9.043,0,18.086,0,9.125,0,18.25,0a2.8,2.8,0,0,0,2.984-2.935c.013-.678.012-1.358,0-2.036A2.844,2.844,0,0,0,56.8,11.455m.574,4.409c.014,1.118,0,1.119-1.13,1.119q-17.272,0-34.544,0c-2.118,0-1.85.306-1.866-1.846-.009-1.216,0-1.217,1.2-1.217,7.379,0,21.832,0,30.1,0,1.435.007,2.87,0,4.3,0,2.291.014,1.908-.242,1.936,1.947" transform="translate(-6.612 -4.372)" fill="#fff"/>
    <path id="Path_1190" data-name="Path 1190" d="M41.215,119.027c-.467-.006-.949-.012-1.429.022a1.519,1.519,0,0,0-1.5,1.586,1.487,1.487,0,0,0,1.458,1.5,5.438,5.438,0,0,0,.627.021h7.673q1.885,0,3.77,0l.393,0,.359,0a8.528,8.528,0,0,0,.987-.046,1.439,1.439,0,0,0,1.366-1.493,1.475,1.475,0,0,0-1.3-1.543,3.022,3.022,0,0,0-.7-.045l-.173,0h-5.8c-1.908,0-3.814.019-5.723,0" transform="translate(-14.614 -45.439)" fill="#fff"/>
    <path id="Path_1191" data-name="Path 1191" d="M13.275,107.7l.009.054a1.44,1.44,0,0,0,1.167,1.442,1.645,1.645,0,0,0,.57.08c.062,0,.125,0,.188,0H27.135c.193,0,.387,0,.579,0h2.957q3.394,0,6.784,0a2.234,2.234,0,0,0,1.649-.545,1.41,1.41,0,0,0,.391-1.041c-.01-.572-.292-1.533-2.073-1.544H35.241q-9.447,0-18.88,0c-.222,0-.443,0-.666,0H15.58l-.378,0a1.932,1.932,0,0,0-.781.087,1.459,1.459,0,0,0-1.133,1.421Z" transform="translate(-5.068 -40.52)" fill="#fff"/>
    <path id="Path_1192" data-name="Path 1192" d="M54,50.058a3.525,3.525,0,0,0-3.749.9c-2.143,2.117-4.265,4.256-6.4,6.384-.206.206-.425.4-.708.666-.97-.984-1.879-1.947-2.833-2.866a3.644,3.644,0,0,0-5.254-.062,3.719,3.719,0,0,0,.069,5.264q2.682,2.73,5.412,5.411a3.626,3.626,0,0,0,5.309,0c.81-.787,5.847-5.827,7.771-7.761.668-.653,1.332-1.311,1.966-2A3.669,3.669,0,0,0,54,50.058m-.47,4.533c-.623.64-1.263,1.264-1.892,1.9-2.067,2.064-6.65,6.661-7.39,7.382-.777.757-1.342.76-2.1,0q-2.573-2.55-5.126-5.122a1.308,1.308,0,0,1-.182-1.936,1.272,1.272,0,0,1,1.866.21c1.081,1.068,2.151,2.147,3.228,3.22,1.018,1.016,1.505,1.02,2.519.008q3.688-3.682,7.371-7.367c.664-.662,1.322-.735,1.857-.24a1.3,1.3,0,0,1-.148,1.941" transform="translate(-12.98 -19.035)" fill="#fff"/>
  </g>
</svg>
