<svg xmlns="http://www.w3.org/2000/svg" width="43.066" height="35" viewBox="0 0 43.066 35">
  <path id="Path_446" data-name="Path 446" d="M-2012.244,4964.18c.015.379.024.759.024,1.143,0,11.676-8.887,25.139-25.141,25.139a25.009,25.009,0,0,1-13.542-3.969,17.948,17.948,0,0,0,2.108.122,17.728,17.728,0,0,0,10.973-3.783,8.843,8.843,0,0,1-8.254-6.133,9.084,9.084,0,0,0,1.662.158,8.845,8.845,0,0,0,2.328-.312,8.841,8.841,0,0,1-7.089-8.663v-.113a8.739,8.739,0,0,0,4,1.1,8.823,8.823,0,0,1-3.93-7.351,8.807,8.807,0,0,1,1.193-4.443,25.093,25.093,0,0,0,18.214,9.232,8.9,8.9,0,0,1-.229-2.014,8.837,8.837,0,0,1,8.836-8.835,8.818,8.818,0,0,1,6.449,2.79,17.765,17.765,0,0,0,5.614-2.144,8.847,8.847,0,0,1-3.888,4.886,17.545,17.545,0,0,0,5.076-1.391A17.946,17.946,0,0,1-2012.244,4964.18Z" transform="translate(2050.902 -4955.462)" fill="#c6ff6e"/>
</svg>
