<svg id="Voice-over_Studio_Work" data-name="Voice-over &amp; Studio Work" xmlns="http://www.w3.org/2000/svg" xmlns:xlink="http://www.w3.org/1999/xlink" width="49.645" height="85.035" viewBox="0 0 49.645 85.035">
  <defs>
    <clipPath id="clip-path">
      <rect id="Rectangle_142" data-name="Rectangle 142" width="49.644" height="85.035" fill="none"/>
    </clipPath>
  </defs>
  <g id="Group_446" data-name="Group 446" clip-path="url(#clip-path)">
    <path id="Path_1263" data-name="Path 1263" d="M38.088,45.792c8.886-6.067,12.678-14.256,11.271-24.341C47.93,11.2,41.994,4.316,31.716.989A23.759,23.759,0,0,0,28.5.275c-.5-.087-1-.174-1.5-.275H22.549l-.554.1c-.429.083-.858.166-1.291.234C7.942,2.38-1.454,14.89.186,27.657A24.547,24.547,0,0,0,11.743,45.865a1.856,1.856,0,0,1,.964,1.7A12.073,12.073,0,0,0,21.38,59.24c.24.075.48.148.723.222l.7.215,0,2.914c0,2.458,0,4.887.013,7.316.007.982-.723,1.07-1.116,1.118a19.413,19.413,0,0,0-8.6,3.022c-3.5,2.312-5.233,5-5.466,8.461a2.421,2.421,0,0,0,.521,1.882,2.4,2.4,0,0,0,1.828.643q14.86,0,29.719,0a2.1,2.1,0,0,0,2.362-2.515,10.319,10.319,0,0,0-4.456-7.759,19.274,19.274,0,0,0-9.482-3.733c-.052-.007-.108-.009-.164-.011A.956.956,0,0,1,26.9,70.008q.009-3.7,0-7.391v-2.9l.481-.188a3.3,3.3,0,0,1,.383-.14A12.027,12.027,0,0,0,37,47.674a2.091,2.091,0,0,1,1.089-1.882m-4.35,31.326a8.756,8.756,0,0,1,3.368,3.07l.453.717H11.819l.726-.784c.2-.217.381-.424.553-.619a10.888,10.888,0,0,1,1.056-1.1,14.406,14.406,0,0,1,7.358-3.179,18.736,18.736,0,0,1,12.225,1.893m-.886-31.605H31.618c-.541,0-1.07,0-1.6,0a2.073,2.073,0,0,0-2.167,2.024,2.045,2.045,0,0,0,2.169,2.083c.415.01.83.007,1.248,0l1.115,0-.067.527c-.325,2.517-3.605,5.208-6.624,5.433q-.331.025-.659.025a7.875,7.875,0,0,1-7.7-5.385l-.175-.6h1.213c.415,0,.819,0,1.222,0a2.063,2.063,0,0,0,2.262-2.074,2.1,2.1,0,0,0-2.321-2.035c-.492,0-.984,0-1.49,0H16.865V39.524l1.221,0c.541,0,1.073,0,1.6,0A2.077,2.077,0,0,0,21.86,37.5a2.039,2.039,0,0,0-2.168-2.082c-.528-.011-1.055-.007-1.6,0l-1.231,0V29.426H18c.49,0,.982,0,1.471,0a2.144,2.144,0,0,0,2.388-2.067c.007-1.235-.921-2.056-2.365-2.094-.373-.009-.746-.006-1.126,0l-1.121,0,.129-.57c.664-2.941,4-5.354,7.43-5.379h.054a8.086,8.086,0,0,1,7.094,4.29,5.485,5.485,0,0,1,.384,1.085l.137.576-1.159,0c-.4,0-.783-.007-1.172.007a2.105,2.105,0,0,0-2.292,2.085,2.139,2.139,0,0,0,2.38,2.074c.474,0,.947,0,1.436,0h1.169v5.986l-1.214,0c-.539,0-1.066-.006-1.6.006a2.044,2.044,0,0,0-2.176,2.074,2.083,2.083,0,0,0,2.241,2.033c.511,0,1.022,0,1.549,0h1.209ZM26.758,15.3a12.142,12.142,0,0,0-13.74,9.287,14.875,14.875,0,0,0-.317,3.22c-.028,2.822-.023,5.695-.019,8.472l0,5.048-.738-.525a20.09,20.09,0,0,1-7.3-20.416,20.695,20.695,0,0,1,40.322-.505c2.2,9.305-2.191,17.371-7.2,20.928l-.738.524V39.477c0-1.337,0-2.676.006-4.015.011-2.946.022-5.993-.069-8.981A12.161,12.161,0,0,0,26.758,15.3" transform="translate(0)" fill="#022334"/>
  </g>
</svg>
