<svg id="Phone_icon" data-name="Phone icon" xmlns="http://www.w3.org/2000/svg" xmlns:xlink="http://www.w3.org/1999/xlink" width="13.332" height="13.4" viewBox="0 0 13.332 13.4">
  <defs>
    <clipPath id="clip-path">
      <rect id="Rectangle_62" data-name="Rectangle 62" width="13.332" height="13.4" fill="#022334"/>
    </clipPath>
  </defs>
  <g id="Group_198" data-name="Group 198" transform="translate(0)">
    <g id="Group_197" data-name="Group 197" transform="translate(0)" clip-path="url(#clip-path)">
      <path id="Path_321" data-name="Path 321" d="M-3571.195,2417.18a1.313,1.313,0,0,0-.951-.436,1.357,1.357,0,0,0-.963.434l-.889.886c-.073-.039-.146-.076-.217-.113-.1-.051-.2-.1-.279-.149a9.672,9.672,0,0,1-2.316-2.111,5.708,5.708,0,0,1-.76-1.2c.231-.211.445-.431.653-.642.079-.079.158-.16.237-.239a1.291,1.291,0,0,0,0-1.948l-.768-.768c-.087-.087-.177-.177-.262-.267-.169-.175-.346-.355-.529-.524a1.333,1.333,0,0,0-.943-.414,1.378,1.378,0,0,0-.957.414l-.006.006-.957.965a2.059,2.059,0,0,0-.611,1.309,4.94,4.94,0,0,0,.36,2.088,12.132,12.132,0,0,0,2.153,3.592,13.246,13.246,0,0,0,4.411,3.453,6.875,6.875,0,0,0,2.477.732c.059,0,.121.005.177.005a2.12,2.12,0,0,0,1.624-.7c0-.005.009-.008.011-.014a6.483,6.483,0,0,1,.493-.51c.121-.115.245-.236.366-.363a1.406,1.406,0,0,0,.425-.974,1.352,1.352,0,0,0-.434-.966Zm1.008,2.964s0,0,0,0c-.109.118-.222.225-.343.344a7.326,7.326,0,0,0-.543.563,1.357,1.357,0,0,1-1.058.448c-.042,0-.087,0-.129,0a6.106,6.106,0,0,1-2.2-.659,12.507,12.507,0,0,1-4.154-3.253,11.432,11.432,0,0,1-2.027-3.375,4.025,4.025,0,0,1-.315-1.762,1.292,1.292,0,0,1,.389-.836l.96-.96a.639.639,0,0,1,.428-.2.6.6,0,0,1,.411.2l.009.008c.172.161.335.327.507.5l.267.273.768.768a.537.537,0,0,1,0,.873c-.082.082-.16.163-.242.242-.237.242-.462.467-.707.687a.07.07,0,0,0-.014.014.574.574,0,0,0-.146.639l.008.025a6.175,6.175,0,0,0,.909,1.483l0,0a10.332,10.332,0,0,0,2.5,2.274,3.807,3.807,0,0,0,.346.188c.1.051.2.1.279.149l.034.02a.609.609,0,0,0,.279.07.6.6,0,0,0,.428-.194l.963-.962a.636.636,0,0,1,.425-.211.573.573,0,0,1,.405.206l.005.006,1.551,1.551a.556.556,0,0,1,0,.881Zm0,0" transform="translate(3581.734 -2408.889)" fill="#022334"/>
      <path id="Path_322" data-name="Path 322" d="M-3385.732,2457.261a3.572,3.572,0,0,1,1.942,1.008,3.586,3.586,0,0,1,1.007,1.942.378.378,0,0,0,.375.315.486.486,0,0,0,.065-.006.38.38,0,0,0,.312-.439,4.34,4.34,0,0,0-1.219-2.35,4.34,4.34,0,0,0-2.35-1.219.382.382,0,0,0-.439.31.376.376,0,0,0,.307.439Zm0,0" transform="translate(3392.938 -2454.058)" fill="#022334"/>
      <path id="Path_323" data-name="Path 323" d="M-3376.663,2393.647a7.143,7.143,0,0,0-2.007-3.87,7.141,7.141,0,0,0-3.87-2.007.379.379,0,0,0-.436.31.382.382,0,0,0,.312.439,6.393,6.393,0,0,1,3.459,1.793,6.38,6.38,0,0,1,1.793,3.459.377.377,0,0,0,.374.315.486.486,0,0,0,.065-.006.373.373,0,0,0,.31-.433Zm0,0" transform="translate(3389.983 -2387.734)" fill="#022334"/>
    </g>
  </g>
</svg>
