<svg xmlns="http://www.w3.org/2000/svg" width="521.337" height="521.337" viewBox="0 0 521.337 521.337">
  <g id="Globe" transform="translate(-1298.331 184.459)">
    <circle id="Ellipse_19" data-name="Ellipse 19" cx="184.32" cy="184.32" r="184.32" transform="translate(1298.331 76.21) rotate(-45)" fill="#3fc09a"/>
    <path id="Path_1110" data-name="Path 1110" d="M1559-108.11a183.828,183.828,0,0,1,136.4,60.348l-1.833-.277-8.193,1.4-7.909,11.286L1666.1-33.563l-1.63,9.744,4.794,1.162-1.383,6.273-11.261-2.272-10.3,2.272-2.159,5.732,1.776,12.166,6.036,2.84,10.156-.049,6.855-.617,2.1-5.51,10.746-13.994,7.04,1.461,6.939-6.327,1.3,4.915,17.1,11.638-2.11,2.79-7.715-.381,2.983,4.2,4.732,1.061,5.555-2.321-.083-6.758,2.44-1.246-1.964-2.124-11.406-6.373-3.015-8.535h9.478l2.029,2.043a183.759,183.759,0,0,1,17.97,37.353l-7.341.694v6.907H1722.2l-3.826-2.755-19.352-4.964V2.809l-24.578,1.94-7.617,4.138h-9.772l-4.8-.532-11.834,6.67V27.464l-24.187,17.561,2.013,7.535h4.93l-1.29,7.138-3.445,1.3-.2,18.675,20.888,24.021h9.146l.527-1.5H1665.2l4.7-4.383h9.295l5.081,5.112,13.846,1.494-1.828,18.478,15.38,27.309-8.1,15.587.529,7.324,6.365,6.372v1.758A184.1,184.1,0,0,1,1559,260.53a185.161,185.161,0,0,1-37.859-3.9l4.023-3.949.723-3.918-6-1.726.343-3.668,8.574-1.31,13.023-6.263,4.367-8.063,13.649-17.614-3.116-13.744,4.172-7.339,12.558.4,8.476-6.708,2.735-26.542L1594,144.177l1.683-7.679-8.574-2.792-5.656-9.313-19.252-.2-15.284-5.829-.722-11-5.128-8.966-13.795-.2-8-12.645-7.1-3.522-.38,3.868-12.891.764-4.735-6.608-13.464-2.741-11.115,12.87-17.438-2.94-1.3-19.822-12.741-2.225,5.125-9.693-1.485-5.6-16.715,11.287L1414.5,59.884l-3.741-8.3,2.257-8.532,5.837-10.808,13.367-6.806h25.817l-.084,7.916,9.282,4.386-.709-13.549,6.658-6.805,13.5-8.932.957-6.274,13.468-14.126,14.275-7.968-1.238-1.061,9.675-9.166,3.546.928,1.63,2.061,3.678-4.1.922-.434-4.036-.581-4.11-1.345v-3.953l2.2-1.792h4.745l2.207.966,1.916,3.866,2.291-.385v-.344l.675.245,6.71-1.012.955-3.336,3.839.966v3.617l-3.557,2.472.529,3.9,12.13,3.763.048.137,2.77-.235.2-5.311-9.626-4.384-.528-2.555,8-2.756.33-7.719-8.375-5.112-.528-12.982-11.456,5.644h-4.168l1.054-9.894-15.565-3.7-6.473,4.915v15.006l-11.591,3.669-4.648,9.8-5.079.812v-12.5l-10.878-1.545-5.459-3.567-2.207-8.1,19.5-11.487L1505-79.448l.956,6.474,5.312-.248.379-3.284,5.569-.767.087-1.162-2.392-1.013-.528-3.419,6.855-.582,4.12-4.348.233-.283h.049l1.252-1.31,14.375-1.828,6.365,5.448-16.67,8.931,21.169,5.062,2.785-7.138h9.247l3.3-6.225-6.561-1.691v-7.855l-20.557-9.167-14.177,1.632-8,4.25.528,10.227-8.388-1.25-1.291-5.692,8.046-7.339-4.368-.218a184.615,184.615,0,0,1,46.3-5.867Zm-59.189,358.931.724-9-7.664-10.275,3.114-17.415-4.551-1.26V175.092s-12.742-9.695-13.464-9.695-6.7-1.631-6.7-1.631l-1.3-7.149L1453.39,135.73l1.682-7.52.526-12.265,11.455-8.052-1.63-13.748-16.764-1.26L1435.57,77.83l-9.248-2.556-6.031-1.1.722-5.461L1413.4,67.6v3.088l-19.121-4.719L1386.562,54.1l3.166-5.742-10.084-14.779q-.708,2.987-1.321,6.01l2.352,3.654-.907,5.115-2.976-.14a184.6,184.6,0,0,0,123.019,202.6ZM1476.5-88.647c.121,1.655.184,3.126.184,3.126l13.465-.386,1.436-3.616,9.3-.581,1.092-5.5-5.457-.928.3-.817a183.353,183.353,0,0,0-20.319,8.7Zm-28.664,41.721,3.507,7.286,5.6-1.79,1.766-6.991-5.173-1.261-5.705,2.756Zm30.43,16.5h-1.915v-2.6h-8.584l-6.268,2.6-1.252,3.186,4.9,1.348h13.124v-4.534Zm5.983,6.324h-7.37v7.274l4.109-.766,3.261-2.122V-24.1Zm-3.692-1.79,4.516-1.114-4.516-4.1v5.213Zm2.061,10.569-5.027.718-.674,1.642-3.3.284-1.1,4.783h6.992l3.114-3.138v-4.289Zm-17.34-8.779-5.031,5.5-.81,5.5,3.828,2.075,9.247-13.068Zm29.606,7.274-8.278-2.457h-.577v3.962l1.912,2.794h6.943v-4.3Zm-6.414-5.878,2.684,2.223,2.673-2.223-3.348-2.076Z" fill="#072333" fill-rule="evenodd"/>
  </g>
</svg>
