<svg id="Services_for_Blind_and_Partially_Sighted" data-name="Services for Blind and Partially Sighted" xmlns="http://www.w3.org/2000/svg" xmlns:xlink="http://www.w3.org/1999/xlink" width="83.741" height="76.7" viewBox="0 0 83.741 76.7">
  <defs>
    <clipPath id="clip-path">
      <rect id="Rectangle_140" data-name="Rectangle 140" width="83.741" height="76.7" fill="#022334"/>
    </clipPath>
  </defs>
  <g id="Group_443" data-name="Group 443" clip-path="url(#clip-path)">
    <path id="Path_1246" data-name="Path 1246" d="M69.627,60.531a6.544,6.544,0,0,1,.979.654q5.971,5.944,11.919,11.91a7.359,7.359,0,0,1,.657.7,1.778,1.778,0,0,1-2.544,2.466,7.789,7.789,0,0,1-.627-.6Q43.933,39.578,7.858,3.488a5.919,5.919,0,0,1-.651-.707A1.808,1.808,0,0,1,7.346.563,1.832,1.832,0,0,1,9.633.279a6.838,6.838,0,0,1,.926.836q11.3,11.3,22.6,22.6c.332.332.585.67,1.214.492,10.107-2.851,19.837-1.595,29.271,2.761A73.9,73.9,0,0,1,86.468,43.857c.929.986.872,1.868-.191,3.029a75.119,75.119,0,0,1-15.07,12.644c-.43.275-.863.546-1.58,1M82.755,45.372C79.112,41.036,68.291,32.9,64.322,31.5c3.115,7.438,2.265,14.447-2.23,21.122,1.613,1.62,3.2,3.241,4.837,4.82.135.13.6.073.817-.057A77.15,77.15,0,0,0,82.755,45.372M59.447,50.011c4.519-5.793,4.063-15.712-.9-21.041a2.745,2.745,0,0,0-1.048-.616,35.217,35.217,0,0,0-10.113-2.1,33.264,33.264,0,0,0-10.683,1.056c1.514,1.5,2.936,2.877,4.32,4.294a1.008,1.008,0,0,0,1.309.3,7.766,7.766,0,0,1,4.536-.379,8.651,8.651,0,0,1,6.56,11.588,1.089,1.089,0,0,0,.072.911c1.94,2,3.921,3.961,5.942,5.982" transform="translate(-3.382 0)" fill="#022334"/>
    <path id="Path_1247" data-name="Path 1247" d="M27.31,56.87a18.458,18.458,0,0,0-2.8,9.958,17.462,17.462,0,0,0,13.527,16.5,17.806,17.806,0,0,0,12.379-1.756,1.116,1.116,0,0,1,1.614.281,21.389,21.389,0,0,0,1.838,1.589A20.885,20.885,0,0,1,22.775,57.824c-3.418.957-15.248,9.842-18.491,13.956,2.271,2.039,4.486,4.168,6.849,6.12a59.571,59.571,0,0,0,18.54,10.694,36.617,36.617,0,0,0,26.369-.751c1.495-.6,1.494-.6,2.622.592.478.506.958,1.01,1.657,1.747-2.882.956-5.533,1.983-8.263,2.717-10.471,2.816-20.432,1.092-30-3.631A72.728,72.728,0,0,1,.952,73.253c-1.3-1.394-1.264-2.129.07-3.52A77.459,77.459,0,0,1,22.268,53.88c.964-.484,1.594-.533,2.34.366a32.845,32.845,0,0,0,2.7,2.625" transform="translate(0 -26.273)" fill="#022334"/>
    <path id="Path_1248" data-name="Path 1248" d="M76.557,84.355a8.679,8.679,0,0,1-11-11.007l11,11.007" transform="translate(-31.944 -35.994)" fill="#022334"/>
  </g>
</svg>
