<svg id="Twitter" xmlns="http://www.w3.org/2000/svg" width="30.265" height="30.266" viewBox="0 0 30.265 30.266">
  <path id="Path_450" data-name="Path 450" d="M-325.961,4322.61a15.132,15.132,0,0,0-15.133,15.133,15.132,15.132,0,0,0,15.133,15.133,15.132,15.132,0,0,0,15.133-15.133A15.132,15.132,0,0,0-325.961,4322.61Zm7.811,11.823c.006.157.01.313.01.473a10.328,10.328,0,0,1-10.4,10.4,10.347,10.347,0,0,1-5.6-1.642,7.434,7.434,0,0,0,.872.05,7.332,7.332,0,0,0,4.539-1.565,3.659,3.659,0,0,1-3.414-2.537,3.79,3.79,0,0,0,.687.065,3.642,3.642,0,0,0,.963-.129,3.657,3.657,0,0,1-2.932-3.583v-.047a3.6,3.6,0,0,0,1.656.457,3.65,3.65,0,0,1-1.626-3.041,3.64,3.64,0,0,1,.494-1.837,10.381,10.381,0,0,0,7.534,3.819,3.68,3.68,0,0,1-.095-.833,3.655,3.655,0,0,1,3.655-3.655,3.649,3.649,0,0,1,2.668,1.154,7.356,7.356,0,0,0,2.322-.887,3.661,3.661,0,0,1-1.608,2.021,7.264,7.264,0,0,0,2.1-.576A7.415,7.415,0,0,1-318.15,4334.433Z" transform="translate(341.094 -4322.61)" fill="#022334"/>
</svg>
