<svg id="Icon" xmlns="http://www.w3.org/2000/svg" xmlns:xlink="http://www.w3.org/1999/xlink" width="135.407" height="113.325" viewBox="0 0 135.407 113.325">
  <defs>
    <clipPath id="clip-path">
      <rect id="Rectangle_133" data-name="Rectangle 133" width="135.407" height="113.325" fill="#022334"/>
    </clipPath>
  </defs>
  <g id="Group_426" data-name="Group 426" clip-path="url(#clip-path)">
    <path id="Path_1213" data-name="Path 1213" d="M120.652,53.118a9.1,9.1,0,0,0-6.179-15.434l-.818-.03L120.081,53.7ZM114.46,38.039A8.742,8.742,0,0,1,120.4,52.87l-.19.2-6.019-15.036Z" transform="translate(-20.751 -6.875)" fill="#022334"/>
    <path id="Path_1214" data-name="Path 1214" d="M120.787,53.282a9.452,9.452,0,0,0-6.42-16.036L113,37.195l6.831,17.064ZM114.354,37.6a9.1,9.1,0,0,1,6.179,15.434l-.571.587L113.536,37.57Z" transform="translate(-20.632 -6.791)" fill="#022334"/>
    <path id="Path_1215" data-name="Path 1215" d="M155.931,33.251a2.956,2.956,0,0,0-3.79-3.948L139.468,34.25a2.961,2.961,0,1,0,2.154,5.517L154.3,34.819a2.942,2.942,0,0,0,1.636-1.569" transform="translate(-25.119 -5.312)" fill="#022334"/>
    <path id="Path_1216" data-name="Path 1216" d="M134.433,25.653a3.447,3.447,0,0,0,.96-.589l10.378-9.59a2.95,2.95,0,0,0-1.9-5.109,2.92,2.92,0,0,0-2.113.786l-10.4,9.61A2.947,2.947,0,0,0,131.2,24.9a2.984,2.984,0,0,0,3.236.75" transform="translate(-23.813 -1.892)" fill="#022334"/>
    <path id="Path_1217" data-name="Path 1217" d="M160.345,50.474a2.947,2.947,0,0,0-2.1-.884l-14.155-.022h-.016a2.954,2.954,0,0,0-2.946,2.938,2.944,2.944,0,0,0,2.939,2.958l14.154.025a2.911,2.911,0,0,0,1.079-.217,2.98,2.98,0,0,0,1.872-2.748,2.859,2.859,0,0,0-.83-2.05" transform="translate(-25.767 -9.05)" fill="#022334"/>
    <path id="Path_1218" data-name="Path 1218" d="M101.129,52.358l.58-.4A14.653,14.653,0,0,0,91.129,25.442l-.7.112L80.844,1.611A2.515,2.515,0,0,0,78.7.015,2.611,2.611,0,0,0,76.26,1.176c-16.882,25.483-29.5,32.936-38.61,36.583L11.941,48.051A19.015,19.015,0,0,0,1.367,72.744L4.111,79.6A19.017,19.017,0,0,0,28.8,90.174L41.7,85.012l26.8,27.524a2.6,2.6,0,0,0,2.818.607,2.859,2.859,0,0,0,.875-.566,2.588,2.588,0,0,0,.031-3.66L46.9,82.928l7.587-3.037c13.2-5.283,25.885-7.045,37.713-5.232,8.93,1.368,14.173,4.4,14.741,4.742a2.568,2.568,0,0,0,3.76-3.128Zm-7.394-21.9a9.451,9.451,0,0,1,6.42,16.036l-.952.978L92.371,30.4ZM26.878,85.362a13.706,13.706,0,0,1-5,.989h-.117a13.917,13.917,0,0,1-12.84-8.679L6.18,70.817a13.827,13.827,0,0,1,7.687-17.955l12.109-4.847,13.012,32.5Zm74.831-13.777c-10.271-3.27-27.135-5.317-49.147,3.5L43.774,78.6,30.764,46.1l8.787-3.518c8.974-3.593,21.331-10.608,37.36-33.162l.943-1.326L103.5,72.155Z" transform="translate(0 0)" fill="#022334"/>
  </g>
</svg>
