<svg xmlns="http://www.w3.org/2000/svg" xmlns:xlink="http://www.w3.org/1999/xlink" width="114.178" height="122.288" viewBox="0 0 114.178 122.288">
  <defs>
    <clipPath id="clip-path">
      <rect id="Rectangle_148" data-name="Rectangle 148" width="114.178" height="122.288" transform="translate(0 0)" fill="#022334"/>
    </clipPath>
  </defs>
  <g id="Group_448" data-name="Group 448" transform="translate(0 0)" clip-path="url(#clip-path)">
    <path id="Path_1265" data-name="Path 1265" d="M48.218,41.267a2.77,2.77,0,1,0,2.8,2.772,2.737,2.737,0,0,0-2.8-2.772" fill="#022334"/>
    <path id="Path_1266" data-name="Path 1266" d="M46.938,87.958a2.77,2.77,0,1,0-2.724-2.848,2.742,2.742,0,0,0,2.724,2.848" fill="#022334"/>
    <path id="Path_1267" data-name="Path 1267" d="M114.178,35.87a4.178,4.178,0,0,0-2.332-4.039C95.053,21.934,77.36,11.452,59.255.678a3.792,3.792,0,0,0-4.334.005C39.019,10.212,21.7,20.545,1.984,32.273A3.635,3.635,0,0,0,0,35.741q.048,34.541.03,69.08v14.1c0,2.581.8,3.368,3.412,3.368h.05c9,0,31.756-.064,53.766-.125,21.91-.061,44.566-.124,53.485-.124,2.636,0,3.4-.756,3.4-3.369v-15.4c0-22.089,0-44.93.038-67.4M29.031,50.581a3.845,3.845,0,0,1-1.51,2.739,1.527,1.527,0,0,1-.277-1.3,2.621,2.621,0,0,1,1.787-1.435m46.236,3.093a5.321,5.321,0,0,1-3.741,1.742,5.617,5.617,0,0,1-4.07-1.469,5.9,5.9,0,0,1-1.791-4.221c-.016-.724-.014-1.449-.012-2.174,0-1.364.007-2.774-.116-4.161a19.54,19.54,0,0,0-3.06-8.695c-.407-.656-.8-1.32-1.193-1.984l-.051-.087c.242.1.485.192.727.288,1.168.46,2.376.935,3.493,1.511a23.8,23.8,0,0,1,8.1,6.152,15.149,15.149,0,0,1,3.211,8.8,5.877,5.877,0,0,1-1.5,4.3m-48.9,62.49c-4.666-14.9-2.79-29.08,5.578-42.158.629-.984,1.206-2.016,1.79-3.075a10.094,10.094,0,0,1,6.692-5.063l.006,1.083c.009,1.277.016,2.484-.021,3.7a2.837,2.837,0,0,0,1.747,2.859c1.113.54,2.217,1.1,3.321,1.65,1,.5,1.993,1,2.995,1.49a9.271,9.271,0,0,1,5.349,7.205l.108.648a16.889,16.889,0,0,0,.5,2.376,8.735,8.735,0,0,0,1.2,2.458c.994,1.388,1.176,2.6.555,3.706-1.858,3.316-4.115,5.1-7.1,5.607a8.614,8.614,0,0,1-7.225-2.021c-.168-.138-.324-.292-.479-.444l-.135-.132A3.731,3.731,0,0,0,38.7,94.793a2.278,2.278,0,0,0-1.638.786c-.512.547-1.48,2.04.606,4.085a13.846,13.846,0,0,0,19.242.629c.028-.023.054-.045.084-.068,1.243,2.382,3.456,3.385,5.6,4.357.482.219.968.439,1.443.675,4.424,2.2,7.25,5.987,8.4,11.259a3,3,0,0,1,.05.492H63.325q-17.9,0-35.8.026c-.739-.042-.924-.137-1.154-.869M61.212,97.336c-.256-.363-.518-.738-.821-1.088a2.4,2.4,0,0,1,.18-.457,8.807,8.807,0,0,0-.747-9.422,8.331,8.331,0,0,1-.939-3.13l-.018-.11a14.451,14.451,0,0,0-8.41-11.175c-1.237-.592-2.865-1.384-4.474-2.257a1.128,1.128,0,0,1-.488-.543c-.054-1.284-.047-2.564-.04-3.919l0-1.012q.933-.091,1.858-.187c1.88-.192,3.654-.372,5.47-.508a3.109,3.109,0,0,0,2.821-2c.263-.585.556-1.157.849-1.729.281-.549.562-1.1.819-1.657A2.474,2.474,0,0,0,56.2,54.688a2.576,2.576,0,0,0-2.17-.139,2.2,2.2,0,0,0-1.257,1.394c-.742,2.315-2.222,2.837-4.529,2.957-4.224.219-8.5.656-12.639,1.078l-2.579.261a1.315,1.315,0,0,1-1.524-.8,15.939,15.939,0,0,0-.965-1.507c-.065-.094-.131-.188-.195-.283,3.5-3.538,4.128-5.2,3.6-9.547q.636-.323,1.274-.654c1.223-.629,2.486-1.28,3.76-1.852a4.722,4.722,0,0,0,2.726-2.955c.323-.954.722-1.909,1.109-2.833.269-.645.54-1.291.788-1.944A6.682,6.682,0,0,1,48.16,33.62c.629-.191,1.257-.39,1.884-.588,1.266-.4,2.574-.815,3.872-1.159a1.125,1.125,0,0,1,.81.259c3.377,4.511,6.435,9.562,5.962,15.917a14.336,14.336,0,0,0,.746,5.756,10.4,10.4,0,0,0,11.717,6.551A10.682,10.682,0,0,0,81.82,49.88c0-.16,0-.317,0-.473A73.206,73.206,0,0,1,94.789,81.521a75.436,75.436,0,0,1-3.273,35.462H77.7c-.051-.242-.1-.483-.15-.724-.159-.779-.324-1.586-.552-2.365A21.037,21.037,0,0,0,63.451,99.421a4.912,4.912,0,0,1-2.239-2.085m36.343,17.379c.552-2.058,1.123-4.187,1.512-6.322C103.842,82.1,97.6,59.027,80.5,39.809A40.063,40.063,0,0,0,61.99,27.559a18.448,18.448,0,0,0-12.418.223l-.149.072c-6.152,1.25-10.1,5.008-11.736,11.173a4.246,4.246,0,0,1-2.715,2.9c-2.177,1-4.344,2.107-6.439,3.178q-1.187.606-2.374,1.207a6.556,6.556,0,0,0-2.7,10.192c.539.819,1.086,1.633,1.633,2.448.788,1.173,1.576,2.346,2.343,3.533l.2.313c.838,1.314,1.768,2.774,3.6,2.774h.044a83.8,83.8,0,0,0-8.545,15.033,52.673,52.673,0,0,0-1.618,35.727l.246.831H5.059V104.755q0-33.688-.026-67.376a1.482,1.482,0,0,1,.89-1.53C23.95,25.129,40.447,15.285,56.358,5.756a1.222,1.222,0,0,1,1.528.031Q68.1,11.853,78.311,17.91q15.1,8.958,30.191,17.93a1.4,1.4,0,0,1,.574.892q.054,38.328.03,76.656v3.484c0,.021,0,.042,0,.063H96.967c.191-.741.39-1.48.588-2.22" fill="#022334"/>
    <path id="Path_1268" data-name="Path 1268" d="M69.011,88.175l2.144,2.133a2.607,2.607,0,0,0,4.181.005L77.362,88.3c3.3-3.276,6.706-6.664,10.015-10.039a8.526,8.526,0,1,0-12.04-12.076c-.54.516-1.023,1.064-1.584,1.7-.162.183-.329.372-.5.568-.177-.2-.345-.385-.506-.568-.562-.632-1.047-1.179-1.583-1.7A8.526,8.526,0,1,0,59.113,78.256c3.274,3.332,6.641,6.68,9.9,9.919M61.688,72.111a3.275,3.275,0,0,1,1.044-2.343,3.321,3.321,0,0,1,2.335-.995,3.917,3.917,0,0,1,2.712,1.213c.62.6,1.23,1.217,1.84,1.831.485.488.971.977,1.462,1.46,1.537,1.514,2.8,1.5,4.362-.035.416-.411.826-.828,1.236-1.246.753-.765,1.532-1.557,2.333-2.289a3.413,3.413,0,0,1,4.774.084,3.343,3.343,0,0,1,.1,4.751c-2.547,2.6-5.09,5.115-7.784,7.778q-1.444,1.43-2.913,2.887L71.931,83.94c-1.145-1.158-2.271-2.3-3.4-3.432q-1.066-1.07-2.138-2.134c-1.162-1.157-2.324-2.314-3.474-3.484a3.95,3.95,0,0,1-1.228-2.779" fill="#022334"/>
  </g>
</svg>
