<svg id="Instagram" xmlns="http://www.w3.org/2000/svg" width="39.533" height="39.534" viewBox="0 0 39.533 39.534">
  <path id="Path_459" data-name="Path 459" d="M-105.4,4346.593a3.288,3.288,0,0,0-.8-1.222,3.3,3.3,0,0,0-1.223-.8,5.875,5.875,0,0,0-1.974-.366c-1.121-.052-1.457-.062-4.3-.062s-3.175.011-4.3.063a5.875,5.875,0,0,0-1.974.366,3.3,3.3,0,0,0-1.223.8,3.288,3.288,0,0,0-.8,1.222,5.887,5.887,0,0,0-.366,1.974c-.051,1.122-.062,1.458-.062,4.3s.011,3.175.062,4.3a5.893,5.893,0,0,0,.366,1.974,3.3,3.3,0,0,0,.8,1.223,3.3,3.3,0,0,0,1.223.8,5.9,5.9,0,0,0,1.974.366c1.121.051,1.457.063,4.3.063s3.175-.011,4.3-.062a5.9,5.9,0,0,0,1.974-.366,3.3,3.3,0,0,0,1.223-.8,3.3,3.3,0,0,0,.8-1.223,5.884,5.884,0,0,0,.366-1.974c.051-1.121.062-1.458.062-4.3s-.011-3.175-.062-4.3A5.878,5.878,0,0,0-105.4,4346.593Zm-8.289,11.73a5.46,5.46,0,0,1-5.46-5.459,5.459,5.459,0,0,1,5.46-5.459,5.46,5.46,0,0,1,5.46,5.459A5.46,5.46,0,0,1-113.69,4358.323Zm5.676-9.859a1.276,1.276,0,0,1-1.276-1.276,1.276,1.276,0,0,1,1.276-1.275,1.275,1.275,0,0,1,1.276,1.275A1.276,1.276,0,0,1-108.014,4348.464Z" transform="translate(133.456 -4333.097)" fill="#c6ff6e"/>
  <circle id="Ellipse_6" data-name="Ellipse 6" cx="3.544" cy="3.544" r="3.544" transform="translate(16.222 16.223)" fill="#c6ff6e"/>
  <path id="Path_460" data-name="Path 460" d="M-124.175,4322.61a19.766,19.766,0,0,0-19.768,19.766,19.768,19.768,0,0,0,19.768,19.768,19.765,19.765,0,0,0,19.765-19.768A19.764,19.764,0,0,0-124.175,4322.61Zm10.567,24.15a7.8,7.8,0,0,1-.494,2.581,5.2,5.2,0,0,1-1.226,1.883,5.208,5.208,0,0,1-1.883,1.227,7.815,7.815,0,0,1-2.581.494c-1.134.052-1.5.064-4.384.064s-3.249-.012-4.383-.064a7.812,7.812,0,0,1-2.581-.494,5.208,5.208,0,0,1-1.883-1.227,5.2,5.2,0,0,1-1.226-1.883,7.8,7.8,0,0,1-.495-2.581c-.051-1.133-.064-1.5-.064-4.384s.012-3.25.064-4.384a7.8,7.8,0,0,1,.495-2.581,5.2,5.2,0,0,1,1.226-1.883,5.21,5.21,0,0,1,1.883-1.227,7.813,7.813,0,0,1,2.581-.494c1.134-.052,1.5-.063,4.383-.063s3.25.012,4.384.063a7.816,7.816,0,0,1,2.581.494,5.21,5.21,0,0,1,1.883,1.227,5.2,5.2,0,0,1,1.226,1.883,7.8,7.8,0,0,1,.494,2.581c.052,1.134.064,1.5.064,4.384S-113.557,4345.627-113.609,4346.76Z" transform="translate(143.943 -4322.61)" fill="#c6ff6e"/>
</svg>
