<svg id="Interpreting" xmlns="http://www.w3.org/2000/svg" width="115.965" height="98.056" viewBox="0 0 115.965 98.056">
  <g id="Group_313" data-name="Group 313" transform="translate(0 0)">
    <path id="Path_851" data-name="Path 851" d="M752.142,139.548a15.5,15.5,0,0,1-.412,3.773,9.018,9.018,0,0,1-8.59,6.341c-1.124.009-2.249,0-3.509,0v1.3c0,4.2-.008,8.4.005,12.594,0,1.013-.19,1.921-1.227,2.329-.993.39-1.71-.144-2.39-.829-4.846-4.878-9.717-9.733-14.554-14.62a2.4,2.4,0,0,0-1.871-.793c-7.134.028-14.268.007-21.4.021a9.056,9.056,0,0,1-9.473-9.456c.014-5.521.005-11.043.006-16.565v-1.217H687.4c-6.228,0-12.456-.02-18.684.031a2.76,2.76,0,0,0-1.748.716c-4.894,4.83-9.736,9.713-14.607,14.567a3.665,3.665,0,0,1-1.357.963c-1.261.393-2.293-.593-2.3-2.165-.021-3.631-.008-7.261-.009-10.892v-3.22c-1.173,0-2.292,0-3.41,0a8.994,8.994,0,0,1-9.095-9.137q-.012-18.1,0-36.194a8.981,8.981,0,0,1,9.1-9.128q22.591-.01,45.182,0a8.976,8.976,0,0,1,9.128,9.1c.012,5.635,0,11.27,0,16.906V95.2h1.084q21.062,0,42.124-.007a9.018,9.018,0,0,1,9.133,7.107,1.9,1.9,0,0,0,.206.387ZM735.467,159.6l.421-.285q0-.557,0-1.115,0-4.822,0-9.643c0-1.91.615-2.534,2.475-2.53q2.152,0,4.3,0a5.525,5.525,0,0,0,5.849-5.919q.008-17.528.006-35.057c0-4.043-2.185-6.222-6.234-6.222q-22.024,0-44.047.006a5.544,5.544,0,0,0-5.884,5.889q-.006,17.528-.005,35.056c0,4.054,2.181,6.25,6.208,6.251,7.4,0,14.8.021,22.193-.021a3.337,3.337,0,0,1,2.587,1.09c3.716,3.764,7.47,7.49,11.2,11.245A10.7,10.7,0,0,1,735.467,159.6Zm-46.745-40.8v-1.251c0-4.311-.025-8.622.016-12.932a10.782,10.782,0,0,1,.4-3.006,9.063,9.063,0,0,1,6.823-6.3c0-6.2.079-12.36-.034-18.518A5.346,5.346,0,0,0,690.3,71.6q-22.36-.018-44.72,0a5.482,5.482,0,0,0-5.773,5.766q-.022,17.867,0,35.733a5.5,5.5,0,0,0,5.62,5.7c1.509.026,3.019,0,4.529.006,1.887,0,2.467.586,2.475,2.525.01,2.382,0,4.764,0,7.147V132.4c.463-.429.738-.667.994-.923,3.177-3.18,6.5-6.226,9.476-9.59a8.756,8.756,0,0,1,7.668-3.163C676.555,118.99,682.561,118.8,688.722,118.8Z" transform="translate(-636.177 -67.963)" fill="#fff"/>
    <g id="Group_311" data-name="Group 311" transform="translate(11.81 20.319)">
      <path id="Path_852" data-name="Path 852" d="M663.465,100.443v10.891h-2.505v-4.492h-3.4v4.492h-2.505V100.443h2.505v4.245h3.4v-4.245Z" transform="translate(-655.055 -100.443)" fill="#fff"/>
      <path id="Path_853" data-name="Path 853" d="M678.772,109.3h-5.186c-.005.143-.007.269-.007.375a1.717,1.717,0,0,0,.458,1.3,1.533,1.533,0,0,0,1.1.439,1.352,1.352,0,0,0,1.428-1.269l2.155.16a3.585,3.585,0,0,1-3.662,2.792,4.053,4.053,0,0,1-2.046-.482,3.812,3.812,0,0,1-1.388-1.408,4.289,4.289,0,0,1-.546-2.218,4.377,4.377,0,0,1,1.1-3.1,3.877,3.877,0,0,1,5.489-.084A4.745,4.745,0,0,1,678.772,109.3Zm-5.194-1.38h2.864q-.112-1.66-1.364-1.66Q673.737,106.259,673.579,107.918Z" transform="translate(-661.053 -102.038)" fill="#fff"/>
      <path id="Path_854" data-name="Path 854" d="M685.778,111.334V100.443h2.377v10.891Z" transform="translate(-666.558 -100.443)" fill="#fff"/>
      <path id="Path_855" data-name="Path 855" d="M692.7,111.334V100.443h2.377v10.891Z" transform="translate(-669.151 -100.443)" fill="#fff"/>
      <path id="Path_856" data-name="Path 856" d="M702.689,104.7a3.581,3.581,0,0,1,2.873,1.2,4.469,4.469,0,0,1,1.032,3.015,4.293,4.293,0,0,1-1.072,2.98,3.644,3.644,0,0,1-2.85,1.192,3.477,3.477,0,0,1-2.754-1.18,4.438,4.438,0,0,1-1.032-3.032,4.694,4.694,0,0,1,.465-2.182,3.876,3.876,0,0,1,1.279-1.448A3.6,3.6,0,0,1,702.689,104.7Zm.064,1.556a1.137,1.137,0,0,0-1.018.522,4.228,4.228,0,0,0-.342,2.079,4.7,4.7,0,0,0,.327,2.05,1.076,1.076,0,0,0,1.018.622,1.147,1.147,0,0,0,.978-.531,3.8,3.8,0,0,0,.374-2.022,4.759,4.759,0,0,0-.33-2.154A1.087,1.087,0,0,0,702.753,106.259Z" transform="translate(-671.467 -102.038)" fill="#fff"/>
      <path id="Path_857" data-name="Path 857" d="M714.224,108.079l-.8-7.636h3.055l-.789,7.636Zm-.519,3.255V108.82h2.513v2.514Z" transform="translate(-676.91 -100.443)" fill="#fff"/>
    </g>
    <g id="Group_312" data-name="Group 312" transform="translate(66.341 48.306)">
      <path id="Path_858" data-name="Path 858" d="M751.527,149.492l-2.672.167q-.056-2.3-1.8-2.305-2,0-2,3.55a4.993,4.993,0,0,0,.543,2.781,1.787,1.787,0,0,0,1.519.73q1.583,0,1.935-2.059l2.473.152a4.391,4.391,0,0,1-1.456,2.972,4.88,4.88,0,0,1-6.494-.475,5.916,5.916,0,0,1-1.352-4.124,6.1,6.1,0,0,1,1.308-4.037,4.4,4.4,0,0,1,3.575-1.571Q751.032,145.272,751.527,149.492Z" transform="translate(-742.225 -145.216)" fill="#fff"/>
      <path id="Path_859" data-name="Path 859" d="M761.641,145.182v2.377h-2.378v-2.377Zm0,3.055V156.3h-2.378v-8.058Z" transform="translate(-748.604 -145.182)" fill="#fff"/>
      <path id="Path_860" data-name="Path 860" d="M772.925,158.024H770.62a5.734,5.734,0,0,1-.112-1.26,3.325,3.325,0,0,1-1.207,1.145,3.166,3.166,0,0,1-1.366.283,2.663,2.663,0,0,1-1.829-.614,2.091,2.091,0,0,1-.7-1.652,2.555,2.555,0,0,1,.406-1.4,2.667,2.667,0,0,1,1.307-1,12.457,12.457,0,0,1,3.282-.539v-.463a1.035,1.035,0,0,0-1.169-1.173,1.231,1.231,0,0,0-1.393,1.173l-2.193-.207a2.489,2.489,0,0,1,1.3-1.947,5.171,5.171,0,0,1,2.457-.574,6.019,6.019,0,0,1,1.548.191,2.589,2.589,0,0,1,1.134.575,2,2,0,0,1,.55.809,5.278,5.278,0,0,1,.144,1.488v3.654A5.59,5.59,0,0,0,772.925,158.024Zm-2.52-3.862q-2.49.248-2.489,1.509a1.086,1.086,0,0,0,.262.729.928.928,0,0,0,.748.307,1.308,1.308,0,0,0,1.053-.522,1.973,1.973,0,0,0,.426-1.289Z" transform="translate(-750.906 -146.911)" fill="#fff"/>
      <path id="Path_861" data-name="Path 861" d="M783.393,149.8a3.579,3.579,0,0,1,2.873,1.2,4.471,4.471,0,0,1,1.032,3.015,4.3,4.3,0,0,1-1.072,2.98,3.644,3.644,0,0,1-2.85,1.192,3.474,3.474,0,0,1-2.753-1.181,4.436,4.436,0,0,1-1.032-3.031,4.679,4.679,0,0,1,.467-2.183,3.878,3.878,0,0,1,1.279-1.448A3.589,3.589,0,0,1,783.393,149.8Zm.064,1.555a1.139,1.139,0,0,0-1.018.523,4.234,4.234,0,0,0-.342,2.078,4.7,4.7,0,0,0,.327,2.051,1.077,1.077,0,0,0,1.018.622,1.146,1.146,0,0,0,.978-.531,3.789,3.789,0,0,0,.374-2.022,4.762,4.762,0,0,0-.33-2.155A1.088,1.088,0,0,0,783.456,151.354Z" transform="translate(-756.216 -146.911)" fill="#fff"/>
      <path id="Path_862" data-name="Path 862" d="M794.928,153.174l-.8-7.635h3.055l-.789,7.635Zm-.519,3.255v-2.513h2.513v2.513Z" transform="translate(-761.659 -145.316)" fill="#fff"/>
    </g>
  </g>
</svg>
