<svg id="Group_76" data-name="Group 76" xmlns="http://www.w3.org/2000/svg" width="30.999" height="31" viewBox="0 0 30.999 31">
  <path id="Path_172" data-name="Path 172" d="M-325.594,4322.61a15.5,15.5,0,0,0-15.5,15.5,15.5,15.5,0,0,0,15.5,15.5,15.5,15.5,0,0,0,15.5-15.5A15.5,15.5,0,0,0-325.594,4322.61Zm8,12.109c.006.161.01.322.01.485a10.579,10.579,0,0,1-10.652,10.651,10.592,10.592,0,0,1-5.738-1.682,7.578,7.578,0,0,0,.893.052,7.512,7.512,0,0,0,4.649-1.6,3.747,3.747,0,0,1-3.5-2.6,3.883,3.883,0,0,0,.7.067,3.754,3.754,0,0,0,.986-.132,3.745,3.745,0,0,1-3-3.67v-.048a3.7,3.7,0,0,0,1.7.468,3.738,3.738,0,0,1-1.665-3.115,3.733,3.733,0,0,1,.506-1.882,10.63,10.63,0,0,0,7.717,3.912,3.767,3.767,0,0,1-.1-.853,3.744,3.744,0,0,1,3.743-3.744,3.736,3.736,0,0,1,2.732,1.182,7.529,7.529,0,0,0,2.379-.908,3.748,3.748,0,0,1-1.647,2.07,7.442,7.442,0,0,0,2.15-.589A7.6,7.6,0,0,1-317.594,4334.719Z" transform="translate(341.094 -4322.61)" fill="#3fc09a"/>
</svg>
