<svg id="Group_77" data-name="Group 77" xmlns="http://www.w3.org/2000/svg" width="31" height="31" viewBox="0 0 31 31">
  <path id="Path_173" data-name="Path 173" d="M-227.019,4322.61a15.5,15.5,0,0,0-15.5,15.5,15.5,15.5,0,0,0,15.5,15.5,15.5,15.5,0,0,0,15.5-15.5A15.5,15.5,0,0,0-227.019,4322.61Zm3.636,15.184h-2.637v9.552h-3.953v-9.552h-1.975V4334.5h1.975v-1.978c0-2.686,1.116-4.282,4.282-4.282h2.638v3.293H-224.7c-1.234,0-1.316.459-1.316,1.318l0,1.648h2.988Z" transform="translate(242.519 -4322.61)" fill="#3fc09a"/>
</svg>
