<svg xmlns="http://www.w3.org/2000/svg" xmlns:xlink="http://www.w3.org/1999/xlink" width="112.182" height="112.773" viewBox="0 0 112.182 112.773">
  <defs>
    <clipPath id="clip-path">
      <rect id="Rectangle_134" data-name="Rectangle 134" width="112.182" height="112.773" fill="#022334"/>
    </clipPath>
  </defs>
  <g id="Icon" transform="translate(0)">
    <g id="Group_428" data-name="Group 428" transform="translate(0)" clip-path="url(#clip-path)">
      <path id="Path_1219" data-name="Path 1219" d="M123.119,36.986a17.189,17.189,0,0,1-2-3.965,7.841,7.841,0,0,0-7.036-6.254,7.952,7.952,0,0,0-8.241,5.491L104.1,37.273q-3.141,9.055-6.315,18.1a2.541,2.541,0,0,1-1,1.227q-4.262,2.539-8.55,5.034Q84.7,63.7,81.185,65.775a17.146,17.146,0,0,0-8.94,15.681q.016,5.934.006,11.86l0,4.791c-1.565.651-1.87,1.18-1.871,2.966v1.972q0,5.914,0,11.828c0,2,.784,2.782,2.789,2.782l13.049,0h.007l12.082,0c2.053,0,2.817-.78,2.818-2.875q0-6.9,0-13.8h0c0-1.476-.262-2.09-1.35-2.63-.156-.078-.329-.153-.519-.229,0-.225,0-.451.006-.678.009-.714.018-1.452-.016-2.186a6.33,6.33,0,0,1,2.473-5.372c2.636-2.27,5.269-4.628,7.817-6.909q1.952-1.747,3.91-3.489a9.579,9.579,0,0,0,3.095-4.722l.788-2.94c2.462-9.187,5.008-18.686,7.462-28.042a7.423,7.423,0,0,0-1.669-6.8m-28.425,58.1c.03.755.023,1.5.015,2.3,0,.231,0,.463-.006.7H76.8l0-5.671q0-5.464.007-10.928A12.893,12.893,0,0,1,83.557,69.7q5.207-3.038,10.407-6.089l5.513-3.23a3.212,3.212,0,0,1,3.556,0,3.163,3.163,0,0,1,1.5,3.217,3.352,3.352,0,0,1-1.973,2.664q-4.326,2.474-8.636,4.976l-1.117.646a4.709,4.709,0,0,0-.9.612,2.154,2.154,0,0,0-.374,2.949,2.123,2.123,0,0,0,2.736.855,5.975,5.975,0,0,0,.782-.4L97.8,74.3c2.421-1.4,4.842-2.79,7.251-4.2A7.864,7.864,0,0,0,108.4,59.71a1.77,1.77,0,0,1-.056-1.124c1.624-5.1,3.39-10.568,5.557-17.193a3.427,3.427,0,0,1,4.112-2.469,3.283,3.283,0,0,1,2.2,4.315l-1.011,3.809c-2.277,8.574-4.631,17.44-7.042,26.131a7,7,0,0,1-2.032,3.042c-3.972,3.679-8.091,7.291-11.6,10.339a10.239,10.239,0,0,0-3.842,8.522m21.851-60.869a8.967,8.967,0,0,0-1.025.176,8.074,8.074,0,0,0-6.051,5.67q-2.262,7.025-4.536,14.043l-.408,1.26c-.056.17-.12.336-.187.506l-1.647-.492,6.95-20,.224-.66c.111-.33.222-.66.341-.987a3.555,3.555,0,0,1,3.652-2.386,3.236,3.236,0,0,1,2.73,2.869l-.043.006M75.01,102.757h21.5v10.3H75.01Z" transform="translate(-12.849 -4.884)" fill="#022334"/>
      <path id="Path_1220" data-name="Path 1220" d="M52.723,98.083l0-4.892c0-3.879-.008-7.764.008-11.649a17.267,17.267,0,0,0-9.06-15.853l-5.185-3.045q-5.261-3.086-10.512-6.191a1.856,1.856,0,0,1-.732-.883c-2.2-6.3-5.1-14.619-8.007-23.135a8.181,8.181,0,0,0-9.117-5.619,7.986,7.986,0,0,0-6.405,7.936,1.2,1.2,0,0,1-.266.76C.325,37.869-.661,40.956.428,44.949c2.9,10.628,5.41,20.02,7.685,28.711a11.921,11.921,0,0,0,3.773,6.161c2.239,1.953,4.457,3.93,6.673,5.908q2.518,2.247,5.048,4.484A5.587,5.587,0,0,1,25.7,94.263c.044.956.033,1.934.021,2.879q0,.5-.008.993c-1.486.559-1.86,1.146-1.86,2.746q0,7.016,0,14.033c0,1.941.79,2.733,2.72,2.733l12.639,0,12.617,0c1.991,0,2.768-.786,2.769-2.8q0-5.863,0-11.727v-1.954c0-1.882-.271-2.376-1.871-3.078m-32.1-42.217-3.94-12.144c-.094-.287-.192-.573-.29-.858-.2-.582-.406-1.183-.559-1.779-1.035-4.019-3.542-6.33-7.455-6.874a3.21,3.21,0,0,1,2.72-2.88,3.613,3.613,0,0,1,3.709,2.487Q16.9,39.825,18.976,45.84l3.3,9.529ZM11.057,41.31Q12.86,46.8,14.63,52.3l1.287,3.975c.037.114.068.228.1.342a5.183,5.183,0,0,0,.23.7,3.973,3.973,0,0,1,.013,3.32,7.492,7.492,0,0,0,3,9.012c2.955,1.834,6.026,3.584,9,5.276l2.108,1.2a2.369,2.369,0,0,0,1.822.261,2.25,2.25,0,0,0,1.362-1.108,2.314,2.314,0,0,0-1.056-3.218q-2.729-1.6-5.473-3.169-2.472-1.422-4.936-2.854A3.112,3.112,0,0,1,20.46,62.6a2.813,2.813,0,0,1,2.321-2.571,4.262,4.262,0,0,1,2.621.335c6.855,3.889,12.041,6.926,16.814,9.846a11.908,11.908,0,0,1,5.9,10.249c.121,4.15.095,8.378.069,12.466-.011,1.715-.022,3.432-.022,5.142H30.267c0-.192,0-.384-.007-.577-.011-.688-.02-1.4.016-2.093a10.556,10.556,0,0,0-4.048-9.028c-2.25-1.931-4.5-3.942-6.673-5.889-1.535-1.372-3.069-2.746-4.617-4.1A7.318,7.318,0,0,1,12.6,72.589q-2.076-7.82-4.188-15.632-1.806-6.709-3.6-13.422a5.16,5.16,0,0,1-.161-2.115A3.132,3.132,0,0,1,7.575,38.81a3.515,3.515,0,0,1,3.482,2.5m17.395,61.428h21.5v10.276h-21.5Z" transform="translate(0 -4.876)" fill="#022334"/>
      <path id="Path_1221" data-name="Path 1221" d="M69.836,50.994c6.09-6.067,12.386-12.34,18.51-18.579a18.131,18.131,0,0,0,5.228-15.171A19.074,19.074,0,0,0,68.348,1.08,19.843,19.843,0,0,0,61.34,5.317l-.841-.71A18.224,18.224,0,0,0,45.386.246c-7.64,1.209-12.954,5.643-15.371,12.822a18.1,18.1,0,0,0,4.4,19.413c5.924,6.091,12.049,12.181,17.973,18.071q3.525,3.506,7.045,7.018a2.327,2.327,0,0,0,3.8.006q3.3-3.293,6.6-6.581M85.311,28.9C79.743,34.65,73.97,40.39,68.386,45.939c-2.366,2.352-4.733,4.7-7.065,7.04a.635.635,0,0,1-.057.031l-.668-.7c-.626-.66-1.248-1.317-1.887-1.957q-3.6-3.6-7.2-7.191c-4.476-4.466-9.1-9.086-13.627-13.658A14.507,14.507,0,0,1,40.629,6.711a14.28,14.28,0,0,1,7.432-2.069,14.618,14.618,0,0,1,9.925,3.879c.271.251.532.513.792.776.29.292.58.584.883.861a2.3,2.3,0,0,0,3.356,0c.365-.324.72-.66,1.077-1a20.357,20.357,0,0,1,2.3-1.972A14.565,14.565,0,0,1,85.458,9.53C90.4,15.2,90.34,23.708,85.311,28.9" transform="translate(-5.274 0)" fill="#022334"/>
      <path id="Path_1222" data-name="Path 1222" d="M76.359,23.12c-1.187,0-2.372,0-3.587,0H71.58l0-1.316c0-1.251,0-2.456,0-3.66a2.246,2.246,0,0,0-2.469-2.5q-3.51-.027-7.02,0a2.255,2.255,0,0,0-2.54,2.552c-.008,1.176-.007,2.353,0,3.59v1.34l-1.266,0c-1.251,0-2.465,0-3.677,0a2.261,2.261,0,0,0-2.539,2.552c0,.66,0,1.321,0,1.981,0,.7,0,1.408,0,2.111l-.007.553c-.029,2.351-.043,3.53.635,4.209s1.886.665,4.291.634l.419,0c.57-.007,1.139-.007,1.723,0h.424V36.5c0,1.185,0,2.315,0,3.445.008,1.853.824,2.683,2.644,2.689q1.6.007,3.2.007,1.734,0,3.466-.006c1.928,0,2.717-.8,2.723-2.731,0-1.2,0-2.391,0-3.61V35.156l1.321,0c1.26,0,2.472.006,3.682-.007a2.247,2.247,0,0,0,2.478-2.5c.015-2.116.01-4.233,0-6.349v-.437c0-1.945-.788-2.741-2.7-2.747M67.03,33.32c0,1.138,0,2.277,0,3.441v1.247H64.1V36.884c0-1.191,0-2.382,0-3.573-.007-1.916-.8-2.7-2.744-2.706-1.141,0-2.283,0-3.452,0H56.665V27.67h1.2c1.2,0,2.375,0,3.553,0,1.842-.008,2.666-.827,2.675-2.657.007-1.2,0-2.393,0-3.61V20.245h2.934v4.543c0,2.151.741,2.878,2.922,2.881h4.47V30.6H73.3c-1.171,0-2.353,0-3.535,0-1.933.007-2.725.792-2.733,2.715" transform="translate(-9.502 -2.853)" fill="#022334"/>
    </g>
  </g>
</svg>
