<svg xmlns="http://www.w3.org/2000/svg" width="30.641" height="42.373" viewBox="0 0 30.641 42.373">
  <g id="Pointer_icon" data-name="Pointer icon" transform="translate(0 0)">
    <path id="Path_1172" data-name="Path 1172" d="M1585.682,272.74a15.338,15.338,0,0,0-15.321,15.321c0,10.516,13.771,25.971,14.357,26.623a1.3,1.3,0,0,0,1.927,0c.586-.653,14.357-16.117,14.357-26.623A15.338,15.338,0,0,0,1585.682,272.74Zm.071,39.013-.071.084-.072-.084c-2.97-3.528-12.66-15.662-12.66-23.692a12.731,12.731,0,0,1,25.462,0C1598.413,296.09,1588.723,308.225,1585.753,311.753Z" transform="translate(-1570.361 -272.74)" fill="#fff"/>
    <path id="Path_1173" data-name="Path 1173" d="M1598.616,293.333a7.662,7.662,0,1,0,7.662,7.662A7.67,7.67,0,0,0,1598.616,293.333Zm0,12.734a5.072,5.072,0,1,1,5.072-5.072A5.078,5.078,0,0,1,1598.616,306.067Z" transform="translate(-1583.296 -285.675)" fill="#fff"/>
  </g>
</svg>
