<svg id="Icon" xmlns="http://www.w3.org/2000/svg" xmlns:xlink="http://www.w3.org/1999/xlink" width="120.577" height="120.552" viewBox="0 0 120.577 120.552">
  <defs>
    <clipPath id="clip-path">
      <rect id="Rectangle_136" data-name="Rectangle 136" width="120.577" height="120.552" fill="#022334"/>
    </clipPath>
  </defs>
  <g id="Group_432" data-name="Group 432" clip-path="url(#clip-path)">
    <path id="Path_1227" data-name="Path 1227" d="M120.539,33.04c-.042-.241-.1-2.4-.142-3.837-.056-1.986-.065-2.192-.083-2.281a12.773,12.773,0,0,0-12.731-10.34h-.155a4.577,4.577,0,0,0-4.76,4.832q0,3.967,0,7.932v6.1c0,.264-.016.527-.031.817l0,.1h-1.106q-4.459,0-8.919-.011c-8.267-.016-16.818-.031-25.226.081-2.274.034-3.32-.615-3.863-2.468a1.294,1.294,0,0,1,.061-1.265,11.41,11.41,0,0,0-3.324-15.508A1.165,1.165,0,0,1,59.685,16c.041-3.218.052-6.4.056-10.179a7.526,7.526,0,0,0-.154-1.836A5.429,5.429,0,0,0,53.732.027,5.268,5.268,0,0,0,48.664,5.18c-.071,3.346-.107,6.889-.107,10.533a1.456,1.456,0,0,1-.773,1.444,11.17,11.17,0,0,0-4.16,13.877,4.07,4.07,0,0,1-.186,4.457c-.408.659-.686.894-1.426.894H42q-15.409-.042-30.823-.021l-5.507,0c-.527,0-1.058,0-1.59.053a4.394,4.394,0,0,0-4.076,4.47q-.012,37.539,0,75.077a4.358,4.358,0,0,0,2.81,4.2,18.828,18.828,0,0,0,4.866.391h99.8a12.64,12.64,0,0,0,7.644-2.154l.141-.087a10.957,10.957,0,0,0,5.058-7.624c.05-.248.227-2.956.227-4.793V33.136l.025-.013ZM106.983,22.317c0-.613.024-1.2.194-1.349s.756-.088,1.366,0a8.5,8.5,0,0,1,7.673,8.558q.032,26.174.015,52.348l0,17.29a12.169,12.169,0,0,0-7.826-2.827c-.251,0-.505.007-.76.021a.734.734,0,0,1-.54-.127.794.794,0,0,1-.122-.576c.012-.171.01-.344.007-.517Zm-58.84,29.9,5.7-11.293,5.4,11.293Zm29.48,22.968a26.4,26.4,0,0,1-.916,2.7c-.05.132-.1.267-.152.4L57.107,37.627l2.761-1.2.006.013c.133.25.266.5.387.754l2.344,4.9c4.907,10.255,9.981,20.859,14.934,31.306a2.874,2.874,0,0,1,.085,1.787M58.943,31.562a6.96,6.96,0,0,1-4.95,2.1h0a6.9,6.9,0,0,1-4.914-2.05,7.005,7.005,0,0,1-2.062-4.994,6.9,6.9,0,0,1,2.027-4.923,6.989,6.989,0,0,1,4.968-2.012h.037a6.941,6.941,0,0,1,4.9,11.882m-8.3,5.995-20.3,40.25-.148-.437c-.384-1.131-.716-2.109-1.014-3.118a1.4,1.4,0,0,1,.042-.911q8.133-16.2,16.312-32.392l2.352-4.664Zm-10.18,3.751-1.574,3.116c-1.179,2.327-2.356,4.656-3.512,6.994-.265.536-.484.676-1.032.641-1.489-.092-3-.092-4.469-.094h-.116a2.665,2.665,0,0,0-1.937.674,2.114,2.114,0,0,0-.58,1.538,2.174,2.174,0,0,0,2.408,2.2c.828.028,1.658.02,2.555.015l.633,0c-.139.294-.257.548-.383.8L30.6,60.86c-1.8,3.568-3.589,7.137-5.415,10.689a4.488,4.488,0,0,0-.283,3.794c.654,1.815,1.252,3.633,1.78,5.4.579,1.943,1.659,2.931,3.3,3.021,2,.112,2.938-1.348,3.49-2.451q2.306-4.6,4.629-9.2c2.392-4.74,4.864-9.641,7.263-14.48A1.71,1.71,0,0,1,47.292,56.5c4.731.14,9.4.161,13.338.163a1.007,1.007,0,0,1,1.109.727c3.5,7.359,7.572,15.921,11.7,24.412a5,5,0,0,0,2.005,2.152A3.01,3.01,0,0,0,77.9,84.1a3.125,3.125,0,0,0,1.828-1.783c.781-1.986,1.775-4.61,2.544-7.3a4.573,4.573,0,0,0-.457-2.833c-1.678-3.615-3.431-7.268-5.125-10.8L74.84,57.532c-.095-.2-.182-.4-.284-.642H75.1l2.42,0c1.663,0,2.535-.707,2.59-2.092a2.108,2.108,0,0,0-.487-1.595,2.77,2.77,0,0,0-2.02-.705c-.693-.025-1.387-.034-2.08-.042-.863-.01-1.727-.02-2.588-.063a1.069,1.069,0,0,1-.659-.282c-1.653-3.378-3.293-6.832-4.878-10.174l-.526-1.109h35.791V94.987c0,4,1.56,5.594,5.565,5.679a7.837,7.837,0,0,1,7.588,5.432,7.654,7.654,0,0,1-6.628,9.954c-.577.05-1.2.074-1.949.074q-50.688,0-101.373,0c-.122,0-.248.008-.375.017a1.593,1.593,0,0,1-.626-.029,1.319,1.319,0,0,1-.566-.6,1.115,1.115,0,0,1,0-.411c.01-.111.02-.223.02-.329V42.035a3.511,3.511,0,0,1,.09-1.192,3.4,3.4,0,0,1,1.151-.088H40.712c-.083.2-.161.378-.25.554m12.476-26,.011-2.974c.008-2.117.016-4.233.038-6.351.014-1.5.618-1.7,1.208-1.7h0c.571,0,1.225.191,1.228,1.666q.006,3.441,0,6.886v2.471Z" transform="translate(0 0)" fill="#022334"/>
    <path id="Path_1228" data-name="Path 1228" d="M13.9,111.072q-.006,7.013,0,14.028c0,3.239,1.154,4.386,4.4,4.386H93.92c3.006,0,4.233-1.217,4.238-4.2q.01-7.131,0-14.262c0-3.019-1.189-4.194-4.227-4.195q-37.867,0-75.734,0c-3.127,0-4.291,1.15-4.294,4.243m8.052,2.781A2.021,2.021,0,0,0,24.111,116h.025a1.972,1.972,0,0,0,2.124-2.138c.016-.667.012-1.334.008-2.021l0-.533h3.642l0,1.094c0,1.19,0,2.384-.007,3.577a2.068,2.068,0,0,0,1.668,2.3,2.174,2.174,0,0,0,1.88-.33,2.226,2.226,0,0,0,.781-1.787c.023-1.192.017-2.384.012-3.609l0-1.214H37.87l0,.447c0,.65-.009,1.3.01,1.94a2.1,2.1,0,0,0,2.18,2.268c.95,0,2.1-.368,2.171-2.237.02-.528.025-1.056.03-1.585,0-.288.006-.575.011-.862h3.57v4.623a2.13,2.13,0,0,0,1.635,2.338,2.228,2.228,0,0,0,1.9-.293,2.253,2.253,0,0,0,.842-1.753c.049-.94.042-1.892.034-2.814,0-.393-.006-.787,0-1.18v-.916h3.571l0,.463c-.006.633-.011,1.247.01,1.859.052,1.517.841,2.355,2.222,2.359h.009c.962,0,2.116-.414,2.181-2.376.019-.59.014-1.183.01-1.807l0-.466h3.573v1.092c0,1.138,0,2.286,0,3.434a2.178,2.178,0,0,0,1.691,2.415,2.225,2.225,0,0,0,1.891-.36,2.372,2.372,0,0,0,.811-1.883c.025-1.165.02-2.33.013-3.527l0-1.18h3.606l0,.491c-.006.66-.011,1.3.011,1.946A2.033,2.033,0,0,0,72.01,116h.025a2.068,2.068,0,0,0,2.147-2.288c.016-.614.012-1.229.008-1.884l0-.525h3.624v1.127c0,1.144,0,2.27,0,3.4.011,1.65.733,2.5,2.147,2.513a2.167,2.167,0,0,0,1.543-.532,2.638,2.638,0,0,0,.642-1.953c.006-1.136.006-2.272,0-3.431l0-1.11h3.641v.46c0,.657-.007,1.321.006,1.985A2.037,2.037,0,0,0,87.975,116h0c1.342,0,2.1-.811,2.129-2.279.007-.325,0-.649,0-.974l0-1.5h3.571v13.747H18.37V111.312h3.578l0,.523c0,.683-.008,1.35.009,2.017" transform="translate(-2.538 -19.504)" fill="#022334"/>
  </g>
</svg>
