<svg xmlns="http://www.w3.org/2000/svg" width="19.196" height="19.196" viewBox="0 0 19.196 19.196">
  <g id="Group_348" data-name="Group 348" transform="translate(-1298.331 184.458)">
    <circle id="Ellipse_17" data-name="Ellipse 17" cx="6.787" cy="6.787" r="6.787" transform="translate(1298.331 -174.86) rotate(-45)" fill="#3fc09a"/>
    <path id="Path_1009" data-name="Path 1009" d="M1381.467-108.11a6.769,6.769,0,0,1,5.022,2.222l-.068-.01-.3.051-.291.416-.418.066-.06.359.176.043-.051.231-.415-.084-.379.084-.079.211.065.448.222.1.374,0,.252-.023.077-.2.4-.515.259.054.255-.233.048.181.63.429-.078.1-.284-.014.11.155.174.039.2-.085,0-.249.09-.046-.072-.078-.42-.235-.111-.314h.349l.075.075a6.757,6.757,0,0,1,.662,1.375l-.27.026v.254h-.131l-.141-.1-.713-.183v-.466l-.9.071-.281.152h-.36l-.177-.02-.436.246v.458l-.891.647.074.277h.182l-.047.263-.127.048-.007.688.769.884h.337l.019-.055h.6l.173-.161h.342l.187.188.51.055-.067.68.566,1.006-.3.574.02.27.234.235v.065a6.779,6.779,0,0,1-5.577,2.919,6.817,6.817,0,0,1-1.394-.144l.148-.145.027-.144-.221-.064.013-.135.316-.048.479-.231.161-.3.5-.649-.115-.506.154-.27.462.015.312-.247.1-.977.344-.442.062-.283-.316-.1-.208-.343-.709-.007-.563-.215-.027-.405-.189-.33-.508-.007-.295-.466-.261-.13-.014.142-.475.028-.174-.243-.5-.1-.409.474-.642-.108-.048-.73-.469-.082.189-.357-.055-.206-.615.416-.388-.048-.138-.306.083-.314.215-.4.492-.251h.951l0,.291.342.161-.026-.5.245-.251.5-.329.035-.231.5-.52.526-.293-.046-.039.356-.338.131.034.06.076.135-.151.034-.016-.149-.021-.151-.05v-.146l.081-.066h.175l.081.036.071.142.084-.014v-.013l.025.009.247-.037.035-.123.141.036v.133l-.131.091.02.144.447.139,0,.005.1-.009.007-.2-.354-.161-.019-.094.294-.1.012-.284-.308-.188-.019-.478-.422.208h-.154l.039-.364-.573-.136-.238.181v.553l-.427.135-.171.361-.187.03v-.46l-.4-.057-.2-.131-.081-.3.718-.423.353-.108.035.238.2-.009.014-.121.205-.028,0-.043-.088-.037-.019-.126.252-.021.152-.16.009-.01h0l.046-.048.529-.067.234.2-.614.329.779.186.1-.263h.34l.121-.229-.241-.062v-.289l-.757-.338-.522.06-.294.156.019.377-.309-.046-.047-.21.3-.27-.161-.008a6.8,6.8,0,0,1,1.7-.216Zm-2.179,13.216.027-.331-.282-.378.115-.641-.167-.046v-1.391s-.469-.357-.5-.357-.247-.06-.247-.06l-.048-.263-.611-.769.062-.277.019-.452.422-.3-.06-.506-.617-.046-.482-.554-.341-.094-.222-.04.027-.2-.28-.041v.114l-.7-.174-.284-.437.117-.211-.371-.544q-.026.11-.049.221l.087.135-.033.188-.109-.005a6.846,6.846,0,0,0-.078,1.031,6.79,6.79,0,0,0,4.607,6.429Zm-.859-12.5c0,.061.007.115.007.115l.5-.014.053-.133.342-.021.04-.2-.2-.034.011-.03a6.771,6.771,0,0,0-.748.32Zm-1.055,1.536.129.268.206-.066.065-.257-.19-.046-.21.1Zm1.12.608h-.071v-.1h-.316l-.231.1-.046.117.18.05h.483v-.167Zm.22.233h-.271v.268l.151-.028.12-.078v-.161Zm-.136-.066.166-.041-.166-.151v.192Zm.076.389-.185.026-.025.06-.122.01-.041.176h.257l.115-.116v-.158Zm-.638-.323-.185.2-.03.2.141.076.34-.481Zm1.09.268-.3-.09h-.021v.146l.07.1h.256v-.158Zm-.236-.216.1.082.1-.082-.123-.076Z" transform="translate(-73.538 -73.537)" fill="#072333" fill-rule="evenodd"/>
  </g>
</svg>
