<svg id="YouTube" xmlns="http://www.w3.org/2000/svg" width="39.532" height="39.533" viewBox="0 0 39.532 39.533">
  <path id="Path_452" data-name="Path 452" d="M-8.59,4350.285q.561,0,.686-.811c.018-.118.025-.561.025-1.326v-.689c0-.716-.009-1.147-.032-1.293-.086-.537-.309-.8-.667-.8s-.566.237-.652.708a9.394,9.394,0,0,0-.043,1.189v.655c0,.873.006,1.35.015,1.426C-9.184,4349.972-8.962,4350.285-8.59,4350.285Z" transform="translate(27.792 -4333.688)" fill="#c6ff6e"/>
  <path id="Path_453" data-name="Path 453" d="M-11.65,4371.505a2.771,2.771,0,0,1-.06.7.449.449,0,0,1-.453.366.416.416,0,0,1-.42-.336,2.571,2.571,0,0,1-.058-.649v-3.693h-1.088v4.44c0,.9.364,1.36,1.087,1.36a1.1,1.1,0,0,0,1.022-.711v.561h1.105v-5.651H-11.65Z" transform="translate(29.961 -4344.66)" fill="#c6ff6e"/>
  <path id="Path_454" data-name="Path 454" d="M-3.492,4365.967a.976.976,0,0,0-.955.628v-2.352H-5.574v7.524h1.069v-.592a1,1,0,0,0,.989.741q.857,0,1.133-1.062a8.318,8.318,0,0,0,.147-1.884,9.256,9.256,0,0,0-.134-1.911C-2.544,4366.33-2.921,4365.967-3.492,4365.967Zm.1,4.1q-.087.773-.5.773c-.294,0-.477-.21-.549-.632a7.441,7.441,0,0,1-.04-1.03c0-.712.008-1.128.022-1.243.072-.582.259-.872.567-.872.277,0,.442.259.5.777.012.092.016.466.016,1.118C-3.373,4369.589-3.38,4369.96-3.394,4370.067Z" transform="translate(25.991 -4342.882)" fill="#c6ff6e"/>
  <path id="Path_455" data-name="Path 455" d="M-22.576,4365.486h1.39v6.28h1.2v-6.28h1.389v-1.243h-3.983Z" transform="translate(34.27 -4342.882)" fill="#c6ff6e"/>
  <path id="Path_456" data-name="Path 456" d="M4.034,4367.6a1.543,1.543,0,0,0-1.355.591,2.3,2.3,0,0,0-.331,1.055c-.025.229-.039.609-.039,1.147,0,.665.014,1.121.039,1.363a2.629,2.629,0,0,0,.39,1.255,1.447,1.447,0,0,0,1.267.541,1.612,1.612,0,0,0,1.25-.444,2.091,2.091,0,0,0,.4-1.425,1.1,1.1,0,0,0,0-.11c0-.047-.005-.084-.005-.109H4.591q0,1.108-.566,1.107c-.256,0-.422-.182-.5-.552a4.684,4.684,0,0,1-.058-.9,2.906,2.906,0,0,1,.013-.36h2.21v-.432a4.287,4.287,0,0,0-.336-2.086A1.455,1.455,0,0,0,4.034,4367.6Zm.52,2.26H3.463c0-.051,0-.1,0-.162l-.006-.077a1.543,1.543,0,0,1,.127-.8.447.447,0,0,1,.425-.225.461.461,0,0,1,.474.328,2.217,2.217,0,0,1,.075.692Z" transform="translate(22.152 -4344.517)" fill="#c6ff6e"/>
  <path id="Path_457" data-name="Path 457" d="M-25.6,4322.61a19.765,19.765,0,0,0-19.766,19.766A19.765,19.765,0,0,0-25.6,4362.143a19.765,19.765,0,0,0,19.766-19.767A19.765,19.765,0,0,0-25.6,4322.61Zm2.624,10.6h1.357v4.615a3.16,3.16,0,0,0,.074.813.519.519,0,0,0,.524.421.557.557,0,0,0,.563-.457,3.434,3.434,0,0,0,.079-.88v-4.512h1.418v7.065h-1.382v-.7a1.374,1.374,0,0,1-1.277.892q-1.358,0-1.357-1.7Zm-5,.944a1.787,1.787,0,0,1,1.829-1.135,1.8,1.8,0,0,1,1.832,1.135,7.543,7.543,0,0,1,.311,2.59,7.532,7.532,0,0,1-.311,2.59,1.794,1.794,0,0,1-1.832,1.129,1.786,1.786,0,0,1-1.829-1.135,7.545,7.545,0,0,1-.31-2.585A7.612,7.612,0,0,1-27.982,4334.15Zm-4.436-3.29,1.224,3.54,1.21-3.54h1.624l-2.086,5.421v3.99h-1.519v-3.99l-2.123-5.421Zm16.844,20.019a3.2,3.2,0,0,1-3.366,3.012H-32.263a3.2,3.2,0,0,1-3.364-3.012v-5.811a3.2,3.2,0,0,1,3.364-3.011H-18.94a3.2,3.2,0,0,1,3.366,3.01Z" transform="translate(45.367 -4322.61)" fill="#c6ff6e"/>
</svg>
