<svg xmlns="http://www.w3.org/2000/svg" width="39.532" height="39.533" viewBox="0 0 39.532 39.533">
  <path id="Path_450" data-name="Path 450" d="M-321.328,4322.61a19.765,19.765,0,0,0-19.766,19.766,19.765,19.765,0,0,0,19.766,19.767,19.765,19.765,0,0,0,19.766-19.767A19.765,19.765,0,0,0-321.328,4322.61Zm10.2,15.443c.008.2.013.409.013.618a13.49,13.49,0,0,1-13.584,13.583,13.511,13.511,0,0,1-7.317-2.145,9.721,9.721,0,0,0,1.139.066,9.58,9.58,0,0,0,5.928-2.044,4.778,4.778,0,0,1-4.46-3.314,4.938,4.938,0,0,0,.9.085,4.751,4.751,0,0,0,1.258-.169,4.776,4.776,0,0,1-3.83-4.681v-.061a4.722,4.722,0,0,0,2.164.6,4.768,4.768,0,0,1-2.124-3.973,4.757,4.757,0,0,1,.645-2.4,13.557,13.557,0,0,0,9.841,4.988,4.81,4.81,0,0,1-.124-1.088,4.775,4.775,0,0,1,4.774-4.774,4.766,4.766,0,0,1,3.484,1.507,9.6,9.6,0,0,0,3.033-1.158,4.78,4.78,0,0,1-2.1,2.64,9.467,9.467,0,0,0,2.742-.751A9.692,9.692,0,0,1-311.126,4338.053Z" transform="translate(341.094 -4322.61)" fill="#c6ff6e"/>
</svg>
