<svg id="Icon" xmlns="http://www.w3.org/2000/svg" xmlns:xlink="http://www.w3.org/1999/xlink" width="120.577" height="118.003" viewBox="0 0 120.577 118.003">
  <defs>
    <clipPath id="clip-path">
      <rect id="Rectangle_137" data-name="Rectangle 137" width="120.577" height="118.003" fill="#022334"/>
    </clipPath>
  </defs>
  <g id="Group_434" data-name="Group 434" clip-path="url(#clip-path)">
    <path id="Path_1229" data-name="Path 1229" d="M28.384,102.5a2.138,2.138,0,0,0-.192,4.157,4.964,4.964,0,0,0,1.377.147q6.679.009,13.357.006H53.547q4.772,0,9.545-.007a5.2,5.2,0,0,0,1.494-.17,1.991,1.991,0,0,0,1.462-2.209,1.957,1.957,0,0,0-1.668-1.914,6.938,6.938,0,0,0-1.355-.11q-16.644-.009-33.289,0a7.007,7.007,0,0,0-1.354.1" transform="translate(-4.864 -18.696)" fill="#022334"/>
    <path id="Path_1230" data-name="Path 1230" d="M27.2,94.117a2.06,2.06,0,0,0-.569,1.533A2.164,2.164,0,0,0,29,97.735l1.045,0c2.814,0,5.664.007,8.531.007,4.506,0,9.05-.008,13.548-.04a2.729,2.729,0,0,0,1.963-1.015,1.9,1.9,0,0,0,.182-2.02,2.482,2.482,0,0,0-2.254-1.247c-2.74-.012-5.482-.01-8.226-.007l-3.334,0-3.327,0q-4.061,0-8.118.007a2.5,2.5,0,0,0-1.815.7" transform="translate(-4.862 -17.055)" fill="#022334"/>
    <path id="Path_1231" data-name="Path 1231" d="M120.56,104.053c-.01-.479-.019-.958-.016-1.435a2.205,2.205,0,0,0-2.423-2.532c-.609-.026-1.221-.02-1.879-.013l-.543,0,0-61.307c0-.591,0-1.184-.036-1.774a8.577,8.577,0,0,0-7.237-8.1,32.369,32.369,0,0,0-3.716-.248c-.405-.011-.81-.022-1.216-.038,1.324-3.659-.457-7.688-4.3-9.646-4.945-2.523-9.927-5.179-14.745-7.748Q81.2,9.486,77.94,7.759c-.1-.052-.2-.112-.3-.172a3.893,3.893,0,0,0-.808-.4c-3.845-2.055-9.695-5.169-10.74-5.7a12.125,12.125,0,0,0-11.782.082L42.824,7.649Q31.909,13.431,20.989,19.2a7.385,7.385,0,0,0-4.251,5.821,11.884,11.884,0,0,0,.113,2.8c.034.284.068.571.1.862q-.269-.007-.548-.019a13.827,13.827,0,0,0-2.639.071,13.476,13.476,0,0,0-4.441,1.192C6.3,31.563,4.831,34.292,4.838,38.27q.042,22.632.02,45.263l0,16.544-.349,0c-.5.007-.957.013-1.416-.012a3.227,3.227,0,0,0-3.015,1.242L0,101.418v6.446l.025.142c.146.395.276.8.406,1.2a13.96,13.96,0,0,0,1.057,2.644c2.32,4.081,6.095,6.15,11.22,6.15h.016q28.278-.022,56.555-.011L94.841,118q2.886,0,5.77,0,3.761,0,7.521-.017c6.528-.036,11.227-3.888,12.264-10.055a21.03,21.03,0,0,0,.163-3.878M44.823,63.877a47.224,47.224,0,0,0,27.8.939c.2-.054.4-.095.7-.154-.043.154-.083.3-.122.454a9.844,9.844,0,0,1-.644,1.909c-.514,1.017-1.108,2.021-1.684,2.993-.365.616-.732,1.233-1.081,1.86a5.711,5.711,0,0,0,5.107,8.8l.311,0a9.163,9.163,0,0,0,2.224-.153,5.623,5.623,0,0,0,3.873-3.163,5.832,5.832,0,0,0-.21-5.178c-.393-.737-.83-1.461-1.254-2.16a28.715,28.715,0,0,1-1.808-3.307,7.7,7.7,0,0,1-.416-2.709c-.01-.256-.02-.51-.035-.76a2.237,2.237,0,0,1,.5-.3A16.65,16.65,0,0,0,88.158,49.662a15.164,15.164,0,0,0,.123-2.342l0-.517c.011-1.345.008-2.688.006-4.07V41.392h14.79v50.5l-67.045,0c-1.648,0-4.35,0-7.158,0l-7.486,0H17.474V41.369H32.269c0,.437.008.87.015,1.3.016,1.229.033,2.389-.029,3.562-.432,8.2,4.384,14.965,12.569,17.646M78.539,57.71c-.341.285-.681.57-1.014.861V56.3q0-5.686.016-11.37a.67.67,0,0,1,.159-.381c1.723-.946,3.458-1.865,5.281-2.833l.959-.508c0,.762.017,1.524.034,2.266.1,4.278.186,8.319-2.776,11.759a22.616,22.616,0,0,1-2.657,2.478M77.29,75.644a1.554,1.554,0,0,1-1.314.71,10.041,10.041,0,0,1-1.235,0,1.546,1.546,0,0,1-1.3-.711,1.454,1.454,0,0,1,.064-1.419c.457-.869.957-1.721,1.486-2.622.125-.214.253-.43.381-.651.129.223.257.441.384.657.528.9,1.028,1.753,1.48,2.621a1.452,1.452,0,0,1,.059,1.414M66.569,50.414c1.511-.828,3.036-1.63,4.56-2.432l1.409-.742c.208-.11.423-.208.665-.318l0,4.2c0,2.791,0,5.583.014,8.374,0,.527-.072.642-.5.771A41.451,41.451,0,0,1,44,58.812c-4.435-1.883-6.98-5.575-7.363-10.676-.125-1.67-.094-3.339-.061-5.107.011-.6.022-1.2.027-1.812l.437.225c.646.331,1.255.643,1.86.964l4.163,2.2c3.57,1.887,7.263,3.839,10.877,5.791a12.515,12.515,0,0,0,12.628.016m30.657-21.18c-3.969,2.072-7.987,4.211-11.872,6.279q-2.572,1.37-5.146,2.736-1.579.837-3.172,1.665l-1.173.613-10.788-12.3c-1.039-1.192-2.114-2.424-3.2-3.61a2.158,2.158,0,0,0-3.323,2.747,7.1,7.1,0,0,0,.571.7l9.308,10.6c.83.947,1.659,1.9,2.507,2.872l.967,1.11c-.738.39-1.467.779-2.193,1.166-2.026,1.08-3.938,2.1-5.912,3.092a7.64,7.64,0,0,1-7.357-.15L43.71,40.013q-10.39-5.505-20.785-11a3.22,3.22,0,0,1-.022-5.878l13.551-7.178q9.981-5.288,19.963-10.57a7.919,7.919,0,0,1,7.78.03l6.243,3.3c8.379,4.437,22.609,11.972,26.8,14.177,1.582.832,2.292,1.8,2.3,3.126.011,1.4-.683,2.359-2.32,3.213M22.453,36.873q-3.286,0-6.567,0c-2.1,0-2.841.748-2.841,2.848q-.006,26.89,0,53.781c0,2.032.754,2.79,2.779,2.8,2.54.007,16.094.017,20.571,0q34.044,0,68.085,0c2.322,0,3.03-.705,3.03-3.019q0-26.715,0-53.431c0-2.253-.717-2.976-2.95-2.978h-.294c-3.845,0-7.806,0-11.787-.15a7.466,7.466,0,0,0,.71-.434c3.535-2.47,7.623-3.512,12.863-3.284,3.353.147,5.348,2.167,5.333,5.4-.071,15.184-.062,30.623-.053,45.553q0,7.505.006,15.011v1.032H9.216V38.064c0-3.223,1.7-4.939,4.918-4.962.146,0,.3.007.445.013a4.417,4.417,0,0,0,1.025-.031c4.83-.875,8.683,1.385,12.766,3.775l.021.012Zm-2.491,76.68c-2.474-.029-5.03-.06-7.542.062A7.718,7.718,0,0,1,6.3,111.147a8.215,8.215,0,0,1-1.91-6.59H45.451c.061.159.124.318.18.479,1.314,3.774,3.876,5.863,7.411,6.044a141.267,141.267,0,0,0,14.52-.008c3.45-.181,6.051-2.3,7.329-5.978.186-.539.28-.622.7-.622H75.6q15.628.026,31.257.02l9.194,0a1.1,1.1,0,0,1,.134.01c.3,4.4-1.516,7.543-5.026,8.66a11.281,11.281,0,0,1-3.322.4q-35.842.027-71.684.017H23.31c-1.116,0-2.232-.014-3.347-.028m47.09-6.784c-4.385.054-8.936.055-13.524,0a3.713,3.713,0,0,1-3.3-2.216h20.09a3.708,3.708,0,0,1-3.269,2.214" transform="translate(0 0)" fill="#022334"/>
  </g>
</svg>
