<svg id="Train_icon" data-name="Train icon" xmlns="http://www.w3.org/2000/svg" xmlns:xlink="http://www.w3.org/1999/xlink" width="36.17" height="43.8" viewBox="0 0 36.17 43.8">
  <defs>
    <clipPath id="clip-path">
      <rect id="Rectangle_155" data-name="Rectangle 155" width="36.17" height="43.8" transform="translate(0 0)" fill="#fff"/>
    </clipPath>
  </defs>
  <g id="Group_454" data-name="Group 454" transform="translate(0 0)" clip-path="url(#clip-path)">
    <path id="Path_1273" data-name="Path 1273" d="M17.733,73.663a3.377,3.377,0,1,0-3.377-3.377,3.381,3.381,0,0,0,3.377,3.377m0-5.066a1.689,1.689,0,1,1-1.689,1.689A1.691,1.691,0,0,1,17.733,68.6" transform="translate(-8.932 -41.631)" fill="#fff"/>
    <path id="Path_1274" data-name="Path 1274" d="M17.267,73.48a3.661,3.661,0,1,1,3.661-3.661,3.665,3.665,0,0,1-3.661,3.661m0-6.755a3.094,3.094,0,1,0,3.094,3.094,3.1,3.1,0,0,0-3.094-3.094m0,5.066a1.972,1.972,0,1,1,1.972-1.972,1.974,1.974,0,0,1-1.972,1.972m0-3.377a1.405,1.405,0,1,0,1.405,1.405,1.407,1.407,0,0,0-1.405-1.405" transform="translate(-8.466 -41.164)" fill="#fff"/>
    <path id="Path_1275" data-name="Path 1275" d="M35.856,41.892l-5.186-5.419a4.486,4.486,0,0,0,3.747-4.441V6.977A6.194,6.194,0,0,0,29.427.9,47.265,47.265,0,0,0,20.252,0H15.791a46.27,46.27,0,0,0-9.05.9A6.211,6.211,0,0,0,1.762,6.97V32.033A4.535,4.535,0,0,0,5.557,36.48L.318,41.887a1.128,1.128,0,0,0,.81,1.912H7.165a1.131,1.131,0,0,0,.913-.466l2.477-3.418H25.7l2.476,3.419a1.132,1.132,0,0,0,.913.466h5.953a1.128,1.128,0,0,0,.815-1.907m-8.247-5.354L32.4,41.544H29.664l-3.627-5.007ZM13,36.538H23.251l.813,1.122H12.189Zm-2.785,0L6.59,41.544H3.79l4.85-5.007Zm21.944-4.505a2.252,2.252,0,0,1-2.25,2.25H6.267a2.252,2.252,0,0,1-2.25-2.25V6.97A3.949,3.949,0,0,1,7.184,3.108a43.99,43.99,0,0,1,8.607-.852h4.461a45,45,0,0,1,8.737.858,3.938,3.938,0,0,1,3.172,3.863Z" transform="translate(0 0)" fill="#fff"/>
    <path id="Path_1276" data-name="Path 1276" d="M38.377,17.881H14.734a1.129,1.129,0,0,0-1.128,1.128V33.026a1.129,1.129,0,0,0,1.128,1.128H38.377A1.129,1.129,0,0,0,39.5,33.026V19.009a1.129,1.129,0,0,0-1.128-1.128M37.249,31.9H27.683V20.136h9.566Zm-11.822,0H15.861V20.136h9.566Z" transform="translate(-8.466 -11.126)" fill="#fff"/>
    <path id="Path_1277" data-name="Path 1277" d="M66.594,66.409a3.566,3.566,0,1,0,3.567,3.566,3.57,3.57,0,0,0-3.567-3.566m1.5,3.566a1.5,1.5,0,1,1-1.5-1.5,1.5,1.5,0,0,1,1.5,1.5" transform="translate(-39.216 -41.32)" fill="#fff"/>
    <path id="Path_1278" data-name="Path 1278" d="M43.84,68.394H37.085a1.128,1.128,0,1,0,0,2.255H43.84a1.128,1.128,0,1,0,0-2.255" transform="translate(-22.373 -42.555)" fill="#fff"/>
    <path id="Path_1279" data-name="Path 1279" d="M43.84,77.334H37.085a1.128,1.128,0,1,0,0,2.255H43.84a1.128,1.128,0,1,0,0-2.255" transform="translate(-22.373 -48.118)" fill="#fff"/>
  </g>
</svg>
