<svg id="Icon" xmlns="http://www.w3.org/2000/svg" xmlns:xlink="http://www.w3.org/1999/xlink" width="120" height="114" viewBox="0 0 120 114">
  <defs>
    <clipPath id="clip-path">
      <rect id="Rectangle_59" data-name="Rectangle 59" width="120" height="114" transform="translate(0 0)" fill="#022334"/>
    </clipPath>
  </defs>
  <path id="Path_314" data-name="Path 314" d="M1195.8,1148.733v23.333l8.267-6.8,8,6.8v-23.333Z" transform="translate(-1127 -1147)" fill="#3fc09a"/>
  <g id="Group_195" data-name="Group 195" transform="translate(-118.399 -252.09)">
    <g id="Group_194" data-name="Group 194" transform="translate(118.399 252.09)">
      <g id="Group_193" data-name="Group 193" transform="translate(0 0)" clip-path="url(#clip-path)">
        <path id="Path_313" data-name="Path 313" d="M238.5,318.564a7.992,7.992,0,0,0-4.391-4.614V257.933a6.061,6.061,0,0,0-6.043-6.043H163.612a6.061,6.061,0,0,0-6.043,6.043v56.461a40.7,40.7,0,0,0-6.527,3.727l-6.325,4.431-2.316-3.3a2.029,2.029,0,0,0-2.8-.5L119.8,332.6a2.048,2.048,0,0,0-.5,2.819l20.808,29.692a2.015,2.015,0,0,0,2.8.5l19.8-13.859a2.053,2.053,0,0,0,.5-2.821l-1.149-1.631a17.926,17.926,0,0,1,13.295-2.839l3.585.6a26.173,26.173,0,0,0,13.517-1.169L233.689,328.9a8.055,8.055,0,0,0,4.814-10.332Zm-32.591-62.646H228.07a2.015,2.015,0,0,1,2.014,2.014v6.043H205.913Zm-16.114,0h12.086v17.3l-4.612-4.633a2.032,2.032,0,0,0-2.862,0l-4.612,4.633Zm-28.2,2.014a2.015,2.015,0,0,1,2.014-2.014h22.157v8.057H161.6Zm0,10.072h24.172v10.072a1.988,1.988,0,0,0,1.249,1.853,2.017,2.017,0,0,0,2.2-.422l6.626-6.648,6.626,6.648a2.035,2.035,0,0,0,1.431.583,1.7,1.7,0,0,0,.766-.161,1.988,1.988,0,0,0,1.249-1.853V268h24.172v45.342a7.74,7.74,0,0,0-1.894.4l-7.13,2.6H206.9a7.806,7.806,0,0,0-3.727-1.752l-20.244-3.566a42.281,42.281,0,0,0-19.618,1.169l-.363.12c-.463.121-.906.3-1.35.463ZM142.24,361.166l-18.471-26.408,16.5-11.563L158.737,349.6Zm92.678-39.137a4.027,4.027,0,0,1-2.6,3.082l-41.233,15.006a22.12,22.12,0,0,1-11.441.986l-3.606-.6a21.925,21.925,0,0,0-16.3,3.5l-12.71-18.168,6.325-4.412a37.452,37.452,0,0,1,10.7-5.238l.362-.1a38.752,38.752,0,0,1,17.827-1.107l20.223,3.564a4.124,4.124,0,0,1,2.619,1.672,4.035,4.035,0,0,1,.665,1.732,3.556,3.556,0,0,1-.1,1.692,4.046,4.046,0,0,1-4.612,2.86l-21.774-3.846-.686,3.947,21.755,3.848a6.9,6.9,0,0,0,1.431.142,8.093,8.093,0,0,0,7.735-5.741l20.063-7.312a4.03,4.03,0,0,1,5.157,2.417,3.83,3.83,0,0,1,.2,2.076Zm0,0" transform="translate(-118.97 -252.062)" fill="#022334"/>
      </g>
    </g>
  </g>
</svg>
