<svg xmlns="http://www.w3.org/2000/svg" width="66.615" height="35.558" viewBox="0 0 66.615 35.558">
  <path id="Car_icon" data-name="Car icon" d="M1880.551,298.655l-.033,0-13.64-1.43-8.192-9.831a1.14,1.14,0,0,0-.879-.412H1833.4a14.656,14.656,0,0,0-14.478,12.666,14.506,14.506,0,0,0-.145,1.957,14.731,14.731,0,0,0,12.324,14.441l.277.044.034.278a7.026,7.026,0,0,0,13.924.177l.047-.317h20.393l.047.317a7.024,7.024,0,0,0,13.9,0l.047-.317h.705a4.924,4.924,0,0,0,4.919-4.918v-7.735A4.94,4.94,0,0,0,1880.551,298.655Zm-31.258-9.386h7.977l6.583,7.9h-14.559Zm-14.751,0H1847v7.9h-12.462Zm-12.422,7.377a12.408,12.408,0,0,1,9.715-7.265l.42-.054v7.842H1821.89Zm16.265,23.6a4.746,4.746,0,1,1,4.746-4.746A4.751,4.751,0,0,1,1838.385,320.251Zm34.385,0a4.746,4.746,0,1,1,4.746-4.746A4.751,4.751,0,0,1,1872.77,320.251Zm10.331-8.942a2.633,2.633,0,0,1-2.63,2.63h-.845l-.075-.274a7.024,7.024,0,0,0-13.562,0l-.075.274h-20.673l-.075-.274a7.027,7.027,0,0,0-13.516-.178l-.1.317-.326-.058a12.224,12.224,0,0,1-10.041-13.794c.005-.039.013-.078.02-.118l.059-.376,44.987,0,14.1,1.478c.038,0,.079.006.119.006a2.633,2.633,0,0,1,2.63,2.63Z" transform="translate(-1818.775 -286.981)" fill="#fff"/>
</svg>
