<svg xmlns="http://www.w3.org/2000/svg" width="64.878" height="69.857" viewBox="0 0 64.878 69.857">
  <g id="Subtitling" transform="translate(0 0)">
    <path id="Path_863" data-name="Path 863" d="M906.5,184.986a3.218,3.218,0,0,1-2.815-1.625l-7.212-12.492a1.5,1.5,0,0,0-1.291-.745H883.445a9.394,9.394,0,0,1-9.384-9.384V124.513a9.394,9.394,0,0,1,9.384-9.384h46.11a9.394,9.394,0,0,1,9.384,9.384v36.229a9.394,9.394,0,0,1-9.384,9.384H917.431a.824.824,0,0,0-.712.41l-7.405,12.826A3.217,3.217,0,0,1,906.5,184.986Zm-23.055-66.1a5.636,5.636,0,0,0-5.63,5.63v36.229a5.637,5.637,0,0,0,5.63,5.63h11.738a5.257,5.257,0,0,1,4.541,2.622L906.5,180.73l6.97-12.071a4.586,4.586,0,0,1,3.962-2.287h12.124a5.637,5.637,0,0,0,5.63-5.63V124.513a5.637,5.637,0,0,0-5.63-5.63Z" transform="translate(-874.061 -115.129)" fill="#fff"/>
    <g id="Group_315" data-name="Group 315" transform="translate(12.726 17.271)">
      <path id="Path_864" data-name="Path 864" d="M908.433,157.724a4.8,4.8,0,0,1-3.864,1.706,6.527,6.527,0,1,1,3.648-11.942,1.819,1.819,0,1,0,2.037-3.014,10.166,10.166,0,1,0-5.685,18.593,8.5,8.5,0,0,0,6.652-3.007,1.819,1.819,0,1,0-2.788-2.337Z" transform="translate(-894.404 -142.737)" fill="#fff"/>
      <path id="Path_865" data-name="Path 865" d="M946.455,157.5a1.819,1.819,0,0,0-2.563.225,4.8,4.8,0,0,1-3.864,1.706,6.527,6.527,0,1,1,3.648-11.941,1.819,1.819,0,1,0,2.037-3.015,10.166,10.166,0,1,0-5.685,18.593,8.51,8.51,0,0,0,6.652-3.006,1.819,1.819,0,0,0-.224-2.562Z" transform="translate(-907.68 -142.737)" fill="#fff"/>
    </g>
  </g>
</svg>
