<svg id="Icon" xmlns="http://www.w3.org/2000/svg" xmlns:xlink="http://www.w3.org/1999/xlink" width="119.786" height="119.773" viewBox="0 0 119.786 119.773">
  <defs>
    <clipPath id="clip-path">
      <rect id="Rectangle_135" data-name="Rectangle 135" width="119.787" height="119.773" fill="#022334"/>
    </clipPath>
  </defs>
  <g id="Group_430" data-name="Group 430" clip-path="url(#clip-path)">
    <path id="Path_1223" data-name="Path 1223" d="M114.1,94.369c-4.024-3.384-7.949-6.885-11.913-10.341Q87.777,71.465,73.375,58.9C70.86,56.7,68.352,54.5,65.788,52.263A7.1,7.1,0,0,0,63.827,41.1c1.372-1.656,2.574-2.8,5.051-2.609,4.008.3,6.975-1.878,8.65-5.562a9.127,9.127,0,0,0-2-10.344Q65.723,12.711,55.854,2.9A9.32,9.32,0,0,0,44.786,1.065a9.523,9.523,0,0,0-4.954,10,1.866,1.866,0,0,1-.451,1.37q-13.4,13.473-26.846,26.9a1.519,1.519,0,0,1-1.5.532A9.326,9.326,0,0,0,1.123,44.7,9.2,9.2,0,0,0,2.633,55.52Q12.655,65.671,22.809,75.691A9.17,9.17,0,0,0,33.624,77.2a9.355,9.355,0,0,0,4.85-9.9,1.657,1.657,0,0,1,.236-1.162c.673-.848,1.451-1.615,2.221-2.451,2.887,4.553,7.725,5.091,11.408,2.156.613.7,1.231,1.4,1.844,2.1q20.457,23.5,40.913,47a14.046,14.046,0,0,0,6.469,4.225c.691.218,1.393.4,2.089.606h3.976c.926-.26,1.88-.443,2.77-.792a14.107,14.107,0,0,0,9.152-10.6c.058-.26.158-.51.239-.765v-3.741a16.159,16.159,0,0,0-5.694-9.5M44.652,8.081A4.449,4.449,0,0,1,48.373,4.8a4.2,4.2,0,0,1,3.862,1.191c6.709,6.672,13.416,13.347,20.048,20.093.755.768,1.682,2.757,1.386,3.853-.32,2.125-1.045,2.73-2.851,3.533a4.383,4.383,0,0,1-4.991-.8c-1.159-1.036-2.221-2.183-3.322-3.284q-8.262-8.258-16.521-16.518a4.579,4.579,0,0,1-1.332-4.79M33.5,70.774c-.79,1.817-2.25,2.71-4.9,2.8-1.3,0-1.767-.587-2.563-1.368Q16,62.342,6.105,52.326a4.555,4.555,0,0,1-.016-6.511,4.57,4.57,0,0,1,6.513-.1Q22.645,55.659,32.59,65.7a4.334,4.334,0,0,1,.9,5.071M35.934,62,16.346,42.411l26.07-26.068,19.6,19.576L35.934,62m13.317.114a2.279,2.279,0,0,1-2.743.634,2.4,2.4,0,0,1-1.371-2.5,5.577,5.577,0,0,1,.819-1.357Q52.353,52.416,58.812,46a2.364,2.364,0,0,1,3.512-.185,2.306,2.306,0,0,1-.208,3.416Q55.7,55.689,49.251,62.112m6.539.5,6.834-6.832,28.6,24.941L80.709,91.232C72.413,81.7,64.061,72.108,55.79,62.61m28.269,32.47,11-11,3.082,2.675-11.4,11.41-2.688-3.085m30.524,13.691a9.563,9.563,0,0,1-8.5,6.3,7.9,7.9,0,0,1-6.24-2.138c-3.364-3.5-6.516-7.206-9.686-10.748L102.1,90.235c.847.727,1.817,1.549,2.776,2.384q3.437,2.994,6.864,6a9.26,9.26,0,0,1,2.847,10.151" transform="translate(-0.003 0)" fill="#022334"/>
    <path id="Path_1224" data-name="Path 1224" d="M65.526,135.569a11.525,11.525,0,0,0-4.493-9.218c-.507-.415-1.072-.759-1.649-1.162.109-.205.194-.371.285-.534A8.172,8.172,0,0,0,52.415,112.2q-19.813-.011-39.626,0a8.1,8.1,0,0,0-7.824,6.173,8.358,8.358,0,0,0,1.248,6.783c-.72.529-1.408.97-2.025,1.5C.938,129.435-.155,133.04.017,137.21a3.1,3.1,0,0,0,1.67,3.048H63.894a2.8,2.8,0,0,0,1.642-3.054,16.281,16.281,0,0,1-.01-1.636m-52.378-18.69c4.595-.037,9.189-.011,13.784-.011h5.841c6.543,0,13.084-.014,19.626.007a3.486,3.486,0,0,1,3.544,4.625,3.434,3.434,0,0,1-2.933,2.344,6.78,6.78,0,0,1-1.048.047q-19.218,0-38.434.01a3.744,3.744,0,0,1-3.807-2.155,3.486,3.486,0,0,1,3.427-4.867M4.834,135.53a6.874,6.874,0,0,1,7.075-6.961c6.273-.029,12.546-.008,18.819-.008,7.636,0,15.274-.017,22.91.007a6.94,6.94,0,0,1,7.14,6.962Z" transform="translate(0 -20.485)" fill="#022334"/>
    <path id="Path_1225" data-name="Path 1225" d="M51.326,30.309c-.413-.68-2.37-2.12-4.011-.477-3.165,3.1-6.29,6.244-9.413,9.389-1.175,1.184-1.254,2.613-.252,3.6.987.977,2.43.873,3.606-.291,1.851-1.832,3.687-3.68,5.528-5.522,1.346-1.347,2.7-2.688,4.036-4.045a2.112,2.112,0,0,0,.5-2.658" transform="translate(-6.747 -5.308)" fill="#022334"/>
    <path id="Path_1226" data-name="Path 1226" d="M31.3,49.049a2.369,2.369,0,0,0-2.409,2.313,2.333,2.333,0,0,0,2.308,2.4,2.413,2.413,0,0,0,2.388-2.357A2.466,2.466,0,0,0,31.3,49.049" transform="translate(-5.274 -8.955)" fill="#022334"/>
  </g>
</svg>
