<svg id="YouTube" xmlns="http://www.w3.org/2000/svg" width="30.266" height="30.266" viewBox="0 0 30.266 30.266">
  <path id="Path_452" data-name="Path 452" d="M-8.75,4349.131q.43,0,.526-.621c.014-.09.019-.429.019-1.016v-.528c0-.548-.007-.878-.025-.99-.066-.411-.237-.616-.511-.616s-.434.182-.5.542a7.19,7.19,0,0,0-.033.911v.5c0,.668,0,1.033.012,1.092C-9.2,4348.891-9.035,4349.131-8.75,4349.131Z" transform="translate(23.451 -4336.424)" fill="#022334"/>
  <path id="Path_453" data-name="Path 453" d="M-12.137,4370.659a2.124,2.124,0,0,1-.046.537.344.344,0,0,1-.347.28.319.319,0,0,1-.321-.257,1.973,1.973,0,0,1-.045-.5v-2.827h-.833v3.4c0,.692.279,1.042.832,1.042a.843.843,0,0,0,.782-.545v.43h.846v-4.327h-.869Z" transform="translate(26.156 -4350.106)" fill="#022334"/>
  <path id="Path_454" data-name="Path 454" d="M-3.98,4365.563a.748.748,0,0,0-.731.481v-1.8h-.862V4370h.818v-.453a.764.764,0,0,0,.757.567q.656,0,.868-.813a6.371,6.371,0,0,0,.113-1.443,7.082,7.082,0,0,0-.1-1.462C-3.254,4365.841-3.543,4365.563-3.98,4365.563Zm.075,3.14q-.067.592-.382.592-.338,0-.421-.484a5.689,5.689,0,0,1-.031-.788c0-.545.006-.864.017-.952.055-.445.2-.667.434-.667.212,0,.339.2.386.595.009.07.012.356.012.856C-3.889,4368.336-3.894,4368.62-3.9,4368.7Z" transform="translate(21.205 -4347.889)" fill="#022334"/>
  <path id="Path_455" data-name="Path 455" d="M-22.576,4365.194h1.064V4370h.922V4365.2h1.063v-.952h-3.05Z" transform="translate(31.529 -4347.889)" fill="#022334"/>
  <path id="Path_456" data-name="Path 456" d="M3.63,4367.6a1.181,1.181,0,0,0-1.037.452,1.757,1.757,0,0,0-.254.807c-.019.176-.03.467-.03.879,0,.509.011.858.03,1.043a2.016,2.016,0,0,0,.3.961,1.109,1.109,0,0,0,.97.414,1.235,1.235,0,0,0,.957-.34,1.6,1.6,0,0,0,.309-1.091.841.841,0,0,0,0-.084c0-.036,0-.064,0-.083H4.056q0,.848-.434.847c-.2,0-.323-.139-.386-.422a3.587,3.587,0,0,1-.045-.689,2.239,2.239,0,0,1,.01-.276H4.893v-.33a3.284,3.284,0,0,0-.257-1.6A1.113,1.113,0,0,0,3.63,4367.6Zm.4,1.73H3.192c0-.039,0-.081,0-.124l0-.059a1.181,1.181,0,0,1,.1-.609.343.343,0,0,1,.326-.171.353.353,0,0,1,.363.25,1.7,1.7,0,0,1,.057.53Z" transform="translate(16.419 -4349.928)" fill="#022334"/>
  <path id="Path_457" data-name="Path 457" d="M-30.234,4322.61a15.132,15.132,0,0,0-15.133,15.133,15.132,15.132,0,0,0,15.133,15.133A15.132,15.132,0,0,0-15.1,4337.743,15.132,15.132,0,0,0-30.234,4322.61Zm2.009,8.112h1.039v3.534a2.418,2.418,0,0,0,.057.623.4.4,0,0,0,.4.322.426.426,0,0,0,.431-.35,2.628,2.628,0,0,0,.06-.674v-3.455h1.085v5.41h-1.058v-.538a1.053,1.053,0,0,1-.977.683q-1.04,0-1.039-1.3Zm-3.832.724a1.368,1.368,0,0,1,1.4-.869,1.374,1.374,0,0,1,1.4.869,5.774,5.774,0,0,1,.238,1.983,5.763,5.763,0,0,1-.238,1.982,1.374,1.374,0,0,1-1.4.865,1.368,1.368,0,0,1-1.4-.869,5.775,5.775,0,0,1-.238-1.979A5.825,5.825,0,0,1-32.057,4331.445Zm-3.4-2.519.937,2.71.926-2.71h1.244l-1.6,4.15v3.055h-1.163v-3.055l-1.625-4.15Zm12.9,15.326a2.452,2.452,0,0,1-2.577,2.306h-10.2a2.451,2.451,0,0,1-2.576-2.306V4339.8a2.451,2.451,0,0,1,2.576-2.306h10.2a2.451,2.451,0,0,1,2.577,2.3Z" transform="translate(45.367 -4322.61)" fill="#022334"/>
</svg>
