<svg id="Editorial_Services" data-name="Editorial Services" xmlns="http://www.w3.org/2000/svg" xmlns:xlink="http://www.w3.org/1999/xlink" width="85.983" height="85.885" viewBox="0 0 85.983 85.885">
  <defs>
    <clipPath id="clip-path">
      <rect id="Rectangle_147" data-name="Rectangle 147" width="85.983" height="85.885" fill="#022334"/>
    </clipPath>
  </defs>
  <g id="Group_447" data-name="Group 447" clip-path="url(#clip-path)">
    <path id="Path_1264" data-name="Path 1264" d="M82.472,28.28c.768-.909,1.556-1.776,2.39-2.695.3-.336.612-.673.921-1.016l.2-.22-2.5-2.256L80.834,25c-.166-.049-.326-.1-.481-.152a4.408,4.408,0,0,0-1.334-.295c-4.764-.04-9.495-.031-13.9-.015a2.984,2.984,0,0,0-2.981,2.982c-.013,1.01-.011,2.021-.008,3.031q0,.9,0,1.805c0,.139-.012.278-.024.411H50.354V14.141H62.136V18.83c0,2.374,1.141,3.529,3.487,3.53q6.472,0,12.944,0c2.312,0,3.484-1.16,3.485-3.447l0-2.638c0-2.842.009-5.78-.018-8.671a2.164,2.164,0,0,1,.64-1.7c.755-.77,1.453-1.562,2.191-2.4.3-.343.606-.688.916-1.034l.2-.22L83.478,0l-2.59,2.845c-.26-.047-.506-.1-.742-.149a8.562,8.562,0,0,0-1.668-.24c-3.333-.028-6.722-.024-10-.02l-2.946,0A3.049,3.049,0,0,0,62.137,5.8c0,1.2,0,2.395,0,3.617v1.309H50.447c-2.354,0-3.5,1.151-3.5,3.517V52.114H44.772V50.9c0-1.108,0-2.2,0-3.284a3.5,3.5,0,0,0-6.533-1.978c-.277.409-.563.814-.848,1.219a28.129,28.129,0,0,0-2.094,3.28A3.408,3.408,0,0,1,31.427,52.2a40.323,40.323,0,0,0-4.656-.077c-.543.011-1.092.022-1.649.027l.216-.418c.321-.62.625-1.207.891-1.845a5.539,5.539,0,0,0,.564-2.047c.031-10.641.057-21.973,0-33.232a9.919,9.919,0,0,0-9.141-9.4A10.213,10.213,0,0,0,10,7.921a10.155,10.155,0,0,0-3.089,7.467v2.4c-.006,9.679-.012,19.689.025,29.533a8.059,8.059,0,0,0,.614,2.656,14.388,14.388,0,0,0,.832,1.768l.214.408H4.726A4.415,4.415,0,0,0,0,56.846q0,12.17,0,24.34a4.414,4.414,0,0,0,4.717,4.7H48.3a4.41,4.41,0,0,0,4.757-4.747V58.325h9.08V59.6c0,1.233,0,2.446,0,3.658a3.029,3.029,0,0,0,3.289,3.294q6.645.007,13.289,0a3.039,3.039,0,0,0,3.336-3.334V60.036c0-2.833,0-5.762.022-8.642a1.757,1.757,0,0,1,.4-1.016c.767-.908,1.553-1.773,2.386-2.69q.46-.505.925-1.021l.2-.22-2.505-2.254L80.834,47.1c-.166-.049-.325-.1-.48-.152a4.408,4.408,0,0,0-1.334-.295c-4.723-.038-9.47-.03-13.9-.015a2.984,2.984,0,0,0-2.982,2.981c-.013,1.01-.011,2.02-.008,3.031q0,.9,0,1.806c0,.152-.014.3-.028.461H60.433c-2.535,0-4.929,0-7.37-.024-.132,0-.4-.258-.552-.41-.2-.193-.385-.4-.57-.61a6.706,6.706,0,0,0-1.148-1.1.906.906,0,0,1-.51-.9q.022-5.5.014-11.009V36.687c0-.152.011-.3.022-.458H62.136V37.5c0,1.234,0,2.446,0,3.659a3.029,3.029,0,0,0,3.289,3.292q6.645.006,13.29,0a3.038,3.038,0,0,0,3.335-3.336V37.939c0-2.832,0-5.762.022-8.642a1.761,1.761,0,0,1,.4-1.016M71.894,40l6.743-7.477v8.543H65.527V27.948H78.191L72.306,34.5l-1.75-2.563L67.76,33.8ZM13.213,9.7a6.235,6.235,0,0,1,7.141-.1c2.245,1.4,3.262,3.564,3.1,6.614H10.27c-.165-2.964.8-5.1,2.943-6.51m5.055,48.59-.15.307c-.256.528-.5,1.026-.783,1.493a.57.57,0,0,1-.483.3.658.658,0,0,1-.544-.362c-.256-.444-.483-.918-.723-1.419l-.151-.314ZM22,50.8c-.671,1.35-1.321,2.658-1.992,3.951a.6.6,0,0,1-.36.15c-1.861.024-3.745.023-5.6,0a.6.6,0,0,1-.358-.149c-.668-1.291-1.312-2.594-1.977-3.937l-.388-.783H22.387Zm-6.877-4.21H10.3v-21.4h4.83Zm-4.588,9.431c.47.983.958,1.958,1.446,2.934.386.772.772,1.544,1.15,2.32a4.006,4.006,0,0,0,7.438-.024c.376-.771.761-1.538,1.145-2.305.5-1.006,1.006-2.01,1.493-3.024a.637.637,0,0,1,.706-.434h.015c1.491.008,2.979.008,4.473.008,2.068,0,4.209,0,6.312.024h.036a1.7,1.7,0,0,0,1.579-.9c1.351-2.075,2.837-4.3,4.543-6.809a1.406,1.406,0,0,1,.409-.334,1.387,1.387,0,0,1,.128.466c.017,1.813.015,3.626.014,5.49V55.5h2.3c1.493,0,2.946,0,4.4,0,1.229,0,1.585.352,1.585,1.56q0,11.953,0,23.907c0,1.214-.355,1.565-1.58,1.566q-21.617,0-43.234,0c-1.168,0-1.544-.368-1.544-1.512q-.005-12,0-23.994c0-1.165.359-1.521,1.533-1.525h.355c.409,0,.819,0,1.229,0,1.067.005,2.17.012,3.256-.024.43-.015.61.1.818.539m12.872-9.431H18.584v-21.4h4.828Zm.023-24.866H10.322V19.658H23.436ZM71.893,17.9l6.733-7.466V18.95H65.536V5.831H78.209L72.3,12.4l-1.739-2.57-2.8,1.863Zm0,44.192,6.732-7.466v8.509H65.544V50.021H78.213l-5.9,6.568L70.55,54.032l-2.79,1.86Z" transform="translate(0 0)" fill="#022334"/>
    <rect id="Rectangle_143" data-name="Rectangle 143" width="22.597" height="3.243" transform="translate(19.374 68.787)" fill="#022334"/>
    <rect id="Rectangle_144" data-name="Rectangle 144" width="22.535" height="3.275" transform="translate(19.402 74.31)" fill="#022334"/>
    <rect id="Rectangle_145" data-name="Rectangle 145" width="3.21" height="3.271" transform="translate(13.881 68.746)" fill="#022334"/>
    <rect id="Rectangle_146" data-name="Rectangle 146" width="3.21" height="3.271" transform="translate(13.881 74.27)" fill="#022334"/>
  </g>
</svg>
