<svg id="Icon" xmlns="http://www.w3.org/2000/svg" width="113.022" height="115.599" viewBox="0 0 113.022 115.599">
  <path id="Path_316" data-name="Path 316" d="M346.35,1203.95h7.7l2-1.4v-16.3h-19.3l-1.3,2.2v24.2s2.4,12.7,20.6,10.8c.9-.8,2.425-6.825,0-9.1s-9.7,0-9.7,0v-10.4Z" transform="translate(-305.208 -1148.2)" fill="#3fc09a"/>
  <path id="Path_317" data-name="Path 317" d="M346.35,1203.95h7.7l2-1.4v-16.3h-19.3l-1.3,2.2v24.2s2.4,12.7,20.6,10.8c.9-.8,2.425-6.825,0-9.1s-9.7,0-9.7,0v-10.4Z" transform="translate(-274.208 -1148.2)" fill="#3fc09a"/>
  <g id="Group_191" data-name="Group 191" transform="translate(-109.282 -229.891)">
    <g id="Group_190" data-name="Group 190" transform="translate(109.282 229.891)">
      <path id="Path_297" data-name="Path 297" d="M221.332,276.059a56.495,56.495,0,1,0-103.6,40.073,58.178,58.178,0,0,1-8.141,25.312,2.258,2.258,0,0,0,1.551,3.357,47.34,47.34,0,0,0,8.328.689,65.941,65.941,0,0,0,27.145-5.935,56.5,56.5,0,0,0,74.714-63.5Zm-46.024,61.452a51.853,51.853,0,0,1-28.008-2.52,2.259,2.259,0,0,0-1.825.094,61,61,0,0,1-30.356,5.695A63.165,63.165,0,0,0,122.3,315.8a2.262,2.262,0,0,0-.344-1.428,51.987,51.987,0,1,1,53.349,23.142Zm0,0" transform="translate(-109.282 -229.891)" fill="#022334"/>
    </g>
    <path id="Path_298" data-name="Path 298" d="M218.34,389.245h7.232a2.258,2.258,0,0,0,2.258-2.258V377.2a2.258,2.258,0,0,0-2.258-2.258H218.34a1.454,1.454,0,0,1-1.435-1.435v-4.231h5.281a5.65,5.65,0,0,0,5.643-5.644V351.947a5.649,5.649,0,0,0-5.643-5.643H208.249a5.649,5.649,0,0,0-5.644,5.643v21.561a15.754,15.754,0,0,0,15.735,15.737Zm-11.22-37.3a1.143,1.143,0,0,1,1.128-1.128h13.938a1.142,1.142,0,0,1,1.128,1.128v11.686a1.143,1.143,0,0,1-1.128,1.128h-7.539a2.257,2.257,0,0,0-2.258,2.258v6.489a5.957,5.957,0,0,0,5.95,5.95h4.974v5.271H218.34a11.234,11.234,0,0,1-11.221-11.221V351.947Zm0,0" transform="translate(-65.229 -81.368)" fill="#022334"/>
    <path id="Path_299" data-name="Path 299" d="M327.169,369.277a5.65,5.65,0,0,0,5.644-5.644V351.947a5.649,5.649,0,0,0-5.644-5.643H313.231a5.652,5.652,0,0,0-5.649,5.643v21.561a15.757,15.757,0,0,0,15.742,15.737h7.232a2.258,2.258,0,0,0,2.258-2.258V377.2a2.258,2.258,0,0,0-2.258-2.258h-7.232a1.457,1.457,0,0,1-1.442-1.435v-4.231Zm-3.845,10.182H328.3v5.269h-4.973A11.236,11.236,0,0,1,312.1,373.508V351.947a1.145,1.145,0,0,1,1.134-1.128h13.938a1.143,1.143,0,0,1,1.128,1.128v11.686a1.143,1.143,0,0,1-1.128,1.128h-7.545a2.258,2.258,0,0,0-2.258,2.258v6.489a5.961,5.961,0,0,0,5.957,5.952Zm0,0" transform="translate(-138.604 -81.368)" fill="#022334"/>
    <path id="Path_300" data-name="Path 300" d="M189.62,312.483a2.25,2.25,0,0,0,1.6-.662l.007-.006a2.259,2.259,0,1,0-1.6.668Zm0,0" transform="translate(-54.575 -54.571)" fill="#022334"/>
    <path id="Path_301" data-name="Path 301" d="M195.87,265.964a45.927,45.927,0,0,0-29.012,6.462,2.258,2.258,0,1,0,2.365,3.846,41.222,41.222,0,1,1-13.6,13.595,2.258,2.258,0,0,0-3.848-2.364,45.971,45.971,0,0,0-6.457,29.018,45.744,45.744,0,1,0,77.8-37.445,45.881,45.881,0,0,0-27.25-13.112Zm30.648,16.912a45.927,45.927,0,0,0-25.084-15.945,2.258,2.258,0,0,0-1.048,4.392,41.222,41.222,0,1,1-19.23,0,2.258,2.258,0,0,0-1.049-4.392,45.972,45.972,0,0,0-25.084,15.953,45.744,45.744,0,1,0,81.493,28.537,45.881,45.881,0,0,0-10-28.54ZM195.87,265.964" transform="translate(-24.983 -25.018)" fill="#022334"/>
  </g>
</svg>
