<svg id="LinkedIn" xmlns="http://www.w3.org/2000/svg" width="39.534" height="39.532" viewBox="0 0 39.534 39.532">
  <path id="Path_458" data-name="Path 458" d="M-419.906,4322.61a19.765,19.765,0,0,0-19.766,19.765,19.765,19.765,0,0,0,19.766,19.767,19.766,19.766,0,0,0,19.768-19.767A19.766,19.766,0,0,0-419.906,4322.61Zm-4.474,28.8h-4.342v-15.048h4.342Zm-2.178-16.669a2.659,2.659,0,0,1-2.65-2.65,2.727,2.727,0,0,1,2.65-2.739,2.729,2.729,0,0,1,2.665,2.739A2.661,2.661,0,0,1-426.559,4334.744Zm17.154,16.669h-4.27v-9.174a1.69,1.69,0,0,0-.766-1.252c-1.678-.986-3.5.766-3.5.766v9.66h-4.344v-15.048h4.344v.691a6.567,6.567,0,0,1,5.609.146,6.005,6.005,0,0,1,2.93,5.037Z" transform="translate(439.672 -4322.61)" fill="#c6ff6e"/>
</svg>
