<svg xmlns="http://www.w3.org/2000/svg" width="81" height="81" viewBox="0 0 81 81">
  <g id="Chat_icon" data-name="Chat icon" transform="translate(897.698 -483.608)">
    <circle id="Circle" cx="40.5" cy="40.5" r="40.5" transform="translate(-897.698 483.608)" fill="#91de29"/>
    <g id="Icon" transform="translate(-876.395 506.382)">
      <path id="Path_462" data-name="Path 462" d="M-820.513,533.45c-.086-3.826-2.772-6.93-6.124-7.124a78.256,78.256,0,0,0-13.172-.856c-7.6,0-11.18.614-12.316.861-3.294.234-5.927,3.281-6.046,7.041a54.606,54.606,0,0,0-.369,7.563,74.589,74.589,0,0,0,.367,8.311c.094,3.844,2.812,6.957,6.19,7.113.774.113,3.618.492,8.114.683v-5.99c-4.662-.209-7.348-.629-7.373-.633l-.237-.038h-.2a1.662,1.662,0,0,1-.51-1.339l-.027-.4a65.667,65.667,0,0,1-.338-7.7,46.716,46.716,0,0,1,.307-6.709h0l.058-.291v-.3a1.666,1.666,0,0,1,.509-1.339l.34.008.39-.107c.029-.008,3.032-.747,11.143-.747a69.791,69.791,0,0,1,12.222.782l.306.065H-827a1.663,1.663,0,0,1,.509,1.339l.022.364a67.065,67.065,0,0,1,.343,7.269,71.451,71.451,0,0,1-.344,7.417l-.021.351a1.659,1.659,0,0,1-.51,1.339h-.228l-.257.045a64.441,64.441,0,0,1-7.051.672l-.888.045-8.439,6.131v7.4l10.523-7.644c3.631-.215,5.951-.554,6.668-.67,3.373-.17,6.081-3.289,6.164-7.133a78.328,78.328,0,0,0,.367-7.951A74.452,74.452,0,0,0-820.513,533.45Zm-6.456,16.93h0Z" transform="translate(858.54 -525.47)" fill="#fff"/>
    </g>
  </g>
</svg>
