<svg id="Translation" xmlns="http://www.w3.org/2000/svg" width="104.1" height="103.849" viewBox="0 0 104.1 103.849">
  <g id="Group_317" data-name="Group 317" transform="translate(19.853 16.917)">
    <path id="Path_866" data-name="Path 866" d="M1089.139,101.061a18.726,18.726,0,0,0,9.31,13.545,2.042,2.042,0,0,1,1.217,2.274,2,2,0,0,1-3.1,1.271,21.928,21.928,0,0,1-7.518-6.813c-.78-1.139-1.446-2.357-2.051-3.352a50.811,50.811,0,0,1-4.077,5.568,38.37,38.37,0,0,1-5.441,4.43,2.007,2.007,0,0,1-3.1-.464c-.64-1.07-.243-2.176,1.077-2.961a18.716,18.716,0,0,0,9.1-12.782c.039-.19.045-.388.082-.717h-5.073c-.63,0-1.26.018-1.889-.011a1.978,1.978,0,0,1-.011-3.955c2.121-.036,4.242-.013,6.363-.014h.843c0-.4,0-.749,0-1.1,0-2.353-.026-4.707.013-7.06a2.056,2.056,0,0,1,2.028-2.148,2.082,2.082,0,0,1,2,2.07c.024.263.013.53.013.8q0,3.132,0,6.265v1.174c1.353,0,7.3-.022,9.024.011a1.956,1.956,0,0,1,1.978,1.945,1.931,1.931,0,0,1-2,2.012c-2.519.027-5.038.011-7.557.013Z" transform="translate(-1074.077 -86.777)" fill="#fff"/>
  </g>
  <path id="Path_867" data-name="Path 867" d="M1160.838,155.928c.753,1.727,1.489,3.388,2.2,5.058.591,1.385.223,2.508-.948,2.987-1.117.456-2.131-.061-2.732-1.419-.843-1.9-1.692-3.808-2.5-5.729a1.019,1.019,0,0,0-1.108-.729q-4.874.042-9.747,0a1.018,1.018,0,0,0-1.092.751c-.849,2.011-1.729,4.009-2.622,6a1.926,1.926,0,0,1-2.15,1.246,1.824,1.824,0,0,1-1.66-1.605,2.826,2.826,0,0,1,.243-1.424c.691-1.682,1.439-3.34,2.278-5.264a1.294,1.294,0,0,1-.446-.2,1.881,1.881,0,0,1-.628-2.054,1.765,1.765,0,0,1,1.707-1.421c.9-.006,1.212-.476,1.525-1.2,1.9-4.4,3.831-8.791,5.769-13.177.658-1.489,2.109-1.962,3.2-1.023a3.486,3.486,0,0,1,.8,1.227c1.972,4.444,3.916,8.9,5.9,13.341.135.3.476.688.757.719,1.024.115,1.9.372,2.252,1.461A2.061,2.061,0,0,1,1160.838,155.928Zm-13.767-3.954h7.641l-3.821-8.7Z" transform="translate(-1078.332 -88.38)" fill="#fff"/>
  <path id="Path_868" data-name="Path 868" d="M1137.058,94h-29.193c.022-.492.038-.985.038-1.482a32.78,32.78,0,1,0-61.174,16.386l-2.734,9.158a4.288,4.288,0,0,0,5.1,5.4l9.965-2.368a32.778,32.778,0,0,0,22.5,3.566V139.61a9.394,9.394,0,0,0,9.384,9.384h17.486c.278.077,1.127.482,3.438,2.485l13.516,11.264a3.788,3.788,0,0,0,2.371.841,3.193,3.193,0,0,0,1.368-.294,3.074,3.074,0,0,0,1.707-2.938l-.1-10.413c0-.944.323-.944.46-.944h5.868a9.394,9.394,0,0,0,9.384-9.384V103.381A9.394,9.394,0,0,0,1137.058,94Zm-61.936,27.545a28.992,28.992,0,0,1-14.811-4.063l-.654-.389-11.432,2.717a.534.534,0,0,1-.635-.672l3.21-10.751-.438-.715a29.028,29.028,0,1,1,53.787-15.153q0,.746-.038,1.482a29.057,29.057,0,0,1-28.99,27.545Zm67.566,18.068a5.637,5.637,0,0,1-5.63,5.63h-5.868c-2.029,0-4.213,1.469-4.213,4.716l.092,9.3-12.6-10.494-.139-.121c-2.422-2.1-4.241-3.4-5.823-3.4h-17.559a5.637,5.637,0,0,1-5.63-5.63V123.664a32.875,32.875,0,0,0,22.162-25.913h29.579a5.637,5.637,0,0,1,5.63,5.63Z" transform="translate(-1042.342 -59.735)" fill="#fff"/>
</svg>
