<svg id="Instagram" xmlns="http://www.w3.org/2000/svg" width="30.266" height="30.267" viewBox="0 0 30.266 30.267">
  <path id="Path_459" data-name="Path 459" d="M-109.387,4346.02a2.513,2.513,0,0,0-.609-.936,2.518,2.518,0,0,0-.936-.609,4.517,4.517,0,0,0-1.512-.28c-.858-.039-1.116-.047-3.289-.047s-2.431.008-3.289.047a4.517,4.517,0,0,0-1.512.28,2.518,2.518,0,0,0-.936.609,2.513,2.513,0,0,0-.609.936,4.513,4.513,0,0,0-.28,1.511c-.039.859-.047,1.116-.047,3.29s.008,2.431.047,3.289a4.507,4.507,0,0,0,.28,1.511,2.526,2.526,0,0,0,.609.936,2.522,2.522,0,0,0,.936.609,4.5,4.5,0,0,0,1.512.28c.858.039,1.116.048,3.289.048s2.431-.009,3.289-.048a4.5,4.5,0,0,0,1.512-.28,2.523,2.523,0,0,0,.936-.609,2.526,2.526,0,0,0,.609-.936,4.5,4.5,0,0,0,.28-1.511c.039-.858.048-1.116.048-3.289s-.008-2.431-.048-3.29A4.5,4.5,0,0,0-109.387,4346.02Zm-6.346,8.98a4.18,4.18,0,0,1-4.18-4.179,4.18,4.18,0,0,1,4.18-4.181,4.18,4.18,0,0,1,4.18,4.181A4.18,4.18,0,0,1-115.733,4355Zm4.345-7.548a.977.977,0,0,1-.977-.977.977.977,0,0,1,.977-.977.977.977,0,0,1,.977.977A.977.977,0,0,1-111.388,4347.452Z" transform="translate(130.866 -4335.687)" fill="#022334"/>
  <circle id="Ellipse_6" data-name="Ellipse 6" cx="2.713" cy="2.713" r="2.713" transform="translate(12.42 12.42)" fill="#022334"/>
  <path id="Path_460" data-name="Path 460" d="M-128.809,4322.61a15.133,15.133,0,0,0-15.134,15.133,15.134,15.134,0,0,0,15.134,15.134,15.132,15.132,0,0,0,15.132-15.134A15.131,15.131,0,0,0-128.809,4322.61Zm8.09,18.49a5.967,5.967,0,0,1-.378,1.976,3.984,3.984,0,0,1-.939,1.441,3.992,3.992,0,0,1-1.442.939,5.981,5.981,0,0,1-1.976.378c-.868.04-1.145.049-3.356.049s-2.488-.009-3.356-.049a5.979,5.979,0,0,1-1.976-.378,3.992,3.992,0,0,1-1.442-.939,3.983,3.983,0,0,1-.939-1.441,5.966,5.966,0,0,1-.379-1.976c-.039-.868-.049-1.146-.049-3.356s.009-2.488.049-3.356a5.968,5.968,0,0,1,.379-1.976,3.983,3.983,0,0,1,.939-1.441,3.985,3.985,0,0,1,1.442-.939,5.966,5.966,0,0,1,1.976-.378c.868-.04,1.145-.049,3.356-.049s2.488.009,3.356.049a5.968,5.968,0,0,1,1.976.378,3.985,3.985,0,0,1,1.442.939,3.984,3.984,0,0,1,.939,1.441,5.969,5.969,0,0,1,.378,1.976c.04.868.049,1.146.049,3.356S-120.679,4340.231-120.719,4341.1Z" transform="translate(143.943 -4322.61)" fill="#022334"/>
</svg>
