<svg id="Group_78" data-name="Group 78" xmlns="http://www.w3.org/2000/svg" width="31.001" height="31" viewBox="0 0 31.001 31">
  <path id="Path_174" data-name="Path 174" d="M-424.172,4322.61a15.5,15.5,0,0,0-15.5,15.5,15.5,15.5,0,0,0,15.5,15.5,15.5,15.5,0,0,0,15.5-15.5A15.5,15.5,0,0,0-424.172,4322.61Zm-3.509,22.586h-3.4v-11.8h3.4Zm-1.708-13.071a2.085,2.085,0,0,1-2.078-2.078,2.139,2.139,0,0,1,2.078-2.148,2.14,2.14,0,0,1,2.09,2.148A2.087,2.087,0,0,1-429.389,4332.125Zm13.452,13.071h-3.349V4338a1.324,1.324,0,0,0-.6-.981c-1.316-.773-2.748.6-2.748.6v7.574h-3.406v-11.8h3.406v.542a5.149,5.149,0,0,1,4.4.115,4.709,4.709,0,0,1,2.3,3.949Z" transform="translate(439.672 -4322.61)" fill="#3fc09a"/>
</svg>
