<svg id="LinkedIn" xmlns="http://www.w3.org/2000/svg" width="30.267" height="30.265" viewBox="0 0 30.267 30.265">
  <path id="Path_458" data-name="Path 458" d="M-424.539,4322.61a15.132,15.132,0,0,0-15.133,15.131,15.131,15.131,0,0,0,15.133,15.134,15.133,15.133,0,0,0,15.134-15.134A15.133,15.133,0,0,0-424.539,4322.61Zm-3.426,22.051h-3.324v-11.521h3.324Zm-1.668-12.762a2.035,2.035,0,0,1-2.028-2.029,2.087,2.087,0,0,1,2.028-2.1,2.088,2.088,0,0,1,2.04,2.1A2.037,2.037,0,0,1-429.633,4331.9Zm13.134,12.762h-3.269v-7.023a1.3,1.3,0,0,0-.586-.959c-1.284-.755-2.682.587-2.682.587v7.4h-3.326v-11.521h3.326v.529a5.029,5.029,0,0,1,4.295.111,4.6,4.6,0,0,1,2.243,3.856Z" transform="translate(439.672 -4322.61)" fill="#022334"/>
</svg>
