<svg id="Icon" xmlns="http://www.w3.org/2000/svg" width="119.247" height="135.595" viewBox="0 0 119.247 135.595">
  <path id="Path_315" data-name="Path 315" d="M788.5,1210.85l16.3-4.3,10.2,35.2-16.6,5.4-9.9-33.4Z" transform="translate(-708.377 -1138.203)" fill="#3fc09a"/>
  <g id="Group_192" data-name="Group 192" transform="matrix(0.966, -0.259, 0.259, 0.966, -210.392, -170.113)">
    <path id="Path_302" data-name="Path 302" d="M231.992,357.489H166.487A13.5,13.5,0,0,1,153,344V255.377a13.5,13.5,0,0,1,13.487-13.487h65.506a13.5,13.5,0,0,1,13.487,13.487V344a13.5,13.5,0,0,1-13.487,13.487ZM166.487,245.743a9.645,9.645,0,0,0-9.633,9.633V344a9.645,9.645,0,0,0,9.633,9.633h65.506A9.645,9.645,0,0,0,241.626,344V255.377a9.645,9.645,0,0,0-9.633-9.633Zm0,0" fill="#022334"/>
    <path id="Path_303" data-name="Path 303" d="M278.34,537.156H266.78a5.78,5.78,0,0,1-5.78-5.78V523.67a5.78,5.78,0,0,1,5.78-5.78h11.56a5.78,5.78,0,0,1,5.78,5.78v7.707a5.78,5.78,0,0,1-5.78,5.78Zm-11.56-15.413a1.927,1.927,0,0,0-1.927,1.927v7.707a1.927,1.927,0,0,0,1.927,1.927h11.56a1.927,1.927,0,0,0,1.927-1.927V523.67a1.927,1.927,0,0,0-1.927-1.927Zm0,0" transform="translate(-73.32 -187.374)" fill="#022334"/>
    <path id="Path_304" data-name="Path 304" d="M194.34,537.156H182.78a5.78,5.78,0,0,1-5.78-5.78V523.67a5.78,5.78,0,0,1,5.78-5.78h11.56a5.78,5.78,0,0,1,5.78,5.78v7.707a5.78,5.78,0,0,1-5.78,5.78Zm-11.56-15.413a1.927,1.927,0,0,0-1.927,1.927v7.707a1.927,1.927,0,0,0,1.927,1.927h11.56a1.927,1.927,0,0,0,1.927-1.927V523.67a1.927,1.927,0,0,0-1.927-1.927Zm0,0" transform="translate(-16.293 -187.374)" fill="#022334"/>
    <path id="Path_305" data-name="Path 305" d="M362.34,488.276H350.78A5.78,5.78,0,0,1,345,482.5V451.67a5.78,5.78,0,0,1,5.78-5.78h11.56a5.78,5.78,0,0,1,5.78,5.78V482.5a5.78,5.78,0,0,1-5.78,5.78Zm-11.56-38.533a1.927,1.927,0,0,0-1.927,1.927V482.5a1.927,1.927,0,0,0,1.927,1.927h11.56a1.927,1.927,0,0,0,1.927-1.927V451.67a1.927,1.927,0,0,0-1.927-1.927Zm0,0" transform="translate(-130.347 -138.494)" fill="#022334"/>
    <path id="Path_306" data-name="Path 306" d="M278.34,465.156H266.78a5.78,5.78,0,0,1-5.78-5.78V451.67a5.78,5.78,0,0,1,5.78-5.78h11.56a5.78,5.78,0,0,1,5.78,5.78v7.707a5.78,5.78,0,0,1-5.78,5.78Zm-11.56-15.413a1.927,1.927,0,0,0-1.927,1.927v7.707a1.927,1.927,0,0,0,1.927,1.927h11.56a1.927,1.927,0,0,0,1.927-1.927V451.67a1.927,1.927,0,0,0-1.927-1.927Zm0,0" transform="translate(-73.32 -138.494)" fill="#022334"/>
    <path id="Path_307" data-name="Path 307" d="M194.34,465.156H182.78a5.78,5.78,0,0,1-5.78-5.78V451.67a5.78,5.78,0,0,1,5.78-5.78h11.56a5.78,5.78,0,0,1,5.78,5.78v7.707a5.78,5.78,0,0,1-5.78,5.78Zm-11.56-15.413a1.927,1.927,0,0,0-1.927,1.927v7.707a1.927,1.927,0,0,0,1.927,1.927h11.56a1.927,1.927,0,0,0,1.927-1.927V451.67a1.927,1.927,0,0,0-1.927-1.927Zm0,0" transform="translate(-16.293 -138.494)" fill="#022334"/>
    <path id="Path_308" data-name="Path 308" d="M278.34,393.156H266.78a5.78,5.78,0,0,1-5.78-5.78V379.67a5.78,5.78,0,0,1,5.78-5.78h11.56a5.78,5.78,0,0,1,5.78,5.78v7.707a5.78,5.78,0,0,1-5.78,5.78Zm-11.56-15.413a1.927,1.927,0,0,0-1.927,1.927v7.707a1.927,1.927,0,0,0,1.927,1.927h11.56a1.927,1.927,0,0,0,1.927-1.927V379.67a1.927,1.927,0,0,0-1.927-1.927Zm0,0" transform="translate(-73.32 -89.614)" fill="#022334"/>
    <path id="Path_309" data-name="Path 309" d="M194.34,393.156H182.78a5.78,5.78,0,0,1-5.78-5.78V379.67a5.78,5.78,0,0,1,5.78-5.78h11.56a5.78,5.78,0,0,1,5.78,5.78v7.707a5.78,5.78,0,0,1-5.78,5.78Zm-11.56-15.413a1.927,1.927,0,0,0-1.927,1.927v7.707a1.927,1.927,0,0,0,1.927,1.927h11.56a1.927,1.927,0,0,0,1.927-1.927V379.67a1.927,1.927,0,0,0-1.927-1.927Zm0,0" transform="translate(-16.293 -89.614)" fill="#022334"/>
    <path id="Path_310" data-name="Path 310" d="M362.34,393.156H350.78a5.78,5.78,0,0,1-5.78-5.78V379.67a5.78,5.78,0,0,1,5.78-5.78h11.56a5.78,5.78,0,0,1,5.78,5.78v7.707a5.78,5.78,0,0,1-5.78,5.78Zm-11.56-15.413a1.927,1.927,0,0,0-1.927,1.927v7.707a1.927,1.927,0,0,0,1.927,1.927h11.56a1.927,1.927,0,0,0,1.927-1.927V379.67a1.927,1.927,0,0,0-1.927-1.927Zm0,0" transform="translate(-130.347 -89.614)" fill="#022334"/>
    <path id="Path_311" data-name="Path 311" d="M248.286,292.863H182.78a5.78,5.78,0,0,1-5.78-5.78V271.67a5.78,5.78,0,0,1,5.78-5.78h65.506a5.78,5.78,0,0,1,5.78,5.78v15.413a5.78,5.78,0,0,1-5.78,5.78Zm-65.506-23.12a1.927,1.927,0,0,0-1.927,1.927v15.413a1.927,1.927,0,0,0,1.927,1.927h65.506a1.927,1.927,0,0,0,1.927-1.927V271.67a1.927,1.927,0,0,0-1.927-1.927Zm0,0" transform="translate(-16.293 -16.293)" fill="#022334"/>
    <path id="Path_312" data-name="Path 312" d="M368.78,299.3a5.78,5.78,0,0,1-5.78-5.78V289.67a5.78,5.78,0,1,1,11.56,0v3.853a5.78,5.78,0,0,1-5.78,5.78Zm0-11.56a1.927,1.927,0,0,0-1.927,1.927v3.853a1.927,1.927,0,1,0,3.853,0V289.67a1.927,1.927,0,0,0-1.927-1.927Zm0,0" transform="translate(-142.567 -28.514)" fill="#022334"/>
  </g>
</svg>
